<svg width="278" height="128" viewBox="0 0 278 128" fill="none" xmlns="http://www.w3.org/2000/svg">
<path d="M184.741 11.0555C204.698 1.67624 222.815 11.2322 222.88 15.3532C234.23 13.4312 243.58 15.0313 243.701 22.822C258.795 22.5873 268.373 26.8775 266.338 39.5925C280.226 51.7708 278.087 58.3381 270.817 69.9627C276.818 80.6177 272.309 91.5522 252.863 96.5598C253.082 110.607 244.074 115.439 224.435 115.393C206.16 125.996 196.592 126.661 170.895 119.396C153.948 128.295 141.503 126.413 124.32 120.12C102.07 126.793 89.7202 129.068 69.151 115.905C58.7363 116.342 33.2192 114.428 25.5085 91.389C5.98227 89.917 0.584331 71.0616 2.24343 63.2144C2.06103 51.4852 14.3004 24.804 40.7707 30.417C38.7776 5.33504 74.2638 8.01733 92.256 12.4937C100.416 0.317848 127.171 2.75556 132.99 11.8603C142.151 -0.331448 171.678 -1.55032 184.741 11.0555Z" fill="white"/>
<path d="M222.88 15.3532L223.046 16.3392C222.759 16.3879 222.464 16.3086 222.24 16.1221C222.016 15.9355 221.884 15.6604 221.88 15.3688L222.88 15.3532ZM184.741 11.0555L185.166 11.9605C184.791 12.137 184.345 12.0633 184.047 11.7751L184.741 11.0555ZM132.99 11.8603L133.789 12.461C133.592 12.7231 133.279 12.872 132.952 12.8596C132.624 12.8472 132.323 12.675 132.147 12.3988L132.99 11.8603ZM92.256 12.4937L93.0867 13.0504C92.8522 13.4004 92.4234 13.5659 92.0146 13.4641L92.256 12.4937ZM40.7707 30.417L41.7676 30.3378C41.7925 30.6523 41.6676 30.9602 41.4305 31.1684C41.1934 31.3766 40.8719 31.4607 40.5633 31.3952L40.7707 30.417ZM2.24343 63.2144L3.24331 63.1989C3.24447 63.2736 3.23727 63.3482 3.2218 63.4213L2.24343 63.2144ZM25.5085 91.389L25.5837 90.3918C25.985 90.4221 26.3291 90.69 26.4568 91.0716L25.5085 91.389ZM69.151 115.905L69.1092 114.906C69.3143 114.897 69.5171 114.952 69.6901 115.063L69.151 115.905ZM124.32 120.12L124.033 119.162C124.24 119.1 124.461 119.107 124.664 119.181L124.32 120.12ZM170.895 119.396L170.43 118.511C170.657 118.392 170.921 118.364 171.167 118.434L170.895 119.396ZM224.435 115.393L223.933 114.528C224.087 114.439 224.261 114.392 224.438 114.393L224.435 115.393ZM252.863 96.5598L251.863 96.5753C251.856 96.1133 252.166 95.7066 252.614 95.5914L252.863 96.5598ZM270.817 69.9627L269.946 70.4534C269.766 70.1344 269.775 69.7428 269.97 69.4325L270.817 69.9627ZM266.338 39.5925L265.678 40.3443C265.42 40.1176 265.296 39.7739 265.35 39.4344L266.338 39.5925ZM243.701 22.822L243.717 23.8219C243.165 23.8305 242.71 23.3898 242.702 22.8376L243.701 22.822ZM221.88 15.3688C221.877 15.1942 221.759 14.8146 221.278 14.2474C220.817 13.7039 220.107 13.0893 219.15 12.4595C217.24 11.2026 214.454 9.95576 211.031 9.11273C204.194 7.42904 194.913 7.37978 185.166 11.9605L184.316 10.1505C194.526 5.35196 204.282 5.39103 211.509 7.17075C215.118 8.05943 218.121 9.38808 220.25 10.7888C221.312 11.4878 222.184 12.2227 222.804 12.9539C223.404 13.6614 223.866 14.482 223.879 15.3377L221.88 15.3688ZM184.047 11.7751C177.776 5.72363 167.431 2.90942 157.427 3.1585C147.392 3.40835 138.099 6.72464 133.789 12.461L132.19 11.2596C137.041 4.80421 147.093 1.41519 157.377 1.15912C167.692 0.902291 178.643 3.78155 185.436 10.3359L184.047 11.7751ZM132.147 12.3988C130.856 10.3791 128.319 8.62243 124.961 7.34021C121.625 6.06685 117.594 5.30657 113.474 5.19642C105.154 4.97401 96.8768 7.39484 93.0867 13.0504L91.4253 11.937C95.7949 5.41673 104.975 2.96848 113.527 3.19714C117.843 3.31252 122.101 4.10782 125.674 5.47174C129.224 6.8268 132.213 8.78912 133.832 11.3218L132.147 12.3988ZM92.0146 13.4641C83.0824 11.2418 69.8677 9.48506 59.1915 11.356C53.8553 12.2911 49.265 14.1134 46.1381 17.1257C43.0513 20.0994 41.2901 24.3288 41.7676 30.3378L39.7738 30.4962C39.2548 23.9642 41.182 19.1231 44.7505 15.6854C48.279 12.2862 53.311 10.356 58.8463 9.38599C69.9129 7.44666 83.4374 9.26921 92.4975 11.5233L92.0146 13.4641ZM40.5633 31.3952C27.7506 28.6783 18.4264 33.7521 12.2729 40.9616C6.07014 48.2288 3.15623 57.5996 3.24331 63.1989L1.24355 63.23C1.14822 57.1 4.2628 47.2656 10.7517 39.6632C17.2899 32.003 27.3205 26.5427 40.9781 29.4387L40.5633 31.3952ZM3.2218 63.4213C2.45288 67.0581 3.31388 73.476 6.78538 79.172C10.2223 84.8113 16.1812 89.683 25.5837 90.3918L25.4334 92.3862C15.3096 91.623 8.80636 86.331 5.07757 80.2128C1.38329 74.1513 0.374881 67.2179 1.26506 63.0076L3.2218 63.4213ZM26.4568 91.0716C30.1937 102.237 38.2298 108.29 46.6727 111.516C55.1426 114.753 63.9749 115.121 69.1092 114.906L69.1929 116.904C63.9124 117.125 54.7788 116.755 45.9588 113.384C37.1117 110.004 28.534 103.58 24.5602 91.7064L26.4568 91.0716ZM69.6901 115.063C79.8672 121.575 87.9225 124.215 96.1341 124.451C104.392 124.689 112.898 122.502 124.033 119.162L124.608 121.078C113.492 124.412 104.698 126.698 96.0766 126.451C87.4084 126.201 79.004 123.397 68.612 116.747L69.6901 115.063ZM124.664 119.181C133.224 122.316 140.506 124.314 147.716 124.455C154.9 124.596 162.083 122.894 170.43 118.511L171.36 120.281C162.761 124.797 155.247 126.603 147.677 126.455C140.131 126.307 132.599 124.217 123.976 121.059L124.664 119.181ZM171.167 118.434C184 122.062 192.673 123.667 200.375 123.098C208.045 122.53 214.852 119.797 223.933 114.528L224.937 116.258C215.744 121.592 208.629 124.493 200.522 125.092C192.447 125.69 183.487 123.995 170.623 120.358L171.167 118.434ZM224.438 114.393C234.225 114.416 241.138 113.212 245.561 110.416C249.869 107.693 251.969 103.353 251.863 96.5753L253.863 96.5442C253.976 103.814 251.681 108.913 246.63 112.106C241.694 115.226 234.284 116.416 224.433 116.393L224.438 114.393ZM252.614 95.5914C262.217 93.1184 267.91 89.2344 270.525 84.8655C273.104 80.5553 272.816 75.5502 269.946 70.4534L271.689 69.472C274.819 75.0302 275.277 80.8199 272.241 85.8926C269.24 90.9065 262.955 94.9936 253.113 97.5282L252.614 95.5914ZM269.97 69.4325C273.623 63.5903 275.784 59.3021 275.514 55.0485C275.248 50.8457 272.573 46.3903 265.678 40.3443L266.997 38.8406C273.991 44.973 277.191 49.8904 277.51 54.922C277.826 59.9027 275.282 64.7105 271.665 70.4929L269.97 69.4325ZM265.35 39.4344C265.839 36.3825 265.618 33.9175 264.85 31.9364C264.086 29.9656 262.754 28.403 260.896 27.1881C257.129 24.7254 251.215 23.7053 243.717 23.8219L243.686 21.8221C251.282 21.704 257.704 22.7117 261.99 25.5141C264.159 26.9318 265.783 28.8111 266.714 31.2135C267.642 33.6055 267.854 36.4449 267.325 39.7505L265.35 39.4344ZM242.702 22.8376C242.675 21.1048 242.142 19.7794 241.243 18.7591C240.33 17.7234 238.979 16.9337 237.214 16.403C233.66 15.3347 228.664 15.3879 223.046 16.3392L222.713 14.3672C228.446 13.3964 233.8 13.2887 237.789 14.4876C239.795 15.0906 241.514 16.0415 242.743 17.4369C243.986 18.8477 244.668 20.6439 244.701 22.8065L242.702 22.8376Z" fill="black"/>
<path d="M104.095 57.92C104.095 57.6853 104.106 57.4506 104.127 57.216C104.149 56.9813 104.159 56.7466 104.159 56.512C104.159 56.2773 104.149 56.0533 104.127 55.84C104.106 55.6053 104.063 55.36 103.999 55.104C104.042 54.9973 104.063 54.8906 104.063 54.784C104.063 54.656 104.063 54.528 104.063 54.4C104.063 54.0373 104.021 53.6426 103.935 53.216C103.871 52.768 103.797 52.3093 103.711 51.84C103.519 51.584 103.242 51.456 102.879 51.456C102.581 51.456 102.314 51.5306 102.079 51.68C101.845 51.8293 101.727 52.0746 101.727 52.416C101.727 52.8213 101.77 53.1946 101.855 53.536C101.941 53.8773 101.983 54.2933 101.983 54.784V55.296C101.983 55.616 102.037 55.904 102.143 56.16C102.058 56.4373 102.015 56.7466 102.015 57.088C102.015 57.4293 102.026 57.664 102.047 57.792C102.09 57.8986 102.111 58.1226 102.111 58.464C102.111 59.168 102.09 59.712 102.047 60.096C102.026 60.4586 101.983 60.7573 101.919 60.992C101.877 61.2053 101.834 61.3973 101.791 61.568C101.77 61.7386 101.759 61.9733 101.759 62.272C101.759 62.528 101.845 62.7626 102.015 62.976C102.186 63.1893 102.453 63.296 102.815 63.296C103.05 63.296 103.242 63.2 103.391 63.008C103.541 62.816 103.658 62.5813 103.743 62.304C103.829 62.0053 103.882 61.696 103.903 61.376C103.946 61.0346 103.967 60.736 103.967 60.48V60.224C104.01 60.0533 104.053 59.808 104.095 59.488C104.138 59.168 104.159 58.8586 104.159 58.56C104.159 58.4533 104.149 58.3466 104.127 58.24C104.127 58.1333 104.117 58.0266 104.095 57.92ZM96.2232 60.032C96.0526 59.712 95.9032 59.4773 95.7752 59.328C95.6472 59.1573 95.4766 58.9866 95.2632 58.816C95.0712 58.624 94.8259 58.4 94.5272 58.144C94.2286 57.8666 93.8446 57.4613 93.3752 56.928C93.5672 56.6933 93.7699 56.4373 93.9832 56.16C94.1966 55.8613 94.3032 55.4666 94.3032 54.976C94.3032 54.4853 94.0899 54.1333 93.6632 53.92C93.2366 53.6853 92.7779 53.568 92.2872 53.568H92.0312C91.6472 53.504 91.2952 53.44 90.9752 53.376C90.6766 53.2906 90.3459 53.2266 89.9832 53.184C89.6419 53.12 89.2259 53.0666 88.7352 53.024C88.2659 52.9813 87.6686 52.96 86.9432 52.96C86.7939 53.0026 86.6232 53.1306 86.4312 53.344C86.2392 53.5573 86.1432 53.824 86.1432 54.144C86.1432 54.3786 86.2072 54.6026 86.3352 54.816C87.0819 54.9653 87.7112 55.04 88.2232 55.04C88.7566 55.04 89.2579 55.1253 89.7272 55.296H89.9192C90.0686 55.296 90.2499 55.3173 90.4632 55.36C90.6766 55.4026 90.8792 55.4453 91.0712 55.488C91.2632 55.5306 91.4126 55.5733 91.5192 55.616C91.6472 55.6373 91.7006 55.648 91.6792 55.648C91.4659 55.904 91.2099 56.2453 90.9112 56.672C90.6126 57.0773 90.3566 57.3653 90.1432 57.536L88.4152 60.192C88.2019 60.512 87.9566 60.8746 87.6792 61.28C87.4019 61.6853 87.2419 62.0693 87.1992 62.432C87.2206 62.5173 87.3379 62.688 87.5512 62.944C87.7859 63.1786 88.0526 63.296 88.3512 63.296C88.6072 63.296 88.8312 63.168 89.0232 62.912C89.2366 62.656 89.5032 62.2933 89.8232 61.824C89.8446 61.7173 89.9192 61.5573 90.0472 61.344C90.1966 61.1306 90.3459 60.9173 90.4952 60.704C90.6659 60.4906 90.8259 60.3093 90.9752 60.16C91.1246 59.9893 91.2206 59.8826 91.2632 59.84C91.2846 59.776 91.3379 59.68 91.4232 59.552C91.5086 59.424 91.5939 59.296 91.6792 59.168C91.7859 59.0186 91.8819 58.88 91.9672 58.752C92.0739 58.624 92.1592 58.528 92.2232 58.464C92.3512 58.6133 92.4472 58.7306 92.5112 58.816C92.5752 58.88 92.6179 58.9333 92.6392 58.976C92.6819 59.0186 92.7139 59.0506 92.7352 59.072C92.7779 59.0933 92.8312 59.1146 92.8952 59.136C93.2152 59.3706 93.4072 59.5946 93.4712 59.808C93.5352 60.0213 93.6739 60.192 93.8872 60.32C94.1432 60.5546 94.3886 60.7786 94.6232 60.992C94.8792 61.2053 95.1459 61.3333 95.4232 61.376C95.4446 61.376 95.4979 61.344 95.5832 61.28C95.6686 61.1946 95.7646 61.1093 95.8712 61.024C95.9779 60.9173 96.0739 60.8106 96.1592 60.704C96.2446 60.576 96.2872 60.448 96.2872 60.32C96.2872 60.256 96.2659 60.16 96.2232 60.032ZM100.287 69.088C100.373 68.8106 100.415 68.544 100.415 68.288C100.415 67.84 100.245 67.488 99.9032 67.232C99.5619 66.9546 99.1459 66.816 98.6552 66.816C98.5699 66.816 98.4846 66.8373 98.3992 66.88C98.1646 66.8373 97.9086 66.7946 97.6312 66.752C97.3539 66.688 97.0872 66.656 96.8312 66.656C96.6392 66.656 96.4472 66.688 96.2552 66.752C96.1272 66.7093 95.9992 66.688 95.8712 66.688C95.7432 66.688 95.6259 66.688 95.5192 66.688C95.2419 66.688 94.9859 66.7093 94.7512 66.752C94.5379 66.7733 94.3139 66.784 94.0792 66.784C93.9299 66.784 93.8126 66.7733 93.7272 66.752C92.8312 66.8586 92.2232 67.0186 91.9032 67.232C91.5832 67.4453 91.4232 67.7226 91.4232 68.064C91.4232 68.2773 91.5086 68.48 91.6792 68.672C91.8499 68.8426 91.9886 68.96 92.0952 69.024C92.2872 69.024 92.4899 69.0026 92.7032 68.96C92.9379 68.896 93.2152 68.864 93.5352 68.864C93.5992 68.864 93.6632 68.8746 93.7272 68.896C93.8126 68.896 93.8979 68.896 93.9832 68.896C94.1326 68.8533 94.3566 68.8213 94.6552 68.8C94.9539 68.7786 95.2099 68.768 95.4232 68.768H95.6792C95.7432 68.768 95.8072 68.768 95.8712 68.768C95.9566 68.7466 96.0419 68.736 96.1272 68.736C96.3192 68.736 96.5219 68.7466 96.7352 68.768C96.9699 68.7893 97.1832 68.8213 97.3752 68.864C97.5672 68.8853 97.7272 68.9173 97.8552 68.96C98.0046 69.0026 98.0792 69.056 98.0792 69.12C98.0792 69.2266 98.0792 69.3653 98.0792 69.536C98.0792 69.7066 98.0579 69.9093 98.0152 70.144L97.8552 71.552V71.808C97.8552 72.2346 97.7592 72.704 97.5672 73.216C97.3966 73.7493 97.3112 74.2933 97.3112 74.848C97.6739 75.1253 98.0366 75.264 98.3992 75.264C98.6339 75.264 98.8152 75.232 98.9432 75.168C99.0712 75.1253 99.1672 75.04 99.2312 74.912C99.3166 74.784 99.3806 74.6133 99.4232 74.4C99.4872 74.1866 99.5726 73.92 99.6792 73.6C99.8072 73.2373 99.9032 72.9066 99.9672 72.608C100.053 72.3093 100.117 72.0106 100.159 71.712C100.223 71.392 100.266 71.072 100.287 70.752C100.309 70.4106 100.319 70.0373 100.319 69.632C100.319 69.5253 100.309 69.4293 100.287 69.344C100.287 69.2586 100.287 69.1733 100.287 69.088ZM131.721 59.808C131.743 59.6586 131.753 59.4773 131.753 59.264C131.753 59.0506 131.753 58.7946 131.753 58.496C131.753 57.8773 131.711 57.472 131.625 57.28C131.668 57.1733 131.689 57.056 131.689 56.928C131.689 56.7786 131.689 56.6506 131.689 56.544C131.689 56.3733 131.689 56.2773 131.689 56.256C131.689 56.2133 131.689 56.1706 131.689 56.128C131.689 56.064 131.679 55.9573 131.657 55.808C131.657 55.6586 131.647 55.3706 131.625 54.944C131.625 54.2826 131.583 53.824 131.497 53.568C131.519 53.504 131.529 53.3866 131.529 53.216C131.529 53.088 131.519 52.9493 131.497 52.8C131.476 52.6293 131.444 52.4373 131.401 52.224L131.177 50.944C131.007 50.6453 130.697 50.496 130.249 50.496C129.929 50.496 129.652 50.5706 129.417 50.72C129.204 50.848 129.097 51.0613 129.097 51.36C129.097 51.616 129.129 51.904 129.193 52.224C129.257 52.5226 129.289 52.8853 129.289 53.312V53.728C129.289 53.8986 129.3 54.1226 129.321 54.4C129.364 54.6773 129.385 55.0293 129.385 55.456C129.385 55.6266 129.268 55.744 129.033 55.808C128.82 55.872 128.553 55.9146 128.233 55.936C127.913 55.9573 127.572 55.9786 127.209 56C126.868 56 126.559 56.0213 126.281 56.064H126.025C125.833 56.064 125.567 56.0853 125.225 56.128C124.884 56.1706 124.543 56.2453 124.201 56.352C123.881 56.4373 123.593 56.5653 123.337 56.736C123.103 56.8853 122.985 57.0666 122.985 57.28C122.985 57.5786 123.028 57.8026 123.113 57.952C123.199 58.1013 123.305 58.2186 123.433 58.304C123.583 58.3893 123.732 58.4426 123.881 58.464C124.031 58.464 124.169 58.464 124.297 58.464C124.596 58.464 124.895 58.4533 125.193 58.432C125.492 58.4106 125.716 58.368 125.865 58.304C125.929 58.3253 126.025 58.336 126.153 58.336C126.623 58.336 127.081 58.272 127.529 58.144C127.977 58.016 128.511 57.952 129.129 57.952C129.257 57.952 129.343 57.952 129.385 57.952C129.449 57.952 129.481 58.048 129.481 58.24C129.481 58.4106 129.471 58.6986 129.449 59.104C129.449 59.488 129.439 59.8933 129.417 60.32C129.396 60.8106 129.375 61.344 129.353 61.92C129.375 61.984 129.385 62.1013 129.385 62.272C129.385 62.464 129.353 62.7093 129.289 63.008C129.247 63.3066 129.225 63.5626 129.225 63.776C129.225 64.5013 129.609 64.864 130.377 64.864C130.761 64.864 131.06 64.6933 131.273 64.352C131.508 63.9893 131.625 63.3066 131.625 62.304C131.625 62.048 131.604 61.888 131.561 61.824C131.625 61.4613 131.657 61.0666 131.657 60.64C131.679 60.2133 131.7 59.936 131.721 59.808ZM122.153 60.032C121.983 59.712 121.833 59.4773 121.705 59.328C121.577 59.1573 121.407 58.9866 121.193 58.816C121.001 58.624 120.756 58.4 120.457 58.144C120.159 57.8666 119.775 57.4613 119.305 56.928C119.497 56.6933 119.7 56.4373 119.913 56.16C120.127 55.8613 120.233 55.4666 120.233 54.976C120.233 54.4853 120.02 54.1333 119.593 53.92C119.167 53.6853 118.708 53.568 118.217 53.568H117.961C117.577 53.504 117.225 53.44 116.905 53.376C116.607 53.2906 116.276 53.2266 115.913 53.184C115.572 53.12 115.156 53.0666 114.665 53.024C114.196 52.9813 113.599 52.96 112.873 52.96C112.724 53.0026 112.553 53.1306 112.361 53.344C112.169 53.5573 112.073 53.824 112.073 54.144C112.073 54.3786 112.137 54.6026 112.265 54.816C113.012 54.9653 113.641 55.04 114.153 55.04C114.687 55.04 115.188 55.1253 115.657 55.296H115.849C115.999 55.296 116.18 55.3173 116.393 55.36C116.607 55.4026 116.809 55.4453 117.001 55.488C117.193 55.5306 117.343 55.5733 117.449 55.616C117.577 55.6373 117.631 55.648 117.609 55.648C117.396 55.904 117.14 56.2453 116.841 56.672C116.543 57.0773 116.287 57.3653 116.073 57.536L114.345 60.192C114.132 60.512 113.887 60.8746 113.609 61.28C113.332 61.6853 113.172 62.0693 113.129 62.432C113.151 62.5173 113.268 62.688 113.481 62.944C113.716 63.1786 113.983 63.296 114.281 63.296C114.537 63.296 114.761 63.168 114.953 62.912C115.167 62.656 115.433 62.2933 115.753 61.824C115.775 61.7173 115.849 61.5573 115.977 61.344C116.127 61.1306 116.276 60.9173 116.425 60.704C116.596 60.4906 116.756 60.3093 116.905 60.16C117.055 59.9893 117.151 59.8826 117.193 59.84C117.215 59.776 117.268 59.68 117.353 59.552C117.439 59.424 117.524 59.296 117.609 59.168C117.716 59.0186 117.812 58.88 117.897 58.752C118.004 58.624 118.089 58.528 118.153 58.464C118.281 58.6133 118.377 58.7306 118.441 58.816C118.505 58.88 118.548 58.9333 118.569 58.976C118.612 59.0186 118.644 59.0506 118.665 59.072C118.708 59.0933 118.761 59.1146 118.825 59.136C119.145 59.3706 119.337 59.5946 119.401 59.808C119.465 60.0213 119.604 60.192 119.817 60.32C120.073 60.5546 120.319 60.7786 120.553 60.992C120.809 61.2053 121.076 61.3333 121.353 61.376C121.375 61.376 121.428 61.344 121.513 61.28C121.599 61.1946 121.695 61.1093 121.801 61.024C121.908 60.9173 122.004 60.8106 122.089 60.704C122.175 60.576 122.217 60.448 122.217 60.32C122.217 60.256 122.196 60.16 122.153 60.032ZM127.945 72.128C127.945 72.1493 127.924 71.9893 127.881 71.648C127.86 71.3066 127.828 70.9333 127.785 70.528C127.764 70.1013 127.732 69.7173 127.689 69.376C127.668 69.0346 127.657 68.8746 127.657 68.896C127.679 68.832 127.689 68.736 127.689 68.608C127.689 67.9253 127.572 67.3706 127.337 66.944C127.124 66.5173 126.825 66.304 126.441 66.304C126.228 66.304 126.025 66.3893 125.833 66.56C125.663 66.7093 125.545 66.848 125.481 66.976C125.481 67.3386 125.492 67.648 125.513 67.904C125.556 68.1386 125.599 68.416 125.641 68.736C125.684 69.0346 125.716 69.3973 125.737 69.824C125.78 70.2293 125.801 70.7626 125.801 71.424L124.361 71.52C124.02 71.5626 123.743 71.5946 123.529 71.616C123.316 71.6373 123.167 71.6693 123.081 71.712H122.729C122.537 71.712 122.303 71.7333 122.025 71.776C121.769 71.7973 121.513 71.8293 121.257 71.872C121.001 71.8933 120.767 71.9253 120.553 71.968C120.361 71.9893 120.255 72 120.233 72C120.191 72 120.148 72 120.105 72C120.063 71.9786 120.009 71.968 119.945 71.968C119.839 71.968 119.689 71.9786 119.497 72C119.327 72 119.145 72.0106 118.953 72.032C118.783 72.0533 118.623 72.0746 118.473 72.096C118.345 72.1173 118.26 72.128 118.217 72.128C118.196 72.0213 118.185 71.648 118.185 71.008V70.56C118.185 70.2613 118.164 70.0266 118.121 69.856C118.121 69.792 118.121 69.6746 118.121 69.504C118.143 69.312 118.164 69.1093 118.185 68.896C118.207 68.6826 118.217 68.48 118.217 68.288C118.239 68.096 118.249 67.9466 118.249 67.84C118.249 67.5413 118.153 67.328 117.961 67.2C117.769 67.0506 117.609 66.976 117.481 66.976C116.863 66.976 116.479 67.2533 116.329 67.808C116.18 68.3626 116.105 69.28 116.105 70.56C116.105 71.392 116.148 71.936 116.233 72.192C116.212 72.2986 116.201 72.416 116.201 72.544C116.201 72.672 116.201 72.8213 116.201 72.992C116.201 73.2266 116.201 73.504 116.201 73.824C116.223 74.144 116.233 74.432 116.233 74.688C116.233 74.9226 116.233 75.1146 116.233 75.264C116.233 75.4133 116.223 75.5413 116.201 75.648C116.201 75.8613 116.233 76.4266 116.297 77.344L116.425 79.264C116.404 79.264 116.575 79.2746 116.937 79.296C117.3 79.3173 117.716 79.3386 118.185 79.36C118.655 79.4026 119.103 79.4453 119.529 79.488C119.977 79.5306 120.265 79.552 120.393 79.552C120.5 79.5733 120.628 79.584 120.777 79.584C120.927 79.584 121.108 79.584 121.321 79.584C121.535 79.584 121.769 79.5733 122.025 79.552C122.281 79.552 122.559 79.552 122.857 79.552H125.385C125.599 79.616 125.801 79.648 125.993 79.648C126.484 79.648 126.9 79.4986 127.241 79.2C127.583 78.9226 127.753 78.56 127.753 78.112C127.753 78.048 127.732 77.9733 127.689 77.888C127.732 77.632 127.775 77.3226 127.817 76.96C127.881 76.6186 127.913 76.288 127.913 75.968C127.913 75.712 127.881 75.488 127.817 75.296C127.86 75.104 127.881 74.9013 127.881 74.688C127.903 74.4746 127.913 74.2506 127.913 74.016V72.8C127.913 72.672 127.913 72.5546 127.913 72.448C127.913 72.3413 127.924 72.2346 127.945 72.128ZM125.833 73.44C125.833 74.0586 125.823 74.5706 125.801 74.976C125.801 75.3813 125.78 75.7333 125.737 76.032C125.716 76.352 125.684 76.6186 125.641 76.832C125.62 77.0666 125.588 77.3013 125.545 77.536C125.332 77.5786 124.905 77.6 124.265 77.6C123.391 77.6 122.655 77.5893 122.057 77.568C121.46 77.5466 121.055 77.504 120.841 77.44C120.735 77.4613 120.543 77.472 120.265 77.472C119.945 77.472 119.604 77.4506 119.241 77.408C118.9 77.3866 118.612 77.3653 118.377 77.344C118.377 77.216 118.367 77.0346 118.345 76.8C118.324 76.5653 118.313 76.3626 118.313 76.192V76.032C118.313 75.9466 118.303 75.808 118.281 75.616C118.281 75.4453 118.271 75.2533 118.249 75.04C118.249 74.848 118.249 74.6666 118.249 74.496C118.249 74.3253 118.249 74.1866 118.249 74.08L121.865 73.76C122.015 73.6746 122.623 73.6 123.689 73.536L125.833 73.44ZM175.761 59.584C176.059 59.392 176.209 59.168 176.209 58.912C176.209 58.6346 176.166 58.4213 176.081 58.272C175.995 58.1226 175.878 58.0053 175.729 57.92C175.601 57.8346 175.462 57.7813 175.313 57.76C175.163 57.7386 175.025 57.728 174.897 57.728C174.598 57.728 174.299 57.7493 174.001 57.792C173.723 57.8133 173.499 57.8453 173.329 57.888C173.201 57.8453 173.083 57.824 172.977 57.824C172.635 57.824 172.326 57.8453 172.049 57.888C171.771 57.9306 171.494 57.984 171.217 58.048C170.961 58.0906 170.683 58.1333 170.385 58.176C170.107 58.2186 169.787 58.24 169.425 58.24H169.041V57.408C169.041 57.024 169.019 56.7253 168.977 56.512C168.998 56.448 169.009 56.3093 169.009 56.096C169.009 55.8613 168.998 55.552 168.977 55.168C168.955 54.784 168.913 54.3786 168.849 53.952C168.806 53.5253 168.742 53.1093 168.657 52.704C168.571 52.2773 168.465 51.9146 168.337 51.616C168.081 51.3386 167.739 51.2 167.313 51.2C166.502 51.2 166.097 51.4666 166.097 52C166.097 52.1066 166.097 52.1813 166.097 52.224C166.118 52.2666 166.139 52.3306 166.161 52.416C166.182 52.48 166.214 52.5973 166.257 52.768C166.299 52.9386 166.353 53.1946 166.417 53.536C166.523 54.0906 166.619 54.464 166.705 54.656C166.662 54.8693 166.641 55.0506 166.641 55.2C166.641 55.4986 166.673 55.8293 166.737 56.192C166.822 56.5546 166.865 56.7893 166.865 56.896C166.865 57.152 166.854 57.4826 166.833 57.888C166.811 58.272 166.801 58.624 166.801 58.944V59.04C166.801 59.0826 166.79 59.1786 166.769 59.328C166.769 59.4773 166.758 59.648 166.737 59.84C166.715 60.032 166.694 60.2346 166.673 60.448C166.673 60.64 166.673 60.8106 166.673 60.96C166.673 61.2586 166.705 61.4826 166.769 61.632C166.747 61.7386 166.715 61.888 166.673 62.08C166.63 62.272 166.587 62.4853 166.545 62.72C166.523 62.9333 166.491 63.1573 166.449 63.392C166.427 63.6053 166.417 63.7866 166.417 63.936C166.417 64.2346 166.502 64.448 166.673 64.576C166.843 64.6826 167.078 64.736 167.377 64.736C167.953 64.736 168.326 64.5226 168.497 64.096C168.518 63.904 168.55 63.6693 168.593 63.392C168.657 63.1146 168.71 62.8053 168.753 62.464C168.817 62.1226 168.87 61.7813 168.913 61.44C168.955 61.0986 168.977 60.768 168.977 60.448C169.083 60.4053 169.275 60.3733 169.553 60.352C169.851 60.3093 170.214 60.2666 170.641 60.224L172.305 60.064H172.593C172.763 60.064 172.955 60.064 173.169 60.064C173.403 60.0426 173.659 60 173.937 59.936L175.761 59.584ZM160.849 62.816C161.169 62.4746 161.329 62.1653 161.329 61.888C161.329 61.6746 161.243 61.4826 161.073 61.312C160.902 61.12 160.763 60.992 160.657 60.928C160.401 60.928 160.113 60.96 159.793 61.024C159.473 61.088 159.227 61.1306 159.057 61.152C158.993 61.152 158.929 61.152 158.865 61.152C158.801 61.1306 158.737 61.12 158.673 61.12C158.438 61.12 158.214 61.1413 158.001 61.184C157.787 61.2053 157.563 61.216 157.329 61.216C156.774 61.216 156.315 61.152 155.953 61.024C155.59 60.896 155.27 60.832 154.993 60.832H154.833C154.662 60.7893 154.566 60.6826 154.545 60.512C154.545 60.3413 154.545 60.1386 154.545 59.904C154.545 59.712 154.555 59.52 154.577 59.328C154.598 59.1146 154.63 58.9226 154.673 58.752C154.609 58.432 154.577 58.0906 154.577 57.728C154.577 57.28 154.609 56.8533 154.673 56.448C154.737 56.0426 154.79 55.7226 154.833 55.488C155.409 55.4026 155.889 55.3493 156.273 55.328C156.657 55.2853 157.083 55.2533 157.553 55.232C157.787 55.168 158.033 55.1253 158.289 55.104C158.545 55.0826 158.779 55.0506 158.993 55.008C159.206 54.944 159.377 54.848 159.505 54.72C159.654 54.5706 159.729 54.336 159.729 54.016C159.729 53.2053 159.483 52.7893 158.993 52.768L157.969 52.992C157.649 53.0773 157.35 53.12 157.073 53.12C156.923 53.12 156.817 53.1093 156.753 53.088C156.625 53.1306 156.529 53.1733 156.465 53.216C156.422 53.2373 156.358 53.2586 156.273 53.28C156.187 53.3013 156.059 53.3226 155.889 53.344C155.739 53.344 155.494 53.344 155.153 53.344C154.854 53.472 154.491 53.5253 154.065 53.504C153.659 53.4826 153.307 53.4933 153.009 53.536C153.009 53.5786 152.977 53.696 152.913 53.888C152.87 54.0586 152.817 54.272 152.753 54.528C152.689 54.784 152.625 55.0613 152.561 55.36C152.518 55.6373 152.497 55.8933 152.497 56.128C152.497 56.512 152.529 56.8426 152.593 57.12C152.657 57.376 152.689 57.632 152.689 57.888C152.689 58.208 152.678 58.4853 152.657 58.72C152.635 58.9333 152.603 59.1573 152.561 59.392C152.539 59.6266 152.518 59.8933 152.497 60.192C152.475 60.4906 152.465 60.8853 152.465 61.376C152.465 61.8666 152.614 62.272 152.913 62.592C153.211 62.912 153.585 63.072 154.033 63.072C154.118 63.072 154.182 63.0613 154.225 63.04C154.502 63.0613 154.758 63.104 154.993 63.168C155.249 63.2106 155.494 63.232 155.729 63.232C155.814 63.232 155.889 63.232 155.953 63.232C156.017 63.2106 156.091 63.1893 156.177 63.168C156.753 63.296 157.254 63.36 157.681 63.36C158.214 63.36 158.673 63.2746 159.057 63.104C159.099 63.1253 159.174 63.136 159.281 63.136C159.537 63.136 159.803 63.0933 160.081 63.008C160.358 62.9013 160.614 62.8373 160.849 62.816ZM166.225 69.504V69.216C166.225 68.7466 166.193 68.3626 166.129 68.064C166.086 67.7653 166.033 67.5306 165.969 67.36C165.499 67.1893 165.019 67.0826 164.529 67.04C164.038 66.9973 163.611 66.9546 163.249 66.912C163.057 66.848 162.854 66.8053 162.641 66.784C162.427 66.7626 162.203 66.752 161.969 66.752C161.713 66.752 161.467 66.7626 161.233 66.784C161.019 66.8053 160.838 66.8373 160.689 66.88C160.603 66.8586 160.518 66.848 160.433 66.848C160.347 66.848 160.262 66.848 160.177 66.848C159.622 66.848 159.185 66.88 158.865 66.944C158.566 67.008 158.342 67.104 158.193 67.232C158.065 67.36 157.979 67.52 157.937 67.712C157.915 67.904 157.905 68.128 157.905 68.384C157.905 68.7466 157.926 69.088 157.969 69.408C158.011 69.728 158.065 70.048 158.129 70.368C158.193 70.688 158.246 71.04 158.289 71.424C158.331 71.7866 158.353 72.2133 158.353 72.704C158.353 73.088 158.427 73.4613 158.577 73.824C158.726 74.208 158.843 74.4853 158.929 74.656C159.035 74.6773 159.153 74.688 159.281 74.688C159.409 74.7093 159.558 74.72 159.729 74.72C159.793 74.72 159.857 74.7093 159.921 74.688C160.006 74.688 160.091 74.688 160.177 74.688H161.297C161.425 74.688 161.542 74.688 161.649 74.688C161.777 74.7093 161.894 74.72 162.001 74.72C162.086 74.72 162.225 74.6986 162.417 74.656C162.63 74.6346 162.854 74.6026 163.089 74.56C163.323 74.5173 163.558 74.4746 163.793 74.432C164.027 74.4106 164.23 74.4 164.401 74.4H164.721C164.998 74.4 165.307 74.3573 165.649 74.272C165.798 74.0373 165.894 73.7386 165.937 73.376C165.979 73.0346 166.001 72.7146 166.001 72.416V72.064C166.043 71.68 166.086 71.2533 166.129 70.784C166.171 70.3146 166.203 69.888 166.225 69.504ZM164.081 69.184C164.102 69.2906 164.113 69.3866 164.113 69.472C164.134 69.536 164.145 69.6106 164.145 69.696C164.145 69.888 164.123 70.08 164.081 70.272C164.059 70.464 164.027 70.6773 163.985 70.912V71.072C163.985 71.3493 163.963 71.5946 163.921 71.808C163.878 72 163.846 72.2133 163.825 72.448C163.675 72.5333 163.462 72.5866 163.185 72.608C162.907 72.6506 162.619 72.672 162.321 72.672C162.043 72.6933 161.787 72.704 161.553 72.704C161.339 72.704 161.201 72.704 161.137 72.704C161.03 72.704 160.934 72.704 160.849 72.704C160.763 72.704 160.667 72.7146 160.561 72.736C160.433 72.48 160.337 72.1813 160.273 71.84C160.23 71.4773 160.198 71.1146 160.177 70.752C160.155 70.3893 160.134 70.0586 160.113 69.76C160.091 69.44 160.07 69.1946 160.049 69.024C160.219 69.0026 160.39 68.992 160.561 68.992C160.731 68.9706 160.902 68.96 161.073 68.96C161.243 68.96 161.393 68.9706 161.521 68.992C161.67 68.992 161.809 68.992 161.937 68.992H162.225C162.63 68.992 162.95 69.0133 163.185 69.056C163.419 69.0986 163.718 69.1413 164.081 69.184ZM195.643 62.4C195.643 62.1653 195.653 61.8986 195.675 61.6C195.696 61.28 195.707 60.96 195.707 60.64C195.707 60.3413 195.696 60.0533 195.675 59.776C195.653 59.4773 195.611 59.2 195.547 58.944C195.589 58.8373 195.611 58.7306 195.611 58.624C195.611 58.496 195.611 58.368 195.611 58.24C195.611 57.8773 195.568 57.4826 195.483 57.056C195.419 56.608 195.344 56.1493 195.259 55.68C195.067 55.424 194.789 55.296 194.427 55.296C194.128 55.296 193.861 55.3706 193.627 55.52C193.392 55.6693 193.275 55.9146 193.275 56.256C193.275 56.6613 193.317 57.0346 193.403 57.376C193.488 57.7173 193.531 58.1333 193.531 58.624V59.136C193.531 59.456 193.584 59.744 193.691 60C193.605 60.256 193.563 60.608 193.563 61.056C193.563 61.376 193.563 61.6213 193.563 61.792C193.584 61.9413 193.595 62.08 193.595 62.208C193.616 62.3146 193.627 62.4213 193.627 62.528C193.648 62.6346 193.659 62.784 193.659 62.976C193.659 63.7653 193.637 64.3733 193.595 64.8C193.573 65.2053 193.531 65.536 193.467 65.792C193.424 66.048 193.381 66.2826 193.339 66.496C193.317 66.7093 193.307 66.9973 193.307 67.36C193.307 67.6373 193.392 67.8826 193.563 68.096C193.733 68.3093 194 68.416 194.363 68.416C194.576 68.416 194.757 68.3306 194.907 68.16C195.056 67.9893 195.173 67.7653 195.259 67.488C195.365 67.1893 195.429 66.8586 195.451 66.496C195.493 66.112 195.515 65.728 195.515 65.344V65.024L195.675 63.808C195.696 63.68 195.707 63.552 195.707 63.424C195.707 63.296 195.707 63.1786 195.707 63.072C195.707 62.944 195.707 62.8266 195.707 62.72C195.707 62.6133 195.685 62.5066 195.643 62.4ZM186.715 58.752C186.48 58.56 186.192 58.4 185.851 58.272C185.509 58.1226 185.157 58.048 184.795 58.048H184.539C184.155 57.984 183.803 57.92 183.483 57.856C183.184 57.7706 182.853 57.7066 182.491 57.664C182.149 57.6 181.733 57.5466 181.243 57.504C180.773 57.4613 180.176 57.44 179.451 57.44C179.301 57.4826 179.131 57.6106 178.939 57.824C178.747 58.0373 178.651 58.304 178.651 58.624C178.651 58.8586 178.715 59.0826 178.843 59.296C179.589 59.4453 180.219 59.52 180.731 59.52C181.264 59.52 181.765 59.6053 182.235 59.776H182.427C183.131 59.776 183.621 59.8613 183.899 60.032C184.197 60.1813 184.347 60.2666 184.347 60.288C184.347 60.4586 184.283 60.704 184.155 61.024C184.027 61.3226 183.867 61.632 183.675 61.952C183.483 62.272 183.28 62.5813 183.067 62.88C182.875 63.1573 182.715 63.36 182.587 63.488C182.373 63.9146 182.139 64.2986 181.883 64.64C181.648 64.96 181.349 65.3866 180.987 65.92C181.072 66.176 181.168 66.432 181.275 66.688C181.381 66.9226 181.616 67.04 181.979 67.04C182.171 67.04 182.395 67.008 182.651 66.944C182.8 66.7306 183.035 66.4533 183.355 66.112C183.696 65.7493 183.909 65.4293 183.995 65.152L184.411 64.512C184.624 64.192 184.795 63.936 184.923 63.744C185.051 63.552 185.147 63.3813 185.211 63.232C185.296 63.0826 185.371 62.944 185.435 62.816C185.499 62.6666 185.563 62.496 185.627 62.304C185.776 62.112 185.915 61.888 186.043 61.632C186.192 61.3546 186.32 61.0773 186.427 60.8C186.555 60.5226 186.651 60.2666 186.715 60.032C186.779 59.7973 186.811 59.5946 186.811 59.424C186.811 59.2106 186.779 58.9866 186.715 58.752Z" fill="black"/>
</svg>
