<svg width="285" height="188" viewBox="0 0 285 188" fill="none" xmlns="http://www.w3.org/2000/svg">
<path d="M193.295 28.7728C195.101 46.5733 215.706 34.0438 222.105 29.563C216.405 37.1843 211.423 51.6741 240.143 45.794C232.792 55.5292 238.056 61.2339 252.252 58.0504C245.634 64.3374 245.917 76.3566 266.607 69.5668C255.511 76.2434 258.271 87.2782 273.661 85.7161C266.825 89.5091 255.546 99.3173 265.113 108.206C251.033 113.311 257.712 123.444 263.832 130.391C248.427 127.414 237.051 121.707 238.979 140.697C232.771 138.3 219.517 131.422 221.82 154.115C206.78 139.209 196.211 148.498 194.706 156.867C187.746 153.249 173.08 152.575 168.426 164.724C155.82 153.722 143.753 162.111 139.295 167.68C125.472 156.759 113.772 164.433 109.567 169.401C103.543 158.768 90.6962 159.784 83.5715 163.822C78.5136 158.065 66.622 156.894 58.1687 166.401C60.0997 152.021 47.1311 153.539 40.4055 156.095C49.452 130.095 26.9249 132.31 17.377 133.351C28.2811 129.433 28.1906 109.982 11.0021 100.7C26.9445 96.3137 23.4873 81.2789 19.7659 74.3097C29.7604 74.293 42.4252 70.6129 37.6004 57.333C50.4975 56.024 54.5157 52.2901 48.5893 36.4657C66.8254 48.3013 82.6909 42.6937 84.7796 36.1532C89.36 39.8881 100.222 43.9934 107.027 30.5344C117.678 41.2707 128.369 34.5151 129.849 28.218C135.634 33.8128 144.946 33.6801 148.279 19.5417C147.825 29.7541 153.448 34.4112 166.607 27.8478C164.892 37.4644 180.376 39.9806 193.295 28.7728Z" fill="#FF4B4B" stroke="#0F0F0F" stroke-width="3" stroke-linecap="round" stroke-linejoin="round"/>
<path d="M100.439 77.7688C100.44 78.341 100.453 78.8243 100.48 79.2188C100.531 79.6101 100.544 79.994 100.519 80.3705C100.446 80.3801 100.362 80.4036 100.267 80.4409C100.194 80.4505 100.096 80.4633 99.9736 80.4794C99.7535 80.5082 99.5196 80.5265 99.2718 80.5341C99.024 80.5417 98.7975 80.5216 98.5922 80.4739C98.4976 80.5112 98.3402 80.5443 98.1201 80.5732C97.6799 80.6309 97.3816 80.6327 97.2252 80.5786C97.0688 80.5244 96.957 80.2406 96.8896 79.727C96.8832 79.6781 96.8784 79.6414 96.8752 79.6169C96.8932 79.5648 96.899 79.5143 96.8926 79.4654C96.8489 79.3218 96.8036 79.1661 96.7567 78.9981C96.7343 78.8269 96.7134 78.6679 96.6942 78.5212C97.0334 78.4518 97.406 78.3532 97.8122 78.2253C98.2428 78.0942 98.776 77.9869 99.4119 77.9035L100.439 77.7688ZM103.725 76.9275C103.718 76.8786 103.7 76.8312 103.669 76.7855C103.659 76.7122 103.651 76.651 103.645 76.6021C103.625 76.4554 103.608 76.3208 103.592 76.1986C103.6 76.0731 103.609 75.9476 103.617 75.8221C103.611 75.7732 103.564 75.6052 103.476 75.3181C103.41 75.0034 103.329 74.6658 103.231 74.3053C103.159 73.9417 103.074 73.5796 102.977 73.2192C102.905 72.8555 102.859 72.6003 102.839 72.4536C102.854 72.377 102.852 72.2654 102.833 72.1186C102.788 71.7762 102.689 71.4035 102.537 71.0006C102.385 70.5976 102.261 70.2282 102.168 69.8922C101.535 69.4279 100.998 69.2246 100.558 69.2824C100.215 69.3273 99.9043 69.5173 99.6249 69.8525C99.3699 70.1845 99.2047 70.4425 99.1293 70.6265C99.1774 70.9934 99.2313 71.3097 99.2911 71.5755C99.3508 71.8413 99.4106 72.1072 99.4703 72.373C99.5545 72.6356 99.6313 72.9365 99.7006 73.2757C99.7912 73.5872 99.8702 73.9998 99.9376 74.5134C99.693 74.5455 99.4378 74.5914 99.172 74.6511C98.9306 74.7076 98.7153 74.7732 98.5261 74.8478L98.3426 74.8718C98.0981 74.9039 97.8322 74.9636 97.5452 75.051C97.2581 75.1384 97.0199 75.2194 96.8307 75.294L96.1704 75.3806C96.1607 75.3072 96.1511 75.2339 96.1415 75.1605C96.1563 75.0839 96.1573 74.9967 96.1445 74.8989C96.1317 74.801 96.0944 74.7064 96.0326 74.615C96.0314 74.4161 96.0222 74.1561 96.005 73.835C96.0122 73.5106 96.003 73.2506 95.9773 73.055C95.942 72.7859 95.7935 72.5069 95.5317 72.2178C95.2943 71.9255 95.0022 71.6902 94.6554 71.5117C94.1218 71.8056 93.712 72.0957 93.4262 72.382C93.1647 72.665 92.9815 72.9751 92.8765 73.3123C92.7682 73.6251 92.7137 73.9681 92.7129 74.3413C92.7333 74.687 92.7724 75.0799 92.8301 75.5201C92.8943 76.0092 92.9929 76.3819 93.126 76.6381L93.1886 77.115L93.4051 78.7659C93.4307 78.9616 93.4532 79.1328 93.4724 79.2795C93.4917 79.4262 93.4955 79.5501 93.4838 79.6512C93.5191 79.9202 93.6424 80.5757 93.8537 81.6178L94.3546 84.015L96.2912 83.9849C96.7623 83.9729 97.1462 83.9599 97.4429 83.9459C97.764 83.9286 98.0363 83.9178 98.2596 83.9134C98.5042 83.8813 98.7136 83.8663 98.8881 83.8683C99.0593 83.8458 99.2427 83.8218 99.4383 83.7961C99.7318 83.7576 100.013 83.7207 100.282 83.6855C100.548 83.6257 100.84 83.575 101.158 83.5333C101.286 83.5662 101.414 83.5868 101.539 83.5953C101.689 83.6005 101.825 83.5951 101.947 83.579C102.241 83.5405 102.516 83.4547 102.772 83.3216C103.025 83.1641 103.311 82.9772 103.631 82.7611C103.736 82.4239 103.831 82.1006 103.915 81.7911C103.995 81.4571 104.018 81.1556 103.983 80.8865L103.959 80.7031C103.972 80.4277 103.975 80.166 103.968 79.9183C103.984 79.6673 103.977 79.4195 103.945 79.1749C103.916 78.9548 103.881 78.7852 103.841 78.6661C103.874 78.5374 103.882 78.4119 103.866 78.2897C103.871 78.1397 103.866 78.0036 103.85 77.8813C104.039 78.3789 104.257 78.711 104.503 78.8778C104.745 79.0202 105.075 79.0641 105.49 79.0096C106.175 78.9197 106.724 78.8354 107.136 78.7564C107.546 78.6529 107.894 78.5575 108.181 78.4701C108.465 78.3582 108.714 78.2634 108.927 78.1856C109.166 78.1047 109.454 78.0295 109.793 77.9601C109.919 78.914 110.012 79.7227 110.074 80.3862C110.136 81.0498 110.173 81.6171 110.186 82.0882C110.222 82.5561 110.249 82.9506 110.266 83.2718C110.28 83.5685 110.303 83.8391 110.335 84.0837C110.486 85.2332 111.173 85.7277 112.396 85.5673C112.738 85.5224 113.011 85.4244 113.215 85.2733C113.444 85.1189 113.6 84.887 113.684 84.5774C113.789 84.2402 113.832 83.8116 113.814 83.2916C113.817 82.7439 113.765 82.0666 113.659 81.2595L113.606 80.8559C113.566 79.7914 113.508 78.9657 113.431 78.3787C113.354 77.7918 113.298 77.3638 113.262 77.0947C113.217 76.7523 113.159 76.3993 113.086 76.0356C113.035 75.6443 112.972 75.354 112.897 75.1648C112.906 75.0393 112.904 74.9277 112.891 74.8298C112.899 74.7043 112.895 74.5804 112.879 74.4582C112.85 74.238 112.833 74.1035 112.826 74.0546C112.817 73.9812 112.795 73.9095 112.761 73.8393C112.751 73.7659 112.723 73.6452 112.676 73.4773C112.654 73.3061 112.601 73.0019 112.519 72.5649C112.474 72.2225 112.425 71.9429 112.372 71.726C112.34 71.4814 112.3 71.2751 112.253 71.1071L111.832 69.0353C111.527 67.6572 111.226 66.6892 110.929 66.1311C110.632 65.5729 110.239 65.326 109.75 65.3901C109.481 65.4254 109.233 65.5324 109.008 65.7113C108.78 65.8656 108.58 66.0535 108.41 66.2748C108.265 66.4929 108.145 66.72 108.052 66.9562C107.955 67.1679 107.904 67.3487 107.899 67.4986C108.197 68.2556 108.443 69.0817 108.635 69.977C108.823 70.8479 108.963 71.6257 109.053 72.3105L109.356 74.6217C109.041 74.6879 108.679 74.7727 108.269 74.8761C107.857 74.9551 107.556 75.0319 107.367 75.1064L107.073 75.1449C106.804 75.1802 106.49 75.2464 106.129 75.3434C105.769 75.4404 105.413 75.5741 105.062 75.7445C104.733 75.8872 104.445 76.0618 104.198 76.2683C103.948 76.4504 103.79 76.6701 103.725 76.9275ZM118.539 76.9252L118.39 75.7879L118.327 75.311C118.302 75.1153 118.279 74.9441 118.26 74.7974C118.241 74.6506 118.211 74.5177 118.17 74.3986C118.233 74.1168 118.226 73.6824 118.149 73.0954C118.094 72.6796 118.012 72.2426 117.902 71.7843C117.789 71.3016 117.681 70.8556 117.577 70.4462L117.505 69.8959C117.383 68.9665 117.251 68.2376 117.107 67.7092C116.959 67.1563 116.795 66.7549 116.613 66.5052C116.452 66.2277 116.269 66.0651 116.064 66.0174C115.88 65.942 115.665 65.9204 115.421 65.9525C114.712 66.0455 114.213 66.3223 113.925 66.783C113.634 67.2192 113.516 67.6452 113.57 68.061C113.59 68.2077 113.626 68.3896 113.679 68.6065C113.729 68.7989 113.769 69.0052 113.798 69.2253C113.851 69.4422 113.904 69.6591 113.958 69.876C114.008 70.0685 114.041 70.2259 114.057 70.3481C114.086 70.5683 114.093 70.7166 114.078 70.7932C114.081 70.8176 114.113 70.9628 114.172 71.2286C114.229 71.47 114.278 71.7496 114.32 72.0676C114.386 72.3823 114.454 72.7093 114.523 73.0485C114.589 73.3632 114.633 73.6062 114.656 73.7774L114.699 74.1075C114.709 74.1809 114.722 74.2787 114.738 74.401C114.775 74.4957 114.803 74.6163 114.822 74.7631C114.848 74.9587 114.873 75.2416 114.896 75.6117C114.917 75.9573 114.94 76.3273 114.967 76.7219C115.019 77.1132 115.055 77.4816 115.075 77.8273C115.092 78.1484 115.109 78.3701 115.125 78.4924C115.151 78.6881 115.171 78.847 115.187 78.9693C115.225 79.0639 115.253 79.1846 115.272 79.3314C115.308 79.6004 115.325 79.9216 115.324 80.2948C115.344 80.6404 115.354 80.9999 115.353 81.3732C115.374 81.7188 115.393 82.0521 115.41 82.3733C115.427 82.6944 115.447 82.9406 115.469 83.1118C115.527 83.5521 115.729 83.8614 116.076 84.0398C116.444 84.1906 116.873 84.2339 117.362 84.1697C118.12 84.0703 118.602 83.7584 118.807 83.2339L118.857 81.6228C118.867 81.3229 118.87 81.0612 118.866 80.8379C118.858 80.5901 118.841 80.3684 118.816 80.1728L118.772 79.8426C118.774 79.6682 118.756 79.4342 118.718 79.1407C118.7 78.8196 118.682 78.4862 118.661 78.1406C118.638 77.7705 118.597 77.3654 118.539 76.9252ZM141.029 69.3485C140.752 68.9371 140.49 68.648 140.244 68.4812C139.998 68.3145 139.757 68.1843 139.521 68.0909C139.306 67.9698 139.081 67.8626 138.845 67.7692C138.63 67.6481 138.402 67.4292 138.161 67.1124C137.919 66.9701 137.728 66.8458 137.59 66.7396C137.473 66.6056 137.345 66.4856 137.207 66.3793C137.328 66.1644 137.456 65.9112 137.592 65.6197C137.728 65.3283 137.792 65.0586 137.785 64.8108C137.366 63.8955 136.57 63.5148 135.396 63.6688C135.225 63.6912 135.08 63.7227 134.961 63.7632C134.866 63.8005 134.743 63.9037 134.591 64.0729C134.463 64.2389 134.286 64.4985 134.059 64.8517C133.852 65.1773 133.566 65.6502 133.2 66.2704C133.087 66.3598 132.956 66.5014 132.808 66.695C132.659 66.8887 132.51 67.0823 132.361 67.276C132.237 67.4664 132.123 67.643 132.02 67.8058C131.914 67.9441 131.849 68.0149 131.824 68.0181C131.728 68.2298 131.575 68.4862 131.365 68.7873C131.153 69.0639 130.921 69.3805 130.669 69.7369C130.438 70.0657 130.223 70.4173 130.024 70.7918C129.821 71.1418 129.693 71.4944 129.64 71.8497C129.65 71.923 129.716 72.0511 129.84 72.234C129.984 72.3891 130.155 72.5533 130.352 72.7265C130.57 72.8721 130.799 73.0038 131.038 73.1216C131.274 73.2151 131.527 73.2441 131.796 73.2089C132.138 73.164 132.39 72.9942 132.55 72.6995C132.711 72.4048 132.994 72.0068 133.401 71.5057C133.741 71.063 134.025 70.6651 134.252 70.3119C134.501 69.931 134.839 69.4761 135.267 68.9473C135.615 69.3246 135.986 69.6864 136.38 70.0329C136.798 70.3761 137.211 70.6826 137.62 70.9524C138.05 71.1946 138.463 71.4017 138.858 71.5737C139.251 71.7212 139.608 71.7864 139.929 71.7691C139.999 71.7351 140.112 71.6457 140.267 71.5009C140.422 71.3562 140.562 71.1886 140.686 70.9981C140.835 70.8045 140.957 70.6018 141.054 70.3901C141.147 70.154 141.181 69.9381 141.156 69.7424C141.14 69.6201 141.098 69.4888 141.029 69.3485ZM147.12 76.237L145.504 76.1504C145.155 76.1464 144.855 76.136 144.604 76.1191C144.35 76.0779 144.127 76.0823 143.934 76.1324L143.714 76.1612C143.02 76.1777 142.426 76.2057 141.934 76.2454C141.463 76.2575 141.019 76.2907 140.604 76.3453C140.209 76.3721 139.828 76.4096 139.461 76.4577C139.091 76.4814 138.674 76.5237 138.209 76.5846C137.965 76.6167 137.757 76.6439 137.586 76.6664C137.415 76.6888 137.269 76.7203 137.15 76.7608C137.025 76.7524 136.815 76.7674 136.522 76.8059C136.25 76.8167 135.953 76.8308 135.632 76.848C135.311 76.8652 134.991 76.8947 134.673 76.9364C134.376 76.9504 134.142 76.9687 133.971 76.9911L133.641 77.0344C133.519 77.0505 133.225 77.0889 132.761 77.1499C132.317 77.1832 131.741 77.2463 131.032 77.3393C130.714 77.381 130.434 77.4301 130.193 77.4867C129.972 77.5155 129.791 77.5518 129.647 77.5955C129.497 77.5903 129.337 77.5989 129.165 77.6214C128.991 77.6194 128.806 77.6312 128.61 77.6568C127.779 77.7659 127.123 77.8892 126.644 78.0267C126.161 78.1398 125.793 78.2751 125.54 78.4326C125.308 78.5625 125.169 78.7301 125.121 78.9354C125.07 79.1162 125.061 79.3289 125.093 79.5735C125.189 80.3072 125.467 80.818 125.928 81.1059C126.385 81.3693 126.859 81.469 127.348 81.4048C127.641 81.3663 127.993 81.2954 128.402 81.1919C128.833 81.0608 129.158 80.9808 129.378 80.952C129.574 80.9263 129.712 80.9331 129.791 80.9724C129.892 80.984 130.041 80.977 130.236 80.9514C130.334 80.9385 130.554 80.9097 130.897 80.8648C131.236 80.7954 131.612 80.7212 132.024 80.6423C132.437 80.5633 132.839 80.4981 133.23 80.4468C133.643 80.3678 133.971 80.3123 134.216 80.2802C134.681 80.2193 134.951 80.1962 135.028 80.2111L135.431 80.1581C135.603 80.1357 135.873 80.1126 136.243 80.089C136.635 80.0377 137.064 79.9938 137.532 79.9573C138 79.9208 138.48 79.8827 138.973 79.843C139.465 79.8033 139.908 79.7701 140.303 79.7432C140.722 79.7131 141.055 79.6943 141.303 79.6867C141.548 79.6546 141.67 79.6386 141.67 79.6386C141.914 79.6065 142.284 79.5828 142.78 79.5676C143.3 79.5492 143.834 79.5414 144.382 79.5442C144.926 79.5225 145.434 79.5057 145.905 79.4937C146.376 79.4816 146.709 79.4628 146.905 79.4371C147.37 79.3762 147.678 79.1617 147.828 78.7936C147.979 78.4256 148.024 78.0092 147.963 77.5445C147.88 76.9086 147.599 76.4728 147.12 76.237ZM177.214 72.2905L175.598 72.2039C175.249 72.1999 174.949 72.1895 174.698 72.1726C174.444 72.1313 174.221 72.1357 174.028 72.1858L173.808 72.2147C173.114 72.2311 172.52 72.2592 172.028 72.2989C171.557 72.3109 171.113 72.3442 170.697 72.3987C170.303 72.4256 169.922 72.4631 169.555 72.5112C169.185 72.5348 168.768 72.5771 168.303 72.6381C168.059 72.6701 167.851 72.6974 167.68 72.7198C167.508 72.7423 167.363 72.7738 167.244 72.8143C167.119 72.8058 166.909 72.8209 166.616 72.8594C166.343 72.8702 166.047 72.8842 165.726 72.9015C165.404 72.9187 165.085 72.9482 164.767 72.9899C164.47 73.0039 164.236 73.0221 164.065 73.0446L163.735 73.0879C163.613 73.1039 163.319 73.1424 162.854 73.2033C162.411 73.2366 161.835 73.2998 161.125 73.3928C160.808 73.4345 160.528 73.4836 160.286 73.5401C160.066 73.569 159.885 73.6053 159.741 73.649C159.591 73.6438 159.43 73.6524 159.259 73.6748C159.085 73.6728 158.9 73.6846 158.704 73.7103C157.873 73.8194 157.217 73.9426 156.738 74.0802C156.255 74.1932 155.887 74.3285 155.634 74.4861C155.402 74.616 155.263 74.7836 155.215 74.9889C155.164 75.1697 155.154 75.3824 155.187 75.627C155.283 76.3607 155.561 76.8715 156.022 77.1594C156.479 77.4228 156.953 77.5224 157.442 77.4583C157.735 77.4198 158.087 77.3488 158.496 77.2454C158.927 77.1143 159.252 77.0343 159.472 77.0054C159.668 76.9798 159.806 76.9866 159.885 77.0259C159.986 77.0375 160.135 77.0305 160.33 77.0048C160.428 76.992 160.648 76.9631 160.991 76.9182C161.33 76.8489 161.706 76.7747 162.118 76.6957C162.531 76.6167 162.933 76.5516 163.324 76.5003C163.737 76.4213 164.065 76.3658 164.31 76.3337C164.775 76.2727 165.045 76.2497 165.122 76.2645L165.525 76.2116C165.697 76.1892 165.967 76.1661 166.337 76.1424C166.729 76.0911 167.158 76.0472 167.626 76.0107C168.094 75.9743 168.574 75.9362 169.066 75.8965C169.559 75.8568 170.002 75.8235 170.397 75.7967C170.816 75.7666 171.149 75.7478 171.397 75.7401C171.641 75.7081 171.764 75.692 171.764 75.692C172.008 75.66 172.378 75.6363 172.874 75.6211C173.394 75.6026 173.928 75.5948 174.475 75.5976C175.02 75.576 175.528 75.5591 175.999 75.5471C176.47 75.5351 176.803 75.5163 176.999 75.4906C177.464 75.4297 177.771 75.2152 177.922 74.8471C178.073 74.479 178.118 74.0627 178.057 73.598C177.973 72.9621 177.692 72.5263 177.214 72.2905ZM163.539 61.9185L163.572 61.3171C164.052 61.1796 164.482 61.0485 164.864 60.9238C165.242 60.7747 165.662 60.6574 166.124 60.572L167.137 60.3272C167.787 60.1673 168.215 60.0117 168.419 59.8606C168.623 59.7094 168.685 59.3281 168.605 58.7167C168.435 57.4204 167.943 56.8008 167.129 56.8577L166.016 57.1903C165.873 57.234 165.741 57.2761 165.622 57.3166C165.5 57.3326 165.378 57.3487 165.255 57.3647C165.084 57.3871 164.898 57.3867 164.696 57.3635C164.482 57.4413 164.282 57.5297 164.096 57.6287C163.931 57.7001 163.531 57.7775 162.895 57.8608C162.599 58.0737 162.187 58.2522 161.659 58.3961C161.152 58.5124 160.703 58.6956 160.313 58.9458C160.301 59.0468 160.273 59.2122 160.229 59.4419C160.206 59.644 160.177 59.8966 160.142 60.1997C160.104 60.4783 160.079 60.7676 160.069 61.0675C160.058 61.3674 160.069 61.6397 160.101 61.8842C160.146 62.2266 160.212 62.5414 160.3 62.8285C160.384 63.0911 160.447 63.3813 160.489 63.6993C160.604 64.5798 160.669 65.4544 160.683 66.3232C160.698 67.1921 160.756 68.0178 160.859 68.8004C160.942 69.4363 161.247 69.9561 161.773 70.3599C162.319 70.736 162.911 70.8823 163.547 70.7989C163.571 70.7957 163.596 70.7925 163.62 70.7893C163.641 70.7616 163.676 70.7446 163.725 70.7382C164.001 70.7518 164.264 70.7671 164.515 70.7839C164.766 70.8007 165.014 70.7931 165.258 70.761C165.503 70.729 165.683 70.6805 165.799 70.6155C166.203 70.662 166.543 70.6921 166.818 70.7057C167.091 70.6949 167.302 70.6921 167.452 70.6973C167.867 70.6428 168.37 70.4898 168.959 70.2384C169.569 69.9594 170.186 69.7293 170.809 69.548C171.252 68.9426 171.446 68.432 171.392 68.0163C171.347 67.6739 171.157 67.3629 170.821 67.0835C170.486 66.804 170.227 66.6266 170.043 66.5512C169.774 66.5865 169.448 66.6665 169.066 66.7912C168.682 66.8914 168.393 66.9666 168.2 67.0167C168.075 67.0083 167.914 67.0169 167.719 67.0426C167.523 67.0682 167.329 67.1061 167.137 67.1562C166.969 67.2031 166.775 67.241 166.554 67.2699C166.114 67.3276 165.681 67.3471 165.256 67.3282C164.831 67.3094 164.445 67.3102 164.099 67.3306C164.059 67.2115 164.027 67.0664 164.005 66.8952C163.983 66.724 163.959 66.5406 163.933 66.3449C163.907 66.1492 163.883 65.9658 163.861 65.7946C163.835 65.599 163.822 65.4017 163.82 65.2028C164.163 65.1579 164.469 65.1178 164.738 65.0826C165.031 65.0441 165.265 65.0258 165.439 65.0278C165.846 64.8999 166.325 64.7624 166.878 64.6153C167.431 64.4681 168.023 64.2412 168.655 63.9345C168.678 63.7324 168.719 63.4782 168.778 63.1719C168.838 62.8656 168.845 62.5412 168.8 62.1988C168.726 61.6363 168.451 61.3366 167.973 61.2997C167.492 61.2384 166.971 61.2446 166.408 61.3184C165.846 61.3921 165.374 61.4914 164.992 61.616C164.61 61.7407 164.126 61.8416 163.539 61.9185ZM101.755 111.184C101.327 111.141 100.877 111.125 100.406 111.137C99.956 111.122 99.5323 111.115 99.1345 111.118C99.1385 110.769 99.1117 110.374 99.0539 109.934C99.0175 109.466 98.972 109.024 98.9174 108.608C98.8757 108.291 98.825 107.999 98.7653 107.733C98.7268 107.439 98.6809 107.184 98.6276 106.967C99.6812 106.655 100.394 106.4 100.766 106.202C101.159 105.976 101.324 105.619 101.26 105.129C101.205 104.714 101.101 104.391 100.947 104.163C100.817 103.931 100.658 103.765 100.471 103.666C100.28 103.541 100.084 103.467 99.8821 103.444C99.7045 103.418 99.5423 103.414 99.3956 103.433C99.2488 103.453 99.0792 103.487 98.8868 103.537C98.7156 103.56 98.5322 103.584 98.3365 103.61L96.5166 103.96C96.0796 104.042 95.7176 104.127 95.4305 104.215C95.1434 104.302 94.8824 104.398 94.6475 104.504C94.4338 104.582 94.2201 104.659 94.0064 104.737C93.7895 104.791 93.5343 104.836 93.2408 104.875C92.9473 104.913 92.5331 104.98 91.9983 105.075C91.4602 105.146 91.0248 105.24 90.692 105.358L90.2518 105.416C90.1295 105.432 89.9705 105.453 89.7749 105.479C89.6037 105.501 89.4112 105.551 89.1975 105.629L87.7174 106.01C87.6048 106.099 87.4518 106.356 87.2586 106.779C87.0653 107.202 87.0008 107.659 87.0649 108.148C87.1387 108.71 87.4175 109.034 87.9014 109.12C88.4098 109.203 88.9453 109.207 89.5078 109.133C89.679 109.111 89.838 109.09 89.9847 109.071C90.1559 109.048 90.3133 109.015 90.4568 108.972C90.5667 109.43 90.7016 109.984 90.8616 110.635C91.0215 111.286 91.2044 111.921 91.41 112.541L89.8343 113.046C89.022 113.302 88.508 113.556 88.2923 113.808C88.0734 114.036 87.9864 114.321 88.0313 114.663C88.0762 115.006 88.1636 115.293 88.2935 115.525C88.4479 115.753 88.6081 115.931 88.774 116.059C88.94 116.186 89.1012 116.277 89.2576 116.331C89.4107 116.361 89.524 116.371 89.5974 116.361C89.793 116.336 90.0849 116.285 90.473 116.209C90.8611 116.133 91.2492 116.057 91.6373 115.982C92.0499 115.903 92.4258 115.829 92.765 115.759C93.101 115.665 93.3391 115.584 93.4795 115.516C93.5316 115.534 93.6188 115.535 93.7411 115.519C94.059 115.478 94.3966 115.396 94.7538 115.274C95.1323 115.125 95.4194 115.038 95.6151 115.012C95.8596 114.98 96.0553 114.955 96.202 114.935C96.3456 114.892 96.4785 114.862 96.6008 114.846C96.7443 114.802 96.8772 114.772 96.9995 114.756C97.143 114.712 97.3126 114.678 97.5083 114.652C97.655 114.633 97.8034 114.626 97.9533 114.631C98.1001 114.612 98.2729 114.602 98.4717 114.6C98.6706 114.599 98.9184 114.591 99.2151 114.577C99.5086 114.539 99.8754 114.491 100.316 114.433C100.78 114.372 101.147 114.324 101.416 114.289C101.685 114.254 101.901 114.188 102.062 114.092C102.224 113.996 102.341 113.844 102.413 113.636C102.509 113.424 102.595 113.127 102.669 112.744C102.72 112.563 102.734 112.387 102.712 112.216C102.654 111.776 102.335 111.432 101.755 111.184ZM106.559 117.085L104.943 116.998C104.595 116.994 104.295 116.984 104.044 116.967C103.79 116.926 103.566 116.93 103.374 116.98L103.154 117.009C102.459 117.025 101.866 117.053 101.374 117.093C100.902 117.105 100.459 117.138 100.043 117.193C99.6487 117.22 99.268 117.257 98.9011 117.305C98.5311 117.329 98.1137 117.371 97.649 117.432C97.4044 117.464 97.1965 117.492 97.0253 117.514C96.8541 117.537 96.709 117.568 96.5899 117.609C96.4644 117.6 96.2549 117.615 95.9615 117.654C95.6892 117.664 95.3925 117.678 95.0714 117.696C94.7502 117.713 94.4307 117.742 94.1127 117.784C93.816 117.798 93.5821 117.816 93.4109 117.839L93.0807 117.882C92.9584 117.898 92.6649 117.937 92.2003 117.998C91.7568 118.031 91.1805 118.094 90.4712 118.187C90.1533 118.229 89.8736 118.278 89.6322 118.334C89.4121 118.363 89.2303 118.4 89.0868 118.443C88.9368 118.438 88.7762 118.447 88.605 118.469C88.4306 118.467 88.2456 118.479 88.0499 118.505C87.2184 118.614 86.5629 118.737 86.0833 118.874C85.6006 118.987 85.2327 119.123 84.9797 119.28C84.748 119.41 84.6083 119.578 84.5606 119.783C84.5096 119.964 84.5002 120.177 84.5323 120.421C84.6253 121.131 84.9038 121.641 85.3676 121.954C85.8315 122.266 86.308 122.39 86.7972 122.326C87.0907 122.287 87.4421 122.216 87.8514 122.113C88.2821 121.982 88.6074 121.902 88.8275 121.873C89.0232 121.847 89.1609 121.854 89.2407 121.894C89.3417 121.905 89.4901 121.898 89.6857 121.872C89.7836 121.86 90.0037 121.831 90.3461 121.786C90.6853 121.717 91.0612 121.642 91.4737 121.563C91.8863 121.484 92.2882 121.419 92.6796 121.368C93.0921 121.289 93.4207 121.233 93.6653 121.201C94.1299 121.14 94.4006 121.117 94.4772 121.132L94.8807 121.079C95.0519 121.057 95.3225 121.034 95.6926 121.01C96.0839 120.959 96.5135 120.915 96.9814 120.878C97.4493 120.842 97.9294 120.804 98.4218 120.764C98.9141 120.724 99.3576 120.691 99.7521 120.664C100.171 120.634 100.504 120.615 100.752 120.608C100.997 120.576 101.119 120.56 101.119 120.56C101.364 120.528 101.734 120.504 102.229 120.489C102.749 120.47 103.283 120.462 103.831 120.465C104.375 120.444 104.883 120.427 105.354 120.415C105.825 120.403 106.159 120.384 106.354 120.358C106.819 120.297 107.127 120.083 107.278 119.715C107.425 119.322 107.467 118.881 107.403 118.392C107.319 117.756 107.038 117.321 106.559 117.085ZM105.86 134.23C105.655 134.183 105.356 134.184 104.965 134.236C104.036 134.358 103.34 134.461 102.879 134.547C102.42 134.656 102.058 134.741 101.793 134.801C101.554 134.882 101.351 134.946 101.183 134.993C101.043 135.061 100.838 135.113 100.569 135.148C100.447 135.164 100.335 135.166 100.234 135.155C100.137 135.167 100.026 135.182 99.9042 135.198C99.7915 135.287 99.5028 135.363 99.0381 135.423C98.8425 135.449 98.6208 135.466 98.373 135.473C98.1529 135.502 97.8945 135.524 97.5978 135.538L94.6851 135.808C94.6414 135.664 94.5993 135.533 94.5589 135.414C94.5428 135.292 94.5252 135.157 94.5059 135.01C94.4995 134.961 94.4915 134.9 94.4819 134.827C94.4999 134.775 94.5057 134.724 94.4993 134.675L94.3574 132.455C94.6657 132.34 95.0368 132.229 95.4706 132.122C95.9289 132.012 96.4116 131.899 96.9188 131.783C97.4292 131.691 97.9396 131.599 98.45 131.508C98.988 131.437 99.4894 131.371 99.9541 131.31C100.024 131.276 100.14 131.211 100.302 131.116C100.491 131.041 100.68 130.966 100.869 130.892C101.083 130.814 101.285 130.738 101.474 130.663C101.663 130.589 101.816 130.519 101.932 130.454C102.248 129.641 102.441 128.932 102.511 128.326C102.605 127.716 102.681 127.059 102.737 126.355C102.705 126.111 102.582 125.741 102.368 125.247C102.151 124.728 101.859 124.306 101.493 123.981C100.866 123.939 100.261 123.881 99.6793 123.808C99.122 123.732 98.7455 123.707 98.5499 123.733L98.3664 123.757C98.0974 123.792 97.839 123.813 97.5912 123.821C97.3679 123.825 97.1201 123.833 96.8479 123.844C96.5724 123.83 96.2741 123.832 95.953 123.849C95.6286 123.842 95.257 123.854 94.838 123.884C94.1255 123.952 93.6023 123.946 93.2683 123.866C92.6837 124.34 92.446 124.993 92.555 125.825C92.6192 126.314 92.8156 126.674 93.1444 126.904C93.4976 127.132 93.9024 127.278 94.3586 127.342C94.8149 127.407 95.277 127.421 95.7449 127.384C96.234 127.32 96.6498 127.266 96.9922 127.221C97.1943 127.244 97.5096 127.277 97.9382 127.321C98.3881 127.336 98.7996 127.345 99.1729 127.345C99.1625 127.645 99.0797 127.868 98.9245 128.012C98.7661 128.133 98.5663 128.221 98.3249 128.278C98.0836 128.334 97.8284 128.38 97.5593 128.415C97.2903 128.451 97.0473 128.495 96.8304 128.548C96.757 128.558 96.6714 128.569 96.5736 128.582C96.497 128.567 96.4098 128.566 96.312 128.579C95.8962 128.633 95.4592 128.716 95.0009 128.825C94.5427 128.935 94.1056 129.017 93.6899 129.072C93.422 129.306 93.0909 129.437 92.6963 129.463C92.3263 129.487 91.9748 129.558 91.6421 129.676C91.3337 129.791 91.0781 130.024 90.8753 130.374C90.6968 130.721 90.6638 131.322 90.776 132.178C90.7985 132.349 90.8267 132.47 90.8608 132.54L91.0442 134.793C91.0839 135.285 91.1076 135.655 91.1152 135.903C91.1505 136.172 91.1761 136.367 91.1922 136.49C91.2114 136.636 91.2104 136.724 91.1892 136.751C91.1924 136.776 91.194 136.788 91.194 136.788C91.2581 137.277 91.5648 137.909 92.1141 138.682C92.6598 138.86 93.0629 138.993 93.3235 139.084C93.6086 139.171 93.875 139.21 94.1228 139.203C94.3983 139.216 94.7194 139.199 95.0863 139.151C95.4776 139.1 96.0662 139.035 96.852 138.957C97.8335 138.853 98.5215 138.788 98.916 138.761C99.3106 138.734 99.5812 138.711 99.7279 138.692C99.8779 138.697 99.9895 138.695 100.063 138.685C100.136 138.675 100.32 138.651 100.613 138.613C101.151 138.542 101.697 138.433 102.25 138.286C102.83 138.16 103.36 138.029 103.84 137.891C104.319 137.754 104.738 137.624 105.095 137.503C105.455 137.406 105.709 137.347 105.856 137.328C106.042 137.229 106.184 136.987 106.283 136.6C106.409 136.236 106.435 135.772 106.361 135.209C106.304 134.769 106.137 134.443 105.86 134.23ZM95.7961 111.555L94.7052 111.773C94.5496 111.346 94.3902 110.794 94.227 110.119C94.0607 109.42 93.9177 108.804 93.7983 108.272C94.012 108.194 94.2395 108.127 94.4809 108.071C94.7435 107.987 95.0183 107.901 95.3054 107.813C95.3587 108.03 95.4014 108.261 95.4335 108.506C95.4623 108.726 95.4944 108.97 95.5297 109.239C95.581 109.631 95.6217 110.036 95.6518 110.455C95.7031 110.846 95.7512 111.213 95.7961 111.555ZM138.787 114.612L138.638 113.475L138.575 112.998C138.55 112.802 138.527 112.631 138.508 112.485C138.489 112.338 138.459 112.205 138.418 112.086C138.481 111.804 138.474 111.37 138.397 110.783C138.342 110.367 138.26 109.93 138.15 109.471C138.037 108.989 137.929 108.543 137.826 108.133L137.753 107.583C137.635 106.678 137.503 105.961 137.359 105.433C137.212 104.88 137.046 104.467 136.861 104.192C136.7 103.915 136.517 103.752 136.312 103.705C136.103 103.632 135.889 103.611 135.669 103.64C135.009 103.726 134.508 103.991 134.168 104.433C133.85 104.848 133.716 105.252 133.767 105.643C133.803 105.912 133.892 106.311 134.036 106.839C134.18 107.368 134.27 107.766 134.305 108.035C134.334 108.255 134.341 108.404 134.326 108.48C134.329 108.505 134.361 108.65 134.42 108.916C134.477 109.157 134.526 109.437 134.568 109.755C134.634 110.069 134.702 110.396 134.771 110.736C134.837 111.05 134.881 111.293 134.904 111.465L134.947 111.795C134.957 111.868 134.97 111.966 134.986 112.088C135.023 112.183 135.051 112.303 135.07 112.45C135.096 112.646 135.121 112.929 135.144 113.299C135.165 113.644 135.189 114.014 135.215 114.409C135.267 114.8 135.303 115.169 135.323 115.514C135.34 115.836 135.357 116.057 135.373 116.18C135.399 116.375 135.418 116.522 135.431 116.62C135.468 116.714 135.498 116.847 135.52 117.019C135.556 117.288 135.573 117.609 135.572 117.982C135.592 118.328 135.602 118.687 135.601 119.06C135.622 119.406 135.629 119.741 135.621 120.065C135.639 120.386 135.658 120.633 135.681 120.804C135.739 121.244 135.953 121.552 136.324 121.727C136.692 121.878 137.121 121.921 137.61 121.857C138.368 121.757 138.85 121.446 139.055 120.921L139.105 119.31C139.115 119.01 139.118 118.748 139.114 118.525C139.106 118.277 139.089 118.056 139.064 117.86L139.02 117.53C139.022 117.355 139.004 117.121 138.966 116.828C138.948 116.507 138.93 116.173 138.909 115.828C138.886 115.458 138.845 115.053 138.787 114.612ZM133.626 115.662L133.51 114.782C133.465 114.439 133.407 114.086 133.334 113.723C133.283 113.331 133.22 113.041 133.145 112.852C133.154 112.726 133.152 112.615 133.139 112.517C133.147 112.391 133.143 112.268 133.127 112.145C133.098 111.925 133.081 111.791 133.074 111.742C133.065 111.668 133.043 111.597 133.009 111.526C132.999 111.453 132.971 111.332 132.924 111.164C132.902 110.993 132.849 110.689 132.767 110.252C132.7 109.738 132.599 109.067 132.466 108.239C132.332 107.411 132.153 106.613 131.928 105.847C131.7 105.056 131.425 104.383 131.104 103.828C130.782 103.273 130.401 103.024 129.961 103.082C129.692 103.117 129.445 103.224 129.219 103.403C128.991 103.558 128.792 103.745 128.622 103.967C128.476 104.185 128.357 104.412 128.263 104.648C128.167 104.86 128.116 105.041 128.11 105.191C128.371 105.853 128.584 106.522 128.747 107.197C128.91 107.872 129.045 108.526 129.153 109.159C129.261 109.791 129.35 110.377 129.421 110.915C129.491 111.453 129.552 111.918 129.604 112.309C129.289 112.375 128.915 112.461 128.481 112.568C128.068 112.647 127.767 112.724 127.578 112.798L127.285 112.837C126.991 112.875 126.641 112.959 126.235 113.086C125.826 113.19 125.433 113.328 125.058 113.502C124.683 113.676 124.375 113.89 124.135 114.146C123.895 114.401 123.796 114.688 123.837 115.006C123.892 115.421 123.996 115.743 124.151 115.972C124.305 116.201 124.465 116.379 124.631 116.506C124.818 116.606 125.001 116.669 125.178 116.695C125.381 116.719 125.543 116.722 125.665 116.706C126.399 116.61 126.972 116.523 127.384 116.444C127.794 116.34 128.142 116.245 128.429 116.157C128.713 116.045 128.962 115.951 129.175 115.873C129.414 115.792 129.702 115.717 130.041 115.647L130.244 118.046C130.291 118.786 130.322 119.305 130.336 119.602C130.371 119.871 130.386 120.08 130.381 120.23C130.373 120.355 130.381 120.516 130.407 120.712C130.43 120.883 130.476 121.238 130.547 121.776C130.697 122.925 131.384 123.42 132.607 123.259C133.243 123.176 133.674 122.858 133.9 122.306C134.123 121.73 134.135 120.683 133.936 119.167C133.92 119.044 133.893 118.936 133.856 118.841C133.843 118.744 133.831 118.646 133.818 118.548C133.823 118.398 133.818 118.175 133.804 117.878C133.787 117.557 133.758 117.237 133.716 116.919C133.699 116.598 133.674 116.315 133.642 116.071C133.634 115.823 133.629 115.687 133.626 115.662ZM124.602 118.562C124.467 118.48 124.251 118.447 123.955 118.461C123.658 118.475 123.298 118.484 122.876 118.49L121.206 118.56C120.864 118.605 120.583 118.642 120.362 118.67C120.164 118.672 119.978 118.684 119.807 118.706C119.657 118.701 119.507 118.696 119.357 118.69C119.232 118.682 119.08 118.664 118.903 118.638C118.854 118.644 118.794 118.665 118.724 118.699C118.675 118.705 118.614 118.713 118.541 118.723C118.272 118.758 117.937 118.765 117.536 118.743L115.883 118.661C115.838 118.318 115.824 117.922 115.839 117.472C115.876 116.995 115.96 116.499 116.092 115.984C116.876 115.707 117.548 115.519 118.108 115.421C118.688 115.295 119.197 115.191 119.634 115.109C120.096 115.024 120.52 114.943 120.908 114.867C121.318 114.764 121.757 114.607 122.227 114.396C122.396 113.976 122.536 113.522 122.646 113.035C122.756 112.548 122.831 112.077 122.872 111.624C122.908 111.147 122.924 110.697 122.918 110.275C122.913 109.853 122.889 109.483 122.847 109.165C122.812 108.896 122.739 108.619 122.627 108.335C122.539 108.048 122.37 107.797 122.117 107.581L119.785 107.439C118.781 107.372 118.206 107.348 118.059 107.367L117.912 107.386C117.717 107.412 117.458 107.433 117.137 107.451C116.837 107.44 116.527 107.444 116.206 107.461C115.924 107.398 115.549 107.385 115.081 107.422C114.613 107.458 114.2 107.438 113.841 107.36C113.232 107.838 112.981 108.481 113.087 109.288C113.154 109.801 113.35 110.161 113.676 110.367C114.026 110.57 114.428 110.692 114.881 110.732C115.334 110.772 115.794 110.774 116.262 110.737C116.754 110.698 117.186 110.666 117.556 110.642C117.733 110.669 118 110.708 118.355 110.761C118.707 110.79 119.045 110.808 119.37 110.815C119.369 111.188 119.329 111.455 119.25 111.614C119.196 111.771 119.099 111.883 118.959 111.951C118.843 112.016 118.699 112.06 118.528 112.082C118.381 112.101 118.236 112.133 118.093 112.176L117.873 112.205C117.53 112.25 117.167 112.323 116.782 112.423C116.418 112.496 116.028 112.559 115.613 112.614L115.356 112.647C115.243 112.737 115.068 112.822 114.829 112.903C114.616 112.981 114.376 113.049 114.11 113.109C113.869 113.166 113.64 113.221 113.423 113.274C113.23 113.324 113.088 113.38 112.997 113.442C112.83 113.688 112.679 114.056 112.545 114.546C112.431 115.009 112.399 115.423 112.447 115.79C112.453 115.839 112.458 115.876 112.461 115.9C112.489 115.922 112.506 115.957 112.512 116.006C112.504 116.131 112.487 116.382 112.462 116.759C112.458 117.107 112.445 117.482 112.423 117.883C112.401 118.284 112.375 118.661 112.347 119.013C112.34 119.337 112.339 119.524 112.346 119.573C112.378 119.817 112.476 120.09 112.64 120.392C112.804 120.694 113.009 121.028 113.256 121.394C113.784 121.623 114.166 121.784 114.402 121.878C114.635 121.947 114.889 121.988 115.164 122.002L118.634 121.994C119.261 122.037 119.834 122.036 120.35 121.993C120.892 121.947 121.395 121.894 121.859 121.833C122.226 121.785 122.556 121.741 122.85 121.703C123.165 121.637 123.432 121.589 123.652 121.56C123.75 121.547 123.837 121.548 123.914 121.563C123.987 121.554 124.06 121.544 124.134 121.534C124.323 121.46 124.527 121.209 124.744 120.783C124.959 120.332 125.032 119.849 124.965 119.336C124.93 119.067 124.809 118.809 124.602 118.562ZM164.66 110.063C164.624 109.794 164.597 109.486 164.576 109.141C164.553 108.771 164.517 108.402 164.469 108.035C164.43 107.742 164.381 107.462 164.321 107.196C164.258 106.906 164.185 106.629 164.1 106.367C164.112 106.266 164.103 106.105 164.075 105.885C164.017 105.445 163.89 104.952 163.694 104.405C163.519 103.831 163.358 103.267 163.211 102.715C162.866 102.362 162.413 102.222 161.85 102.296C161.312 102.367 160.886 102.534 160.573 102.799C160.256 103.04 160.131 103.417 160.199 103.931C160.234 104.2 160.286 104.504 160.356 104.843C160.422 105.158 160.485 105.448 160.544 105.714C160.668 105.897 160.763 106.245 160.831 106.758C160.895 107.248 160.998 107.657 161.141 107.986C161.111 108.14 161.097 108.316 161.098 108.514C161.096 108.689 161.11 108.886 161.139 109.106C161.187 109.473 161.224 109.754 161.249 109.95C161.299 110.142 161.346 110.31 161.39 110.454C161.43 110.573 161.459 110.694 161.475 110.816C161.512 110.911 161.543 111.056 161.569 111.251C161.678 112.083 161.739 112.734 161.751 113.205C161.787 113.673 161.8 114.057 161.79 114.357C161.804 114.654 161.802 114.928 161.786 115.179C161.79 115.402 161.818 115.709 161.869 116.101C161.92 116.492 162.102 116.829 162.412 117.112C162.747 117.391 163.196 117.494 163.759 117.42C164.321 117.346 164.695 116.974 164.881 116.303C165.088 115.604 165.113 114.655 164.956 113.457L164.903 113.053L164.903 111.635C164.909 111.485 164.903 111.349 164.887 111.227C164.868 111.08 164.85 110.946 164.834 110.823C164.815 110.677 164.797 110.542 164.781 110.42C164.765 110.297 164.725 110.178 164.66 110.063ZM154.224 110.162C154.156 110.022 154.028 109.802 153.839 109.504C153.672 109.177 153.467 108.844 153.223 108.502C153.003 108.158 152.775 107.84 152.538 107.547C152.322 107.227 152.132 107.016 151.969 106.913C151.377 106.568 150.658 106.401 149.814 106.412C148.966 106.399 148.05 106.432 147.066 106.511C146.822 106.742 146.545 107.002 146.235 107.292C145.949 107.578 145.665 107.876 145.382 108.187C145.121 108.47 144.895 108.736 144.703 108.985C144.512 109.234 144.4 109.423 144.367 109.552C144.283 109.861 144.223 110.255 144.186 110.732C144.146 111.185 144.081 111.542 143.991 111.803C144.208 112.322 144.35 112.738 144.416 113.053C144.506 113.365 144.618 113.649 144.751 113.905C144.881 114.137 145.086 114.371 145.366 114.608C145.667 114.817 146.137 115.079 146.775 115.393C147.548 115.789 148.084 115.98 148.38 115.966L148.454 115.957C148.478 115.954 148.591 115.964 148.793 115.987C148.992 115.986 149.217 115.994 149.468 116.01C149.744 116.024 150.007 116.039 150.258 116.056C150.53 116.045 150.74 116.03 150.886 116.011C151.009 115.995 151.071 115.999 151.075 116.024C151.099 116.02 151.122 116.005 151.143 115.977C151.189 115.946 151.268 115.886 151.381 115.797C151.518 115.704 151.757 115.536 152.098 115.292L153.259 114.468C153.514 114.136 153.708 113.812 153.84 113.496C153.97 113.156 154.063 112.821 154.119 112.49C154.175 112.159 154.203 111.807 154.204 111.434C154.202 111.036 154.208 110.612 154.224 110.162ZM150.753 112.148C150.715 112.426 150.566 112.62 150.307 112.728C150.072 112.834 149.844 112.901 149.624 112.93C149.282 112.975 148.978 112.94 148.715 112.825C148.451 112.711 148.22 112.567 148.024 112.393C147.848 112.193 147.712 112.011 147.616 111.85C147.517 111.664 147.463 111.534 147.453 111.461L147.444 111.387L147.659 110.464C147.728 110.231 147.817 110.057 147.926 109.943C148.036 109.829 148.148 109.74 148.264 109.675C148.68 109.621 149.271 109.668 150.037 109.816C150.316 110.053 150.505 110.352 150.602 110.712C150.72 111.045 150.787 111.272 150.803 111.395C150.829 111.59 150.812 111.841 150.753 112.148ZM191.371 103.089C191.093 102.678 190.832 102.389 190.586 102.222C190.34 102.055 190.099 101.925 189.863 101.832C189.648 101.71 189.423 101.603 189.186 101.51C188.972 101.389 188.744 101.17 188.503 100.853C188.261 100.711 188.07 100.586 187.932 100.48C187.815 100.346 187.687 100.226 187.549 100.12C187.67 99.905 187.798 99.6518 187.934 99.3603C188.07 99.0689 188.134 98.7992 188.127 98.5515C187.708 97.6361 186.912 97.2554 185.738 97.4094C185.567 97.4318 185.422 97.4633 185.303 97.5038C185.208 97.5411 185.085 97.6443 184.933 97.8135C184.805 97.9795 184.628 98.2391 184.4 98.5923C184.194 98.9179 183.908 99.3908 183.542 100.011C183.429 100.1 183.298 100.242 183.15 100.436C183.001 100.629 182.852 100.823 182.703 101.017C182.579 101.207 182.465 101.384 182.362 101.546C182.256 101.685 182.191 101.756 182.166 101.759C182.07 101.97 181.917 102.227 181.707 102.528C181.495 102.805 181.263 103.121 181.011 103.478C180.78 103.806 180.565 104.158 180.366 104.532C180.163 104.882 180.035 105.235 179.982 105.59C179.991 105.664 180.058 105.792 180.182 105.975C180.326 106.13 180.497 106.294 180.694 106.467C180.912 106.613 181.141 106.744 181.38 106.862C181.616 106.956 181.869 106.985 182.138 106.949C182.48 106.905 182.732 106.735 182.892 106.44C183.052 106.145 183.336 105.747 183.743 105.246C184.083 104.804 184.367 104.406 184.594 104.053C184.843 103.672 185.181 103.217 185.609 102.688C185.957 103.065 186.328 103.427 186.722 103.773C187.14 104.117 187.553 104.423 187.962 104.693C188.392 104.935 188.805 105.142 189.2 105.314C189.593 105.462 189.95 105.527 190.271 105.51C190.341 105.476 190.454 105.386 190.609 105.242C190.764 105.097 190.904 104.929 191.028 104.739C191.177 104.545 191.299 104.342 191.396 104.131C191.489 103.895 191.523 103.679 191.498 103.483C191.482 103.361 191.44 103.229 191.371 103.089ZM197.462 109.978L195.846 109.891C195.497 109.887 195.197 109.877 194.946 109.86C194.692 109.818 194.469 109.823 194.276 109.873L194.056 109.902C193.362 109.918 192.768 109.946 192.276 109.986C191.805 109.998 191.361 110.031 190.945 110.086C190.551 110.113 190.17 110.15 189.803 110.198C189.433 110.222 189.016 110.264 188.551 110.325C188.307 110.357 188.099 110.385 187.928 110.407C187.756 110.429 187.611 110.461 187.492 110.501C187.367 110.493 187.157 110.508 186.864 110.547C186.592 110.557 186.295 110.571 185.974 110.589C185.653 110.606 185.333 110.635 185.015 110.677C184.718 110.691 184.484 110.709 184.313 110.732L183.983 110.775C183.861 110.791 183.567 110.83 183.103 110.89C182.659 110.924 182.083 110.987 181.373 111.08C181.056 111.122 180.776 111.171 180.535 111.227C180.314 111.256 180.133 111.292 179.989 111.336C179.839 111.331 179.679 111.34 179.507 111.362C179.333 111.36 179.148 111.372 178.952 111.397C178.121 111.507 177.465 111.63 176.986 111.767C176.503 111.88 176.135 112.016 175.882 112.173C175.65 112.303 175.511 112.471 175.463 112.676C175.412 112.857 175.403 113.07 175.435 113.314C175.531 114.048 175.809 114.559 176.27 114.847C176.727 115.11 177.201 115.21 177.69 115.145C177.983 115.107 178.335 115.036 178.744 114.933C179.175 114.801 179.5 114.721 179.72 114.693C179.916 114.667 180.054 114.674 180.133 114.713C180.234 114.725 180.383 114.718 180.578 114.692C180.676 114.679 180.896 114.65 181.239 114.605C181.578 114.536 181.954 114.462 182.366 114.383C182.779 114.304 183.181 114.239 183.572 114.187C183.985 114.108 184.313 114.053 184.558 114.021C185.023 113.96 185.293 113.937 185.37 113.952L185.773 113.899C185.945 113.876 186.215 113.853 186.585 113.83C186.977 113.778 187.406 113.734 187.874 113.698C188.342 113.661 188.822 113.623 189.314 113.584C189.807 113.544 190.25 113.511 190.645 113.484C191.064 113.454 191.397 113.435 191.645 113.427C191.889 113.395 192.012 113.379 192.012 113.379C192.256 113.347 192.626 113.323 193.122 113.308C193.642 113.29 194.176 113.282 194.724 113.285C195.268 113.263 195.776 113.246 196.247 113.234C196.718 113.222 197.051 113.203 197.247 113.178C197.712 113.117 198.019 112.902 198.17 112.534C198.321 112.166 198.366 111.75 198.305 111.285C198.222 110.649 197.94 110.213 197.462 109.978Z" fill="#FAFAFA"/>
</svg>
