<svg width="24" height="30" viewBox="0 0 24 30" fill="none" xmlns="http://www.w3.org/2000/svg">
<path d="M21.4268 29.3888L21.4268 29.3888L12.0882 23.7863L11.8309 23.632L11.5737 23.7864L2.23728 29.3888C2.23728 29.3889 2.23727 29.3889 2.23726 29.3889C2.12295 29.4574 1.98998 29.4963 1.85224 29.4997C1.71449 29.5032 1.57928 29.4711 1.46093 29.4082C1.34271 29.3453 1.24682 29.2545 1.18117 29.1476C1.11565 29.0408 1.08203 28.9208 1.08203 28.8V2.40032C1.08269 1.90325 1.28848 1.42239 1.66135 1.06443C2.03492 0.705801 2.54558 0.500645 3.08231 0.5H20.5818C21.1185 0.500645 21.6291 0.705801 22.0027 1.06443C22.3757 1.42245 22.5814 1.90342 22.582 2.40058V28.8C22.582 28.9208 22.5484 29.0408 22.4829 29.1476C22.4172 29.2545 22.3214 29.3453 22.2031 29.4082C22.0848 29.4711 21.9496 29.5032 21.8118 29.4997C21.6741 29.4963 21.5411 29.4574 21.4268 29.3888Z" stroke="#0F0F0F"/>
</svg>
