<svg width="282" height="137" viewBox="0 0 282 137" fill="none" xmlns="http://www.w3.org/2000/svg">
<path d="M57.6093 19.3532L57.4423 20.3392C57.7299 20.3879 58.0244 20.3086 58.2487 20.1221C58.4729 19.9356 58.6046 19.6604 58.6091 19.3688L57.6093 19.3532ZM95.7476 15.0555L95.3223 15.9606C95.6978 16.1371 96.1434 16.0633 96.442 15.7751L95.7476 15.0555ZM147.499 15.8603L146.7 16.4611C146.897 16.7231 147.21 16.872 147.537 16.8596C147.865 16.8472 148.165 16.675 148.342 16.3988L147.499 15.8603ZM188.233 16.4937L187.402 17.0504C187.637 17.4004 188.065 17.5659 188.474 17.4642L188.233 16.4937ZM239.718 34.417L238.721 34.3378C238.696 34.6523 238.821 34.9602 239.058 35.1684C239.295 35.3766 239.617 35.4607 239.926 35.3952L239.718 34.417ZM278.245 67.2144L277.245 67.1989C277.244 67.2736 277.252 67.3482 277.267 67.4213L278.245 67.2144ZM254.98 95.389L254.905 94.3919C254.504 94.4221 254.16 94.69 254.032 95.0717L254.98 95.389ZM211.338 119.905L211.38 118.906C211.174 118.897 210.972 118.952 210.799 119.063L211.338 119.905ZM156.169 124.12L156.456 123.162C156.249 123.1 156.027 123.107 155.825 123.181L156.169 124.12ZM109.594 123.396L110.058 122.511C109.832 122.392 109.568 122.364 109.322 122.434L109.594 123.396ZM56.0535 119.393L56.5554 118.528C56.4022 118.439 56.2282 118.392 56.0512 118.393L56.0535 119.393ZM27.6256 100.56L28.6255 100.575C28.6327 100.113 28.3225 99.7066 27.875 99.5914L27.6256 100.56ZM9.67135 73.9627L10.5427 74.4534C10.7223 74.1345 10.7133 73.7429 10.5192 73.4325L9.67135 73.9627ZM14.1511 43.5925L14.8104 44.3444C15.069 44.1176 15.1929 43.774 15.1386 43.4344L14.1511 43.5925ZM36.7874 26.8221L36.7718 27.8219C37.324 27.8305 37.7787 27.3898 37.7873 26.8376L36.7874 26.8221ZM58.6091 19.3688C58.6118 19.1942 58.7295 18.8147 59.2105 18.2474C59.6715 17.7039 60.3816 17.0894 61.3386 16.4595C63.2487 15.2026 66.0344 13.9558 69.4577 13.1128C76.2946 11.4291 85.5754 11.3798 95.3223 15.9606L96.173 14.1505C85.9627 9.35198 76.2063 9.39105 68.9794 11.1708C65.3707 12.0595 62.3678 13.3881 60.2392 14.7888C59.177 15.4879 58.3052 16.2227 57.6852 16.9539C57.0852 17.6614 56.6227 18.482 56.6094 19.3377L58.6091 19.3688ZM96.442 15.7751C102.713 9.72366 113.058 6.90944 123.062 7.15853C133.097 7.40838 142.389 10.7247 146.7 16.4611L148.299 15.2596C143.448 8.80423 133.396 5.41521 123.112 5.15915C112.796 4.90232 101.846 7.78157 95.0532 14.3359L96.442 15.7751ZM148.342 16.3988C149.633 14.3791 152.169 12.6225 155.528 11.3402C158.863 10.0669 162.895 9.3066 167.015 9.19645C175.334 8.97403 183.612 11.3949 187.402 17.0504L189.063 15.937C184.694 9.41675 175.514 6.96851 166.962 7.19716C162.646 7.31255 158.387 8.10784 154.815 9.47176C151.265 10.8268 148.275 12.7891 146.657 15.3218L148.342 16.3988ZM188.474 17.4642C197.406 15.2419 210.621 13.4851 221.297 15.356C226.633 16.2911 231.224 18.1134 234.351 21.1257C237.438 24.0994 239.199 28.3288 238.721 34.3378L240.715 34.4962C241.234 27.9642 239.307 23.1231 235.738 19.6854C232.21 16.2862 227.178 14.356 221.643 13.386C210.576 11.4467 197.051 13.2692 187.991 15.5233L188.474 17.4642ZM239.926 35.3952C252.738 32.6784 262.062 37.7522 268.216 44.9616C274.419 52.2288 277.333 61.5996 277.245 67.1989L279.245 67.23C279.341 61.1 276.226 51.2656 269.737 43.6632C263.199 36.003 253.168 30.5427 239.511 33.4387L239.926 35.3952ZM277.267 67.4213C278.036 71.0581 277.175 77.476 273.703 83.172C270.266 88.8113 264.308 93.683 254.905 94.3919L255.055 96.3862C265.179 95.623 271.682 90.331 275.411 84.2128C279.105 78.1513 280.114 71.2179 279.224 67.0076L277.267 67.4213ZM254.032 95.0717C250.295 106.237 242.259 112.29 233.816 115.516C225.346 118.753 216.514 119.121 211.38 118.906L211.296 120.904C216.576 121.125 225.71 120.755 234.53 117.384C243.377 114.004 251.955 107.58 255.929 95.7064L254.032 95.0717ZM210.799 119.063C200.622 125.575 192.566 128.215 184.355 128.451C176.096 128.689 167.591 126.502 156.456 123.162L155.881 125.078C166.996 128.412 175.791 130.698 184.412 130.451C193.08 130.201 201.485 127.397 211.877 120.747L210.799 119.063ZM155.825 123.181C147.264 126.316 139.982 128.314 132.773 128.455C125.588 128.596 118.406 126.894 110.058 122.511L109.129 124.281C117.728 128.797 125.242 130.603 132.812 130.455C140.358 130.307 147.89 128.217 156.512 125.059L155.825 123.181ZM109.322 122.434C96.4885 126.062 87.8162 127.667 80.114 127.098C72.444 126.53 65.637 123.797 56.5554 118.528L55.5517 120.258C64.7448 125.592 71.8594 128.493 79.9665 129.092C88.0414 129.69 97.0017 127.995 109.866 124.358L109.322 122.434ZM56.0512 118.393C46.2633 118.416 39.3511 117.212 34.9276 114.416C30.6198 111.693 28.5201 107.353 28.6255 100.575L26.6258 100.544C26.5127 107.814 28.8077 112.913 33.8589 116.106C38.7943 119.226 46.2053 120.416 56.0559 120.393L56.0512 118.393ZM27.875 99.5914C18.2717 97.1184 12.5791 93.2345 9.96419 88.8655C7.38449 84.5553 7.67241 79.5502 10.5427 74.4534L8.80001 73.472C5.66989 79.0302 5.21201 84.8199 8.24808 89.8926C11.249 94.9065 17.5336 98.9936 27.3763 101.528L27.875 99.5914ZM10.5192 73.4325C6.86555 67.5903 4.70521 63.3021 4.97478 59.0485C5.24113 54.8457 7.91544 50.3903 14.8104 44.3444L13.4918 42.8406C6.49821 48.973 3.29766 53.8904 2.97878 58.922C2.66313 63.9028 5.20719 68.7105 8.8235 74.493L10.5192 73.4325ZM15.1386 43.4344C14.65 40.3825 14.8712 37.9176 15.6391 35.9364C16.4029 33.9657 17.7346 32.403 19.5929 31.1881C23.3598 28.7254 29.2736 27.7053 36.7718 27.8219L36.8029 25.8222C29.2072 25.7041 22.7851 26.7117 18.4985 29.5141C16.33 30.9318 14.7055 32.8111 13.7743 35.2136C12.8472 37.6055 12.6345 40.445 13.1637 43.7506L15.1386 43.4344ZM37.7873 26.8376C37.8142 25.1048 38.3471 23.7795 39.246 22.7591C40.1585 21.7235 41.5094 20.9337 43.2751 20.403C46.8291 19.3348 51.8247 19.388 57.4423 20.3392L57.7762 18.3673C52.043 17.3964 46.6883 17.2887 42.6994 18.4877C40.6935 19.0906 38.9748 20.0415 37.7454 21.437C36.5024 22.8477 35.8211 24.6439 35.7875 26.8065L37.7873 26.8376Z" fill="black"/>
<path d="M68.9378 54.688C68.9592 54.5173 68.9698 54.2613 68.9698 53.92C68.9912 53.5573 69.0018 53.1627 69.0018 52.736C69.0018 52.3093 68.9698 52.0107 68.9058 51.84C68.9485 51.6693 68.9698 51.4453 68.9698 51.168C68.9698 50.6133 68.9592 50.1973 68.9378 49.92C68.9378 49.6427 68.9272 49.4187 68.9058 49.248C68.9058 49.0773 68.8952 48.9067 68.8738 48.736C68.8738 48.544 68.8632 48.2667 68.8418 47.904C68.8418 47.2427 68.7992 46.784 68.7138 46.528C68.7352 46.464 68.7458 46.3467 68.7458 46.176C68.7458 46.048 68.7352 45.9093 68.7138 45.76C68.6925 45.5893 68.6605 45.3973 68.6178 45.184L68.3938 43.904C68.2232 43.6053 67.9245 43.456 67.4978 43.456C67.1778 43.456 66.9112 43.5307 66.6978 43.68C66.5058 43.8293 66.4098 44.064 66.4098 44.384C66.4098 44.5547 66.4205 44.8 66.4418 45.12C66.4632 45.44 66.4845 45.7813 66.5058 46.144C66.5485 46.5067 66.5805 46.8693 66.6018 47.232C66.6445 47.5947 66.6658 47.904 66.6658 48.16V48.608C66.6658 48.608 66.6658 48.7893 66.6658 49.152C66.6872 49.4933 66.6978 49.8987 66.6978 50.368C66.7192 50.8373 66.7298 51.3173 66.7298 51.808C66.7512 52.2987 66.7618 52.6827 66.7618 52.96C66.7618 53.28 66.6765 53.4933 66.5058 53.6C66.3352 53.6853 66.0365 53.7387 65.6098 53.76C65.2045 53.7813 64.6605 53.824 63.9778 53.888C63.2952 53.9307 62.4312 54.0693 61.3858 54.304C61.0658 54.496 60.9058 54.7413 60.9058 55.04C60.9058 55.3387 60.9485 55.5627 61.0338 55.712C61.1192 55.8613 61.2258 55.9787 61.3538 56.064C61.5032 56.1493 61.6525 56.2027 61.8018 56.224C61.9512 56.224 62.0898 56.224 62.2178 56.224C62.5165 56.224 62.8152 56.2133 63.1138 56.192C63.4125 56.1707 63.6365 56.128 63.7858 56.064C63.9565 56.1067 64.0952 56.128 64.2018 56.128C64.5432 56.128 64.9165 56.064 65.3218 55.936C65.7485 55.7867 66.1432 55.712 66.5058 55.712C66.6125 55.712 66.6765 55.712 66.6978 55.712C66.7405 55.712 66.7618 55.776 66.7618 55.904C66.7618 56.1387 66.7512 56.3947 66.7298 56.672C66.7085 56.928 66.6978 57.1413 66.6978 57.312C66.7192 57.376 66.7298 57.4933 66.7298 57.664C66.7298 57.8347 66.6978 58.08 66.6338 58.4C66.5698 58.6987 66.5378 58.944 66.5378 59.136C66.5378 59.4347 66.6445 59.68 66.8578 59.872C67.0712 60.0427 67.3378 60.128 67.6578 60.128C68.0205 60.128 68.3192 59.9573 68.5538 59.616C68.7885 59.2533 68.9058 58.592 68.9058 57.632C68.9058 57.4827 68.8845 57.344 68.8418 57.216C68.8632 57.088 68.8738 56.9493 68.8738 56.8C68.8952 56.6293 68.9058 56.448 68.9058 56.256V55.776C68.9058 55.136 68.9165 54.7733 68.9378 54.688ZM58.0578 44C58.0792 43.9147 58.0898 43.8293 58.0898 43.744C58.0898 43.6587 58.0898 43.5733 58.0898 43.488C58.0898 42.9333 58.0578 42.5067 57.9938 42.208C57.9298 41.9093 57.8445 41.6853 57.7378 41.536C57.6312 41.3867 57.4818 41.3013 57.2898 41.28C57.1192 41.2587 56.9272 41.248 56.7138 41.248C56.2232 41.248 55.7752 41.2907 55.3698 41.376C54.9858 41.44 54.5485 41.472 54.0578 41.472C53.8658 41.5573 53.5885 41.6213 53.2258 41.664C52.8632 41.7067 52.5325 41.728 52.2338 41.728C51.8498 41.728 51.4658 41.8027 51.0818 41.952C50.7192 42.08 50.4525 42.1973 50.2818 42.304C50.2605 42.4107 50.2392 42.56 50.2178 42.752C50.2178 42.9227 50.2178 43.1147 50.2178 43.328C50.2178 43.584 50.2178 43.84 50.2178 44.096C50.2392 44.3307 50.2498 44.5013 50.2498 44.608V45.152C50.2498 45.2373 50.2605 45.3227 50.2818 45.408C50.3032 45.4933 50.3245 45.6 50.3458 45.728C50.3672 45.856 50.3992 46.0053 50.4418 46.176C50.5058 46.4533 50.5378 46.688 50.5378 46.88C50.5378 47.072 50.5378 47.2533 50.5378 47.424C50.5378 47.5947 50.5378 47.7653 50.5378 47.936C50.5592 48.1067 50.6018 48.32 50.6658 48.576C50.8792 48.6827 51.1138 48.768 51.3698 48.832C51.6258 48.896 51.8925 48.928 52.1698 48.928C52.7032 48.928 53.1085 48.9173 53.3858 48.896C53.6632 48.8747 53.8658 48.8533 53.9938 48.832C54.1218 48.8107 54.2072 48.7893 54.2498 48.768C54.3138 48.7467 54.3992 48.736 54.5058 48.736H55.0818C55.6152 48.736 56.1165 48.7147 56.5858 48.672C57.0765 48.608 57.4072 48.544 57.5778 48.48C57.7485 48.0107 57.8552 47.552 57.8978 47.104C57.9405 46.656 57.9832 46.2613 58.0258 45.92C58.0898 45.728 58.1325 45.5467 58.1538 45.376C58.1752 45.2053 58.1858 45.0453 58.1858 44.896C58.1858 44.7253 58.1752 44.576 58.1538 44.448C58.1325 44.2987 58.1005 44.1493 58.0578 44ZM61.6418 50.688C61.5992 50.688 61.5458 50.688 61.4818 50.688C61.4178 50.6667 61.3325 50.656 61.2258 50.656C61.0552 50.656 60.8418 50.6667 60.5858 50.688C60.3512 50.7093 60.1058 50.7413 59.8498 50.784C59.5938 50.8053 59.3592 50.8267 59.1458 50.848C58.9325 50.8693 58.7832 50.8907 58.6978 50.912C58.6338 50.8907 58.5272 50.88 58.3778 50.88C58.1645 50.88 57.9192 50.912 57.6418 50.976C57.3645 51.04 56.9805 51.072 56.4898 51.072C56.4045 51.072 56.3192 51.072 56.2338 51.072C56.1698 51.0507 56.0845 51.04 55.9778 51.04C55.9352 51.04 55.7858 51.0507 55.5298 51.072C55.2738 51.072 54.9965 51.0827 54.6978 51.104C54.4205 51.104 54.1432 51.1147 53.8658 51.136C53.6098 51.1573 53.4392 51.1787 53.3538 51.2C53.2685 51.1787 53.1192 51.1573 52.9058 51.136C52.6925 51.1147 52.4365 51.0933 52.1378 51.072C51.8605 51.0507 51.5512 51.04 51.2098 51.04C50.8685 51.0187 50.5272 51.008 50.1858 51.008C49.9725 51.008 49.7805 51.0187 49.6098 51.04C49.4392 51.04 49.2792 51.04 49.1298 51.04C49.0232 50.9973 48.7992 50.9653 48.4578 50.944C48.1165 50.9013 47.7325 50.88 47.3058 50.88C46.7085 50.88 46.3032 50.9867 46.0898 51.2C45.8765 51.392 45.7698 51.648 45.7698 51.968C45.7698 52.3733 45.8978 52.6613 46.1538 52.832C46.4312 53.0027 47.0498 53.088 48.0098 53.088C48.8205 53.088 49.3752 53.12 49.6738 53.184H51.1458C51.7005 53.184 52.0952 53.184 52.3298 53.184C52.5645 53.184 52.6818 53.3013 52.6818 53.536C52.6818 53.92 52.6498 54.2187 52.5858 54.432C52.5432 54.6453 52.4898 54.88 52.4258 55.136C52.3618 55.3707 52.2978 55.68 52.2338 56.064C52.1912 56.4267 52.1698 56.9493 52.1698 57.632C52.1698 57.9733 52.2338 58.2293 52.3618 58.4C52.5112 58.5707 52.8312 58.656 53.3218 58.656C53.5778 58.656 53.7805 58.56 53.9298 58.368C54.1005 58.176 54.2285 57.9307 54.3138 57.632C54.4205 57.312 54.4952 56.9707 54.5378 56.608C54.5805 56.2453 54.6125 55.8827 54.6338 55.52L54.7298 54.4C54.7512 54.1227 54.7725 53.888 54.7938 53.696C54.8365 53.4827 54.8792 53.3227 54.9218 53.216L56.8418 53.088C57.9085 53.024 58.8045 52.9493 59.5298 52.864C60.2765 52.7573 60.9272 52.672 61.4818 52.608C61.8872 52.4587 62.0898 52.1067 62.0898 51.552C62.0898 51.1467 61.9405 50.8587 61.6418 50.688ZM65.9938 69.184C65.8658 69.12 65.6525 69.088 65.3538 69.088C64.9272 69.088 64.5005 69.12 64.0738 69.184C63.6472 69.248 63.3698 69.28 63.2418 69.28C62.7938 69.344 62.4418 69.3867 62.1858 69.408C61.9512 69.4293 61.7272 69.44 61.5138 69.44C61.4072 69.44 61.3005 69.4293 61.1938 69.408C61.1085 69.408 61.0125 69.408 60.9058 69.408C60.7778 69.472 60.4152 69.504 59.8178 69.504C59.3272 69.504 58.8365 69.4933 58.3458 69.472C57.8552 69.472 57.4072 69.4507 57.0018 69.408C56.5325 69.3867 56.0738 69.3547 55.6258 69.312C55.5832 69.12 55.5512 68.928 55.5298 68.736C55.5085 68.5653 55.4978 68.384 55.4978 68.192C55.4978 68.128 55.4978 68.0533 55.4978 67.968C55.5192 67.904 55.5298 67.84 55.5298 67.776L55.7218 65.44C55.9992 65.376 56.2658 65.3227 56.5218 65.28C56.7778 65.2373 57.0445 65.1947 57.3218 65.152C57.6205 65.1307 57.9405 65.1093 58.2818 65.088C58.6445 65.0667 59.0712 65.056 59.5618 65.056H61.1938C61.2792 65.0347 61.3965 64.992 61.5458 64.928C61.7165 64.8853 61.8872 64.8427 62.0578 64.8C62.2285 64.7573 62.3885 64.7147 62.5378 64.672C62.6872 64.6293 62.7938 64.5973 62.8578 64.576C63.1778 64 63.4018 63.4773 63.5298 63.008C63.6578 62.5387 63.7752 62.0053 63.8818 61.408C63.8818 61.2373 63.8285 60.96 63.7218 60.576C63.6365 60.192 63.4765 59.8933 63.2418 59.68C62.7938 59.5733 62.3458 59.456 61.8978 59.328C61.4712 59.2 61.1725 59.136 61.0018 59.136C60.9592 59.1573 60.8632 59.168 60.7138 59.168C60.4792 59.168 60.1805 59.1467 59.8178 59.104C59.4552 59.0613 59.1352 59.0293 58.8578 59.008C58.7725 58.9653 58.6018 58.9333 58.3458 58.912C58.1112 58.8693 57.8445 58.8373 57.5458 58.816C57.2685 58.7947 57.0018 58.7733 56.7458 58.752C56.5112 58.7307 56.3512 58.7093 56.2658 58.688C56.0738 58.7947 55.9352 58.9547 55.8498 59.168C55.7645 59.3813 55.7218 59.5947 55.7218 59.808C55.7218 60.1493 55.8712 60.4053 56.1698 60.576C56.4898 60.7467 56.8525 60.8747 57.2578 60.96C57.6632 61.024 58.0578 61.056 58.4418 61.056C58.8258 61.056 59.0925 61.056 59.2418 61.056C59.6685 61.12 60.0525 61.1947 60.3938 61.28C60.6925 61.344 60.9592 61.408 61.1938 61.472C61.4498 61.536 61.5778 61.5787 61.5778 61.6C61.5778 62.112 61.4818 62.464 61.2898 62.656C61.1192 62.8267 60.8952 62.9333 60.6178 62.976C60.3618 63.0187 60.0738 63.04 59.7538 63.04C59.4338 63.0187 59.1352 63.072 58.8578 63.2C58.7512 63.1787 58.5805 63.168 58.3458 63.168C57.7058 63.168 57.1512 63.2213 56.6818 63.328C56.2125 63.4133 55.6578 63.456 55.0178 63.456H54.7618C53.8445 63.456 53.3858 64 53.3858 65.088C53.3858 65.2587 53.4285 65.3867 53.5138 65.472C53.5138 65.5147 53.4925 65.7387 53.4498 66.144C53.4285 66.5493 53.4072 66.9867 53.3858 67.456C53.3645 67.9253 53.3325 68.352 53.2898 68.736C53.2685 69.1413 53.2578 69.3547 53.2578 69.376C53.2578 69.6107 53.3005 69.8133 53.3858 69.984C53.4925 70.176 53.6205 70.432 53.7698 70.752C54.1325 70.944 54.4205 71.0827 54.6338 71.168C54.8472 71.2747 55.0712 71.3387 55.3058 71.36C55.5618 71.4027 55.8605 71.4133 56.2018 71.392C56.5432 71.392 57.0338 71.4027 57.6738 71.424C58.5272 71.4453 59.1352 71.4667 59.4978 71.488C59.8605 71.5093 60.1165 71.52 60.2658 71.52C60.4152 71.5413 60.5218 71.552 60.5858 71.552C60.6712 71.5733 60.8418 71.584 61.0978 71.584C61.5885 71.584 62.0792 71.552 62.5698 71.488C63.0818 71.4453 63.5512 71.392 63.9778 71.328C64.4045 71.264 64.7778 71.2 65.0978 71.136C65.4178 71.0933 65.6418 71.072 65.7698 71.072C65.8978 71.0293 66.0045 70.9013 66.0898 70.688C66.1965 70.4747 66.2498 70.1973 66.2498 69.856C66.2498 69.5787 66.1645 69.3547 65.9938 69.184ZM55.9458 44.928V45.28C55.9458 45.4507 55.9352 45.5787 55.9138 45.664C55.9138 45.728 55.9032 45.792 55.8818 45.856C55.8605 45.92 55.8392 46.0053 55.8178 46.112C55.7965 46.1973 55.7752 46.3467 55.7538 46.56C55.5192 46.6027 55.3165 46.6453 55.1458 46.688C54.9965 46.7093 54.8152 46.72 54.6018 46.72C54.5165 46.72 54.4205 46.72 54.3138 46.72C54.2285 46.72 54.1325 46.7093 54.0258 46.688C53.9192 46.7307 53.7592 46.752 53.5458 46.752C53.1405 46.752 52.8525 46.7093 52.6818 46.624C52.5112 46.5387 52.4045 46.4213 52.3618 46.272C52.3192 46.1013 52.2978 45.92 52.2978 45.728C52.3192 45.536 52.3192 45.3227 52.2978 45.088C52.2552 44.8747 52.2338 44.704 52.2338 44.576C52.2338 44.448 52.2338 44.352 52.2338 44.288C52.2552 44.224 52.2552 44.1707 52.2338 44.128C52.2338 44.064 52.2232 43.9787 52.2018 43.872C52.4152 43.744 52.6925 43.648 53.0338 43.584C53.3965 43.52 53.7592 43.4773 54.1218 43.456C54.5058 43.4133 54.8578 43.392 55.1778 43.392C55.4978 43.3707 55.7432 43.36 55.9138 43.36C55.9778 43.7867 56.0098 44.1173 56.0098 44.352C56.0098 44.4587 55.9992 44.5547 55.9778 44.64C55.9778 44.7253 55.9672 44.8213 55.9458 44.928ZM103.441 45.408C103.548 45.024 103.601 44.7253 103.601 44.512C103.601 44.0853 103.42 43.7547 103.057 43.52C102.716 43.264 102.321 43.136 101.873 43.136C101.788 43.136 101.703 43.1573 101.617 43.2C101.383 43.1573 101.127 43.1147 100.849 43.072C100.572 43.008 100.305 42.976 100.049 42.976C99.8573 42.976 99.6653 43.008 99.4733 43.072C99.3453 43.0293 99.2173 43.008 99.0893 43.008C98.9613 43.008 98.844 43.008 98.7373 43.008C98.46 43.008 98.204 43.0293 97.9693 43.072C97.756 43.0933 97.532 43.104 97.2973 43.104C97.148 43.104 97.0307 43.0933 96.9453 43.072C96.0493 43.1787 95.4413 43.3387 95.1213 43.552C94.8013 43.7653 94.6413 44.0427 94.6413 44.384C94.6413 44.5973 94.7267 44.8 94.8973 44.992C95.068 45.1627 95.2067 45.28 95.3133 45.344C95.5053 45.344 95.708 45.3227 95.9213 45.28C96.156 45.216 96.4333 45.184 96.7533 45.184C96.8173 45.184 96.8813 45.1947 96.9453 45.216C97.0307 45.216 97.116 45.216 97.2013 45.216C97.3507 45.1733 97.5747 45.1413 97.8733 45.12C98.172 45.0987 98.428 45.088 98.6413 45.088H98.8973C98.9613 45.088 99.0253 45.088 99.0893 45.088C99.1747 45.0667 99.26 45.056 99.3453 45.056C99.516 45.056 99.708 45.0667 99.9213 45.088C100.156 45.1093 100.369 45.1413 100.561 45.184C100.775 45.2053 100.945 45.2373 101.073 45.28C101.223 45.3227 101.297 45.376 101.297 45.44C101.297 45.6107 101.276 45.8453 101.233 46.144C101.212 46.4213 101.18 46.6773 101.137 46.912C101.137 46.976 101.137 47.04 101.137 47.104C101.159 47.168 101.169 47.2213 101.169 47.264C101.169 47.4347 101.148 47.584 101.105 47.712C101.063 47.8187 101.009 47.9253 100.945 48.032C100.903 48.1387 100.86 48.2667 100.817 48.416C100.775 48.544 100.753 48.7147 100.753 48.928C100.753 49.1627 100.796 49.3547 100.881 49.504C100.967 49.632 101.063 49.728 101.169 49.792C101.297 49.856 101.425 49.8987 101.553 49.92C101.703 49.9413 101.831 49.952 101.937 49.952C102.215 49.952 102.449 49.8133 102.641 49.536C102.855 49.2373 103.015 48.8853 103.121 48.48C103.249 48.0533 103.335 47.6053 103.377 47.136C103.441 46.6667 103.473 46.24 103.473 45.856C103.473 45.7707 103.463 45.696 103.441 45.632C103.441 45.568 103.441 45.4933 103.441 45.408ZM108.369 56.768C108.668 56.6187 108.817 56.3307 108.817 55.904C108.817 55.4773 108.647 55.168 108.305 54.976C107.985 54.784 107.527 54.6453 106.929 54.56C106.353 54.4747 105.649 54.432 104.817 54.432C103.985 54.432 103.068 54.4107 102.065 54.368L98.7053 54.24C98.6627 54.1547 98.6413 54.0587 98.6413 53.952C98.6413 53.824 98.6413 53.696 98.6413 53.568C98.6413 53.376 98.6413 53.184 98.6413 52.992C98.6627 52.7787 98.6733 52.5973 98.6733 52.448V52.256C98.6947 52.1493 98.7053 51.9893 98.7053 51.776C98.7053 51.2213 98.6413 50.72 98.5133 50.272C98.4067 49.8027 98.172 49.568 97.8093 49.568C97.468 49.568 97.2013 49.6213 97.0093 49.728C96.8173 49.8347 96.668 49.9733 96.5613 50.144C96.476 50.2933 96.4227 50.4747 96.4013 50.688C96.38 50.9013 96.3693 51.1147 96.3693 51.328C96.3693 51.5413 96.38 51.744 96.4013 51.936C96.4227 52.128 96.4547 52.2773 96.4973 52.384V52.544C96.4973 52.736 96.508 52.9173 96.5293 53.088C96.5507 53.2373 96.5613 53.4293 96.5613 53.664C96.5613 53.856 96.4973 54.0053 96.3693 54.112C96.2627 54.2187 96.0067 54.304 95.6013 54.368C95.2173 54.4107 94.652 54.432 93.9053 54.432C93.1587 54.432 92.156 54.432 90.8973 54.432H90.4813C89.9267 54.432 89.532 54.5173 89.2973 54.688C89.084 54.8587 88.9773 55.1573 88.9773 55.584C88.9773 55.9467 89.1053 56.2027 89.3613 56.352C89.6387 56.5013 90.1933 56.576 91.0253 56.576C91.3667 56.576 91.644 56.5653 91.8573 56.544C92.0707 56.5013 92.2307 56.4587 92.3373 56.416C92.5933 56.48 92.9027 56.512 93.2653 56.512C93.5213 56.512 93.7667 56.5013 94.0013 56.48C94.236 56.4587 94.4067 56.448 94.5133 56.448C94.62 56.448 94.7267 56.4587 94.8333 56.48C94.94 56.48 95.1107 56.48 95.3453 56.48C95.964 56.48 96.5613 56.4587 97.1373 56.416C97.7133 56.352 98.0547 56.2987 98.1613 56.256C98.2253 56.2773 98.4387 56.2987 98.8013 56.32C99.1853 56.3413 99.5907 56.3627 100.017 56.384C100.444 56.384 100.828 56.3947 101.169 56.416C101.532 56.416 101.724 56.416 101.745 56.416H102.289C102.844 56.416 103.356 56.448 103.825 56.512C104.316 56.5547 104.721 56.576 105.041 56.576C105.105 56.576 105.169 56.576 105.233 56.576C105.319 56.576 105.383 56.5653 105.425 56.544C105.511 56.5653 105.66 56.5973 105.873 56.64C106.087 56.6613 106.321 56.6827 106.577 56.704C106.833 56.7253 107.079 56.7467 107.313 56.768C107.569 56.7893 107.783 56.8 107.953 56.8C108.167 56.8 108.305 56.7893 108.369 56.768ZM105.681 69.184C105.553 69.12 105.34 69.088 105.041 69.088C104.615 69.088 104.188 69.12 103.761 69.184C103.335 69.248 103.057 69.28 102.929 69.28C102.481 69.344 102.129 69.3867 101.873 69.408C101.639 69.4293 101.415 69.44 101.201 69.44C101.095 69.44 100.988 69.4293 100.881 69.408C100.796 69.408 100.7 69.408 100.593 69.408C100.465 69.472 100.103 69.504 99.5053 69.504C99.0147 69.504 98.524 69.4933 98.0333 69.472C97.5427 69.472 97.0947 69.4507 96.6893 69.408C96.22 69.3867 95.7613 69.3547 95.3133 69.312C95.2707 69.12 95.2387 68.928 95.2173 68.736C95.196 68.5653 95.1853 68.384 95.1853 68.192C95.1853 68.128 95.1853 68.0533 95.1853 67.968C95.2067 67.904 95.2173 67.84 95.2173 67.776L95.4093 65.44C95.6867 65.376 95.9533 65.3227 96.2093 65.28C96.4653 65.2373 96.732 65.1947 97.0093 65.152C97.308 65.1307 97.628 65.1093 97.9693 65.088C98.332 65.0667 98.7587 65.056 99.2493 65.056H100.881C100.967 65.0347 101.084 64.992 101.233 64.928C101.404 64.8853 101.575 64.8427 101.745 64.8C101.916 64.7573 102.076 64.7147 102.225 64.672C102.375 64.6293 102.481 64.5973 102.545 64.576C102.865 64 103.089 63.4773 103.217 63.008C103.345 62.5387 103.463 62.0053 103.569 61.408C103.569 61.2373 103.516 60.96 103.409 60.576C103.324 60.192 103.164 59.8933 102.929 59.68C102.481 59.5733 102.033 59.456 101.585 59.328C101.159 59.2 100.86 59.136 100.689 59.136C100.647 59.1573 100.551 59.168 100.401 59.168C100.167 59.168 99.868 59.1467 99.5053 59.104C99.1427 59.0613 98.8227 59.0293 98.5453 59.008C98.46 58.9653 98.2893 58.9333 98.0333 58.912C97.7987 58.8693 97.532 58.8373 97.2333 58.816C96.956 58.7947 96.6893 58.7733 96.4333 58.752C96.1987 58.7307 96.0387 58.7093 95.9533 58.688C95.7613 58.7947 95.6227 58.9547 95.5373 59.168C95.452 59.3813 95.4093 59.5947 95.4093 59.808C95.4093 60.1493 95.5587 60.4053 95.8573 60.576C96.1773 60.7467 96.54 60.8747 96.9453 60.96C97.3507 61.024 97.7453 61.056 98.1293 61.056C98.5133 61.056 98.78 61.056 98.9293 61.056C99.356 61.12 99.74 61.1947 100.081 61.28C100.38 61.344 100.647 61.408 100.881 61.472C101.137 61.536 101.265 61.5787 101.265 61.6C101.265 62.112 101.169 62.464 100.977 62.656C100.807 62.8267 100.583 62.9333 100.305 62.976C100.049 63.0187 99.7613 63.04 99.4413 63.04C99.1213 63.0187 98.8227 63.072 98.5453 63.2C98.4387 63.1787 98.268 63.168 98.0333 63.168C97.3933 63.168 96.8387 63.2213 96.3693 63.328C95.9 63.4133 95.3453 63.456 94.7053 63.456H94.4493C93.532 63.456 93.0733 64 93.0733 65.088C93.0733 65.2587 93.116 65.3867 93.2013 65.472C93.2013 65.5147 93.18 65.7387 93.1373 66.144C93.116 66.5493 93.0947 66.9867 93.0733 67.456C93.052 67.9253 93.02 68.352 92.9773 68.736C92.956 69.1413 92.9453 69.3547 92.9453 69.376C92.9453 69.6107 92.988 69.8133 93.0733 69.984C93.18 70.176 93.308 70.432 93.4573 70.752C93.82 70.944 94.108 71.0827 94.3213 71.168C94.5347 71.2747 94.7587 71.3387 94.9933 71.36C95.2493 71.4027 95.548 71.4133 95.8893 71.392C96.2307 71.392 96.7213 71.4027 97.3613 71.424C98.2147 71.4453 98.8227 71.4667 99.1853 71.488C99.548 71.5093 99.804 71.52 99.9533 71.52C100.103 71.5413 100.209 71.552 100.273 71.552C100.359 71.5733 100.529 71.584 100.785 71.584C101.276 71.584 101.767 71.552 102.257 71.488C102.769 71.4453 103.239 71.392 103.665 71.328C104.092 71.264 104.465 71.2 104.785 71.136C105.105 71.0933 105.329 71.072 105.457 71.072C105.585 71.0293 105.692 70.9013 105.777 70.688C105.884 70.4747 105.937 70.1973 105.937 69.856C105.937 69.5787 105.852 69.3547 105.681 69.184ZM138.651 55.424C138.95 55.232 139.099 55.008 139.099 54.752C139.099 54.4747 139.057 54.2613 138.971 54.112C138.886 53.9627 138.769 53.8453 138.619 53.76C138.491 53.6747 138.353 53.6213 138.203 53.6C138.054 53.5787 137.915 53.568 137.787 53.568C137.489 53.568 137.19 53.5893 136.891 53.632C136.614 53.6533 136.39 53.6853 136.219 53.728C136.091 53.6853 135.974 53.664 135.867 53.664C135.526 53.664 135.217 53.6853 134.939 53.728C134.662 53.7707 134.385 53.824 134.107 53.888C133.851 53.9307 133.574 53.9733 133.275 54.016C132.998 54.0587 132.678 54.08 132.315 54.08H131.931V53.248C131.931 52.864 131.91 52.5653 131.867 52.352C131.889 52.288 131.899 52.1493 131.899 51.936C131.899 51.7013 131.889 51.392 131.867 51.008C131.846 50.624 131.803 50.2187 131.739 49.792C131.697 49.3653 131.633 48.9493 131.547 48.544C131.462 48.1173 131.355 47.7547 131.227 47.456C130.971 47.1787 130.63 47.04 130.203 47.04C129.393 47.04 128.987 47.3067 128.987 47.84C128.987 47.9467 128.987 48.0213 128.987 48.064C129.009 48.1067 129.03 48.1707 129.051 48.256C129.073 48.32 129.105 48.4373 129.147 48.608C129.19 48.7787 129.243 49.0347 129.307 49.376C129.414 49.9307 129.51 50.304 129.595 50.496C129.574 50.5813 129.553 50.6773 129.531 50.784C129.531 50.8693 129.531 50.976 129.531 51.104C129.531 51.2747 129.542 51.4773 129.563 51.712C129.585 51.9467 129.606 52.1813 129.627 52.416C129.67 52.6293 129.702 52.832 129.723 53.024C129.745 53.1947 129.755 53.312 129.755 53.376C129.755 53.504 129.745 53.6853 129.723 53.92C129.723 54.1333 129.713 54.4107 129.691 54.752V56.064V56.16C129.691 56.2027 129.681 56.2987 129.659 56.448C129.659 56.5973 129.649 56.768 129.627 56.96C129.606 57.152 129.585 57.3547 129.563 57.568C129.563 57.76 129.563 57.9307 129.563 58.08C129.563 58.3787 129.595 58.6027 129.659 58.752C129.638 58.8587 129.606 59.008 129.563 59.2C129.521 59.392 129.478 59.6053 129.435 59.84C129.414 60.0533 129.382 60.2773 129.339 60.512C129.318 60.7253 129.307 60.9067 129.307 61.056C129.307 61.3547 129.393 61.568 129.563 61.696C129.734 61.8027 129.969 61.856 130.267 61.856C130.843 61.856 131.217 61.6427 131.387 61.216L131.643 58.944C131.707 58.368 131.75 57.856 131.771 57.408C131.814 56.96 131.846 56.5867 131.867 56.288C131.974 56.2453 132.166 56.2133 132.443 56.192C132.742 56.1493 133.105 56.1067 133.531 56.064L135.195 55.904H135.483C135.654 55.9253 135.846 55.9253 136.059 55.904C136.273 55.8613 136.529 55.8187 136.827 55.776L138.651 55.424ZM124.155 57.6C124.049 57.536 123.867 57.4933 123.611 57.472C123.355 57.4293 123.078 57.408 122.779 57.408C122.481 57.3867 122.203 57.376 121.947 57.376C121.691 57.3547 121.521 57.3333 121.435 57.312C120.71 57.312 120.294 57.3013 120.187 57.28L119.419 57.12C119.291 57.1627 119.174 57.184 119.067 57.184C118.769 57.184 118.331 57.12 117.755 56.992L116.251 56.704C116.23 56.64 116.219 56.544 116.219 56.416C116.219 56.2667 116.219 56.064 116.219 55.808C116.241 55.552 116.273 55.2853 116.315 55.008C116.379 54.7093 116.454 54.432 116.539 54.176C116.625 53.8987 116.742 53.664 116.891 53.472C117.169 53.408 117.467 53.3547 117.787 53.312C118.129 53.2693 118.449 53.2373 118.747 53.216C119.067 53.1733 119.366 53.1413 119.643 53.12C119.921 53.0987 120.145 53.088 120.315 53.088H120.859C120.945 53.0667 121.062 53.0453 121.211 53.024C121.382 52.9813 121.553 52.9493 121.723 52.928C121.894 52.9067 122.054 52.8853 122.203 52.864C122.353 52.8427 122.459 52.8213 122.523 52.8C122.694 52.48 122.843 52.128 122.971 51.744C123.121 51.3387 123.238 50.9333 123.323 50.528C123.43 50.1227 123.505 49.7387 123.547 49.376C123.59 48.992 123.611 48.6613 123.611 48.384C123.611 48.128 123.558 47.936 123.451 47.808C123.366 47.6587 123.227 47.552 123.035 47.488C122.843 47.4027 122.609 47.3387 122.331 47.296C122.075 47.232 121.777 47.168 121.435 47.104C120.625 46.9333 120.155 46.848 120.027 46.848C119.985 46.8693 119.899 46.88 119.771 46.88C119.558 46.88 119.313 46.8587 119.035 46.816C118.758 46.7733 118.481 46.7413 118.203 46.72C117.99 46.592 117.659 46.528 117.211 46.528C116.785 46.5067 116.465 46.464 116.251 46.4C116.059 46.5067 115.921 46.6667 115.835 46.88C115.75 47.0933 115.707 47.3067 115.707 47.52C115.707 47.8613 115.857 48.1173 116.155 48.288C116.475 48.4587 116.838 48.5867 117.243 48.672C117.649 48.736 118.043 48.768 118.427 48.768C118.811 48.768 119.078 48.768 119.227 48.768C119.227 48.768 119.323 48.7893 119.515 48.832C119.729 48.8747 119.963 48.928 120.219 48.992C120.475 49.056 120.71 49.12 120.923 49.184C121.137 49.248 121.243 49.2907 121.243 49.312C121.243 49.8027 121.147 50.2187 120.955 50.56C120.785 50.9013 120.539 51.072 120.219 51.072C119.963 51.072 119.718 51.1253 119.483 51.232C119.377 51.2107 119.217 51.2 119.003 51.2C118.47 51.2 118.001 51.2533 117.595 51.36C117.19 51.4453 116.678 51.488 116.059 51.488H115.803C115.377 51.488 115.035 51.6373 114.779 51.936C114.523 52.2347 114.395 52.6613 114.395 53.216C114.395 53.344 114.427 53.44 114.491 53.504L114.203 55.2C114.161 55.4987 114.118 55.7547 114.075 55.968C114.054 56.16 114.022 56.32 113.979 56.448L113.883 56.832C113.883 57.0667 113.947 57.3013 114.075 57.536C114.203 57.7493 114.353 57.952 114.523 58.144C114.715 58.3147 114.918 58.4533 115.131 58.56C115.345 58.6667 115.537 58.7307 115.707 58.752L117.403 58.944C117.979 59.008 118.47 59.072 118.875 59.136C119.281 59.2 119.633 59.2533 119.931 59.296C120.251 59.3387 120.539 59.3813 120.795 59.424C121.073 59.4453 121.371 59.456 121.691 59.456C122.033 59.456 122.331 59.456 122.587 59.456C122.865 59.4347 123.099 59.424 123.291 59.424H123.675C123.803 59.36 123.942 59.2107 124.091 58.976C124.241 58.72 124.315 58.4427 124.315 58.144C124.315 57.952 124.262 57.7707 124.155 57.6ZM164.773 56.128C164.731 56.128 164.581 56.1173 164.325 56.096C164.091 56.0747 163.824 56.064 163.525 56.064C163.248 56.0427 162.981 56.0213 162.725 56C162.491 55.9787 162.363 55.968 162.341 55.968C162.299 55.968 162.171 55.9573 161.957 55.936C161.765 55.9147 161.552 55.8933 161.317 55.872C161.104 55.8293 160.891 55.7973 160.677 55.776C160.485 55.7547 160.368 55.744 160.325 55.744C160.219 55.7653 160.048 55.776 159.813 55.776C159.6 55.776 159.323 55.776 158.981 55.776C158.661 55.776 158.395 55.7653 158.181 55.744C157.968 55.7013 157.808 55.6587 157.701 55.616C157.701 55.5733 157.701 55.424 157.701 55.168C157.723 54.912 157.744 54.624 157.765 54.304C157.787 53.984 157.797 53.664 157.797 53.344C157.819 53.024 157.829 52.7787 157.829 52.608V52.288C158.341 52.2453 158.821 52.2133 159.269 52.192C159.717 52.1707 160.176 52.0853 160.645 51.936C160.688 51.936 160.72 51.9467 160.741 51.968C160.784 51.968 160.827 51.968 160.869 51.968C161.019 51.968 161.243 51.9573 161.541 51.936C161.861 51.9147 162.181 51.8827 162.501 51.84C162.821 51.7973 163.109 51.7653 163.365 51.744C163.621 51.7013 163.792 51.6587 163.877 51.616C164.219 51.5093 164.389 51.1573 164.389 50.56C164.389 50.3253 164.315 50.112 164.165 49.92C164.037 49.7067 163.792 49.6 163.429 49.6C163.195 49.6 162.896 49.6213 162.533 49.664C162.171 49.7067 161.797 49.7493 161.413 49.792C161.051 49.8347 160.72 49.888 160.421 49.952C160.123 50.016 159.909 50.0587 159.781 50.08H159.557C159.301 50.08 158.992 50.112 158.629 50.176C158.288 50.24 158.011 50.272 157.797 50.272L157.637 47.616C157.595 46.8267 157.541 46.1867 157.477 45.696C157.413 45.184 157.339 44.7893 157.253 44.512C157.168 44.2347 157.061 44.0533 156.933 43.968C156.827 43.8613 156.677 43.808 156.485 43.808C156.144 43.808 155.856 43.9467 155.621 44.224C155.387 44.5013 155.248 44.736 155.205 44.928C155.205 44.928 155.227 45.1093 155.269 45.472C155.312 45.8133 155.355 46.208 155.397 46.656C155.461 47.0827 155.515 47.488 155.557 47.872C155.6 48.2347 155.632 48.4267 155.653 48.448C155.589 48.6827 155.557 49.0987 155.557 49.696C155.557 50.2507 155.568 50.8587 155.589 51.52C155.632 52.1813 155.653 52.6613 155.653 52.96V53.376L155.557 55.328C155.536 55.7547 155.515 56.1067 155.493 56.384C155.472 56.6613 155.451 56.864 155.429 56.992V57.28C155.429 57.4933 155.408 57.8133 155.365 58.24C155.323 58.6453 155.269 59.0827 155.205 59.552C155.141 60 155.088 60.4267 155.045 60.832C155.003 61.216 154.981 61.4827 154.981 61.632C154.981 61.952 155.056 62.1653 155.205 62.272C155.376 62.3787 155.579 62.432 155.813 62.432C156.347 62.432 156.667 62.3573 156.773 62.208C156.88 62.0373 156.955 61.696 156.997 61.184C157.04 60.5227 157.104 60.1173 157.189 59.968V59.904C157.189 59.8613 157.2 59.744 157.221 59.552C157.264 59.36 157.307 59.1573 157.349 58.944C157.392 58.7093 157.424 58.4853 157.445 58.272C157.488 58.0587 157.509 57.8987 157.509 57.792V57.632C157.595 57.632 157.723 57.6427 157.893 57.664C158.085 57.664 158.277 57.6747 158.469 57.696C158.661 57.696 158.843 57.7067 159.013 57.728C159.184 57.728 159.301 57.728 159.365 57.728C159.835 57.728 160.293 57.7707 160.741 57.856C161.211 57.92 161.499 57.9627 161.605 57.984H161.861C162.011 57.984 162.192 57.9947 162.405 58.016C162.64 58.016 162.864 58.0267 163.077 58.048C163.312 58.0693 163.525 58.0907 163.717 58.112C163.931 58.112 164.091 58.112 164.197 58.112C164.539 58.0693 164.784 57.952 164.933 57.76C165.083 57.568 165.157 57.3547 165.157 57.12C165.157 56.7787 165.029 56.448 164.773 56.128ZM149.125 53.216C149.083 53.088 149.008 52.896 148.901 52.64C148.795 52.3627 148.667 52.0747 148.517 51.776C148.368 51.456 148.208 51.168 148.037 50.912C147.888 50.6347 147.749 50.4427 147.621 50.336C147.173 49.9733 146.587 49.76 145.861 49.696C145.157 49.6107 144.421 49.5573 143.653 49.536L142.149 50.592C141.744 50.8693 141.467 51.1467 141.317 51.424C141.168 51.68 141.061 51.936 140.997 52.192C140.955 52.448 140.912 52.6827 140.869 52.896C140.848 53.1093 140.763 53.312 140.613 53.504C140.741 53.9093 140.816 54.2293 140.837 54.464C140.88 54.6987 140.933 54.912 140.997 55.104C141.083 55.296 141.221 55.5093 141.413 55.744C141.605 55.9573 141.936 56.2453 142.405 56.608C142.96 57.0347 143.355 57.2587 143.589 57.28H143.621C143.621 57.28 143.696 57.312 143.845 57.376C143.995 57.4187 144.165 57.472 144.357 57.536C144.571 57.6 144.784 57.664 144.997 57.728C145.211 57.7707 145.381 57.792 145.509 57.792C145.637 57.792 145.701 57.792 145.701 57.792C145.723 57.792 145.744 57.7813 145.765 57.76C145.808 57.7173 145.883 57.664 145.989 57.6C146.117 57.5147 146.363 57.3867 146.725 57.216C147.344 56.9173 147.803 56.6293 148.101 56.352C148.421 56.0533 148.645 55.744 148.773 55.424C148.901 55.104 148.976 54.7733 148.997 54.432C149.04 54.0693 149.083 53.664 149.125 53.216ZM146.661 54.752C146.491 55.1147 146.235 55.3493 145.893 55.456C145.552 55.5627 145.253 55.616 144.997 55.616C144.592 55.616 144.251 55.52 143.973 55.328C143.696 55.136 143.472 54.9227 143.301 54.688C143.131 54.4533 143.003 54.2187 142.917 53.984C142.853 53.7493 142.821 53.5893 142.821 53.504C142.821 53.4827 142.864 53.376 142.949 53.184C143.035 52.9707 143.141 52.7467 143.269 52.512C143.397 52.2773 143.536 52.064 143.685 51.872C143.856 51.6587 144.027 51.552 144.197 51.552C144.432 51.552 144.699 51.584 144.997 51.648C145.296 51.6907 145.659 51.7867 146.085 51.936C146.256 52.0853 146.384 52.256 146.469 52.448C146.576 52.64 146.651 52.832 146.693 53.024C146.757 53.216 146.8 53.3867 146.821 53.536C146.843 53.6853 146.853 53.792 146.853 53.856C146.853 54.112 146.789 54.4107 146.661 54.752ZM204.589 51.584C204.888 51.392 205.037 51.168 205.037 50.912C205.037 50.6347 204.994 50.4213 204.909 50.272C204.824 50.1227 204.706 50.0053 204.557 49.92C204.429 49.8347 204.29 49.7813 204.141 49.76C203.992 49.7387 203.853 49.728 203.725 49.728C203.426 49.728 203.128 49.7493 202.829 49.792C202.552 49.8133 202.328 49.8453 202.157 49.888C202.029 49.8453 201.912 49.824 201.805 49.824C201.464 49.824 201.154 49.8453 200.877 49.888C200.6 49.9307 200.322 49.984 200.045 50.048C199.789 50.0907 199.512 50.1333 199.213 50.176C198.936 50.2187 198.616 50.24 198.253 50.24H197.869V49.408C197.869 49.024 197.848 48.7253 197.805 48.512C197.826 48.448 197.837 48.3093 197.837 48.096C197.837 47.8613 197.826 47.552 197.805 47.168C197.784 46.784 197.741 46.3787 197.677 45.952C197.634 45.5253 197.57 45.1093 197.485 44.704C197.4 44.2773 197.293 43.9147 197.165 43.616C196.909 43.3387 196.568 43.2 196.141 43.2C195.33 43.2 194.925 43.4667 194.925 44C194.925 44.1067 194.925 44.1813 194.925 44.224C194.946 44.2667 194.968 44.3307 194.989 44.416C195.01 44.48 195.042 44.5973 195.085 44.768C195.128 44.9387 195.181 45.1947 195.245 45.536C195.352 46.0907 195.448 46.464 195.533 46.656C195.49 46.8693 195.469 47.0507 195.469 47.2C195.469 47.4987 195.501 47.8293 195.565 48.192C195.65 48.5547 195.693 48.7893 195.693 48.896C195.693 49.152 195.682 49.4827 195.661 49.888C195.64 50.272 195.629 50.624 195.629 50.944V51.04C195.629 51.0827 195.618 51.1787 195.597 51.328C195.597 51.4773 195.586 51.648 195.565 51.84C195.544 52.032 195.522 52.2347 195.501 52.448C195.501 52.64 195.501 52.8107 195.501 52.96C195.501 53.2587 195.533 53.4827 195.597 53.632C195.576 53.7387 195.544 53.888 195.501 54.08C195.458 54.272 195.416 54.4853 195.373 54.72C195.352 54.9333 195.32 55.1573 195.277 55.392C195.256 55.6053 195.245 55.7867 195.245 55.936C195.245 56.2347 195.33 56.448 195.501 56.576C195.672 56.6827 195.906 56.736 196.205 56.736C196.781 56.736 197.154 56.5227 197.325 56.096C197.346 55.904 197.378 55.6693 197.421 55.392C197.485 55.1147 197.538 54.8053 197.581 54.464C197.645 54.1227 197.698 53.7813 197.741 53.44C197.784 53.0987 197.805 52.768 197.805 52.448C197.912 52.4053 198.104 52.3733 198.381 52.352C198.68 52.3093 199.042 52.2667 199.469 52.224L201.133 52.064H201.421C201.592 52.064 201.784 52.0533 201.997 52.032C202.21 52.0107 202.466 51.9787 202.765 51.936L204.589 51.584ZM188.269 43.456C188.226 43.3067 188.088 43.1147 187.853 42.88C187.64 42.6453 187.384 42.4107 187.085 42.176C186.808 41.9413 186.53 41.728 186.253 41.536C185.976 41.3227 185.762 41.1733 185.613 41.088C185.293 40.896 185.048 40.7573 184.877 40.672C184.728 40.5867 184.61 40.5333 184.525 40.512C184.461 40.4693 184.408 40.4587 184.365 40.48C184.322 40.48 184.258 40.48 184.173 40.48C183.874 40.48 183.64 40.6187 183.469 40.896C183.32 41.1733 183.245 41.4613 183.245 41.76C183.245 41.9947 183.309 42.176 183.437 42.304C183.565 42.432 183.725 42.5493 183.917 42.656C184.109 42.7627 184.301 42.8693 184.493 42.976C184.706 43.0827 184.888 43.2427 185.037 43.456L186.189 44.192C186.488 44.384 186.722 44.5333 186.893 44.64C187.085 44.7467 187.202 44.8533 187.245 44.96C187.522 44.8107 187.768 44.6187 187.981 44.384C188.194 44.1493 188.301 43.9147 188.301 43.68C188.301 43.5733 188.29 43.4987 188.269 43.456ZM189.997 46.272C189.89 46.1867 189.709 46.1013 189.453 46.016C189.218 45.9307 188.952 45.856 188.653 45.792C188.376 45.728 188.088 45.6747 187.789 45.632C187.512 45.5893 187.277 45.568 187.085 45.568H186.797C186.349 45.4827 185.944 45.408 185.581 45.344C185.218 45.2587 184.824 45.1947 184.397 45.152C184.29 45.1307 184.12 45.1093 183.885 45.088C183.65 45.0453 183.384 45.0133 183.085 44.992C182.786 44.9493 182.488 44.9173 182.189 44.896C181.89 44.8747 181.645 44.864 181.453 44.864C180.664 44.864 180.109 44.9387 179.789 45.088C179.469 45.216 179.309 45.568 179.309 46.144C179.309 46.3787 179.373 46.6027 179.501 46.816L180.909 47.04C181.485 47.104 181.944 47.136 182.285 47.136C182.648 47.136 182.946 47.136 183.181 47.136C183.437 47.136 183.661 47.1467 183.853 47.168C184.045 47.168 184.258 47.2107 184.493 47.296H184.621C184.749 47.296 184.952 47.328 185.229 47.392C185.528 47.4347 185.858 47.488 186.221 47.552C186.605 47.616 187 47.68 187.405 47.744C187.81 47.7867 188.173 47.808 188.493 47.808C188.962 47.808 189.336 47.7333 189.613 47.584C189.89 47.4133 190.029 47.0507 190.029 46.496C190.029 46.4533 190.018 46.4213 189.997 46.4C189.997 46.3573 189.997 46.3147 189.997 46.272ZM188.269 51.328C188.184 51.2 188.109 50.976 188.045 50.656C188.002 50.3147 187.928 50.048 187.821 49.856C187.821 49.7707 187.746 49.664 187.597 49.536C187.469 49.408 187.309 49.28 187.117 49.152C186.946 49.0027 186.754 48.864 186.541 48.736C186.328 48.5867 186.136 48.4587 185.965 48.352C185.474 48.3733 185.016 48.3947 184.589 48.416C184.184 48.4373 183.81 48.5333 183.469 48.704C183.149 48.8533 182.85 49.1093 182.573 49.472C182.296 49.8347 182.061 50.368 181.869 51.072C181.912 51.3707 181.944 51.6373 181.965 51.872C182.008 52.0853 182.05 52.2987 182.093 52.512C182.157 52.704 182.242 52.896 182.349 53.088C182.456 53.2587 182.605 53.44 182.797 53.632L183.661 54.112C183.938 54.24 184.12 54.336 184.205 54.4C184.312 54.4427 184.376 54.4747 184.397 54.496C184.418 54.496 184.429 54.496 184.429 54.496C184.429 54.496 184.482 54.496 184.589 54.496C184.674 54.496 184.792 54.4853 184.941 54.464C185.09 54.4213 185.24 54.3787 185.389 54.336C185.56 54.272 185.698 54.2293 185.805 54.208C185.933 54.1653 185.997 54.144 185.997 54.144H186.029C186.136 54.1227 186.264 54.0693 186.413 53.984C186.584 53.8773 186.754 53.76 186.925 53.632C187.117 53.504 187.288 53.376 187.437 53.248C187.586 53.0987 187.693 52.9707 187.757 52.864C187.928 52.6293 188.024 52.416 188.045 52.224C188.066 52.032 188.141 51.7333 188.269 51.328ZM197.549 69.184C197.421 69.12 197.208 69.088 196.909 69.088C196.482 69.088 196.056 69.12 195.629 69.184C195.202 69.248 194.925 69.28 194.797 69.28C194.349 69.344 193.997 69.3867 193.741 69.408C193.506 69.4293 193.282 69.44 193.069 69.44C192.962 69.44 192.856 69.4293 192.749 69.408C192.664 69.408 192.568 69.408 192.461 69.408C192.333 69.472 191.97 69.504 191.373 69.504C190.882 69.504 190.392 69.4933 189.901 69.472C189.41 69.472 188.962 69.4507 188.557 69.408C188.088 69.3867 187.629 69.3547 187.181 69.312C187.16 69.248 187.149 69.1307 187.149 68.96C187.17 68.6613 187.192 68.3413 187.213 68C187.234 67.6587 187.266 67.3707 187.309 67.136L187.469 65.952C187.533 65.3973 187.65 65.0133 187.821 64.8C188.12 64.736 188.397 64.6827 188.653 64.64C188.93 64.5973 189.208 64.5547 189.485 64.512C189.784 64.4907 190.114 64.4693 190.477 64.448C190.84 64.4267 191.266 64.416 191.757 64.416H193.389C193.474 64.3947 193.592 64.352 193.741 64.288C193.912 64.2453 194.082 64.2027 194.253 64.16C194.424 64.1173 194.584 64.0747 194.733 64.032C194.882 63.9893 194.989 63.9573 195.053 63.936C195.373 63.36 195.597 62.784 195.725 62.208C195.853 61.632 195.97 61.0453 196.077 60.448C196.077 60.2773 196.024 60 195.917 59.616C195.832 59.232 195.672 58.9333 195.437 58.72C194.989 58.6133 194.541 58.496 194.093 58.368C193.666 58.24 193.368 58.176 193.197 58.176C193.133 58.1973 192.994 58.208 192.781 58.208C192.674 58.208 192.568 58.208 192.461 58.208C192.354 58.208 192.226 58.1973 192.077 58.176L190.733 58.048C190.52 57.92 190.189 57.856 189.741 57.856C189.314 57.8347 188.994 57.792 188.781 57.728C188.589 57.8347 188.45 57.9947 188.365 58.208C188.28 58.4213 188.237 58.6347 188.237 58.848C188.237 59.168 188.365 59.4133 188.621 59.584C188.898 59.7547 189.208 59.8827 189.549 59.968C189.89 60.032 190.21 60.0747 190.509 60.096C190.829 60.096 191.032 60.096 191.117 60.096C191.16 60.1173 191.277 60.1493 191.469 60.192C191.661 60.2347 191.928 60.2773 192.269 60.32L193.773 60.544C193.773 60.8853 193.72 61.2267 193.613 61.568C193.506 61.888 193.389 62.1653 193.261 62.4C193.112 62.4213 192.93 62.432 192.717 62.432C192.504 62.432 192.248 62.432 191.949 62.432H191.661C191.448 62.432 191.266 62.4427 191.117 62.464C190.968 62.4853 190.84 62.5173 190.733 62.56C190.626 62.5387 190.456 62.528 190.221 62.528C189.602 62.528 189.058 62.5813 188.589 62.688C188.12 62.7733 187.586 62.816 186.989 62.816H186.733C186.306 62.816 185.965 62.9653 185.709 63.264C185.453 63.5627 185.325 63.9893 185.325 64.544C185.325 64.672 185.357 64.768 185.421 64.832L185.133 67.168C185.026 68.128 184.941 68.7573 184.877 69.056C184.834 69.3547 184.813 69.4827 184.813 69.44C184.813 69.6747 184.877 69.8987 185.005 70.112C185.133 70.3467 185.282 70.5493 185.453 70.72C185.645 70.912 185.848 71.0613 186.061 71.168C186.274 71.2747 186.466 71.3387 186.637 71.36C187.277 71.4027 187.906 71.4347 188.525 71.456C189.144 71.4987 189.709 71.5307 190.221 71.552C190.733 71.5733 191.149 71.584 191.469 71.584C191.81 71.584 192.002 71.584 192.045 71.584C192.557 71.584 193.09 71.552 193.645 71.488C194.221 71.4453 194.765 71.392 195.277 71.328C195.789 71.264 196.226 71.2 196.589 71.136C196.973 71.0933 197.218 71.072 197.325 71.072C197.453 71.0293 197.56 70.9013 197.645 70.688C197.752 70.4747 197.805 70.1973 197.805 69.856C197.805 69.5787 197.72 69.3547 197.549 69.184ZM186.093 51.264C186.093 51.3067 186.072 51.392 186.029 51.52C185.986 51.648 185.922 51.776 185.837 51.904C185.752 52.032 185.634 52.1493 185.485 52.256C185.336 52.3627 185.154 52.416 184.941 52.416C184.706 52.416 184.482 52.352 184.269 52.224C184.077 52.0747 183.981 51.84 183.981 51.52C183.981 51.4347 184.002 51.2853 184.045 51.072C184.088 50.8373 184.194 50.6347 184.365 50.464C184.6 50.4 184.792 50.3573 184.941 50.336C185.09 50.2933 185.229 50.272 185.357 50.272C185.421 50.272 185.496 50.3147 185.581 50.4C185.666 50.4853 185.741 50.592 185.805 50.72C185.89 50.8267 185.954 50.9333 185.997 51.04C186.061 51.1467 186.093 51.2213 186.093 51.264ZM238.548 54.4C238.548 54.1653 238.559 53.8987 238.58 53.6C238.602 53.28 238.612 52.96 238.612 52.64C238.612 52.3413 238.602 52.0533 238.58 51.776C238.559 51.4773 238.516 51.2 238.452 50.944C238.495 50.8373 238.516 50.7307 238.516 50.624C238.516 50.496 238.516 50.368 238.516 50.24C238.516 49.8773 238.474 49.4827 238.388 49.056C238.324 48.608 238.25 48.1493 238.164 47.68C237.972 47.424 237.695 47.296 237.332 47.296C237.034 47.296 236.767 47.3707 236.532 47.52C236.298 47.6693 236.18 47.9147 236.18 48.256C236.18 48.6613 236.223 49.0347 236.308 49.376C236.394 49.7173 236.436 50.1333 236.436 50.624V51.136C236.436 51.456 236.49 51.744 236.596 52C236.511 52.256 236.468 52.608 236.468 53.056C236.468 53.376 236.468 53.6213 236.468 53.792C236.49 53.9413 236.5 54.08 236.5 54.208C236.522 54.3147 236.532 54.4213 236.532 54.528C236.554 54.6347 236.564 54.784 236.564 54.976C236.564 55.7653 236.543 56.3733 236.5 56.8C236.479 57.2053 236.436 57.536 236.372 57.792C236.33 58.048 236.287 58.2827 236.244 58.496C236.223 58.7093 236.212 58.9973 236.212 59.36C236.212 59.6373 236.298 59.8827 236.468 60.096C236.639 60.3093 236.906 60.416 237.268 60.416C237.482 60.416 237.663 60.3307 237.812 60.16C237.962 59.9893 238.079 59.7653 238.164 59.488C238.271 59.1893 238.335 58.8587 238.356 58.496C238.399 58.112 238.42 57.728 238.42 57.344V57.024L238.58 55.808C238.602 55.68 238.612 55.552 238.612 55.424C238.612 55.296 238.612 55.1787 238.612 55.072C238.612 54.944 238.612 54.8267 238.612 54.72C238.612 54.6133 238.591 54.5067 238.548 54.4ZM230.676 55.872C230.506 55.552 230.356 55.3173 230.228 55.168C230.1 54.9973 229.93 54.8267 229.716 54.656C229.524 54.464 229.279 54.24 228.98 53.984C228.682 53.7067 228.298 53.3013 227.828 52.768C228.02 52.5333 228.223 52.2773 228.436 52C228.65 51.7013 228.756 51.3067 228.756 50.816C228.756 50.3253 228.543 49.9733 228.116 49.76C227.69 49.5253 227.231 49.408 226.74 49.408H226.484C226.1 49.344 225.748 49.28 225.428 49.216C225.13 49.1307 224.799 49.0667 224.436 49.024C224.095 48.96 223.679 48.9067 223.188 48.864C222.719 48.8213 222.122 48.8 221.396 48.8C221.247 48.8427 221.076 48.9707 220.884 49.184C220.692 49.3973 220.596 49.664 220.596 49.984C220.596 50.2187 220.66 50.4427 220.788 50.656C221.535 50.8053 222.164 50.88 222.676 50.88C223.21 50.88 223.711 50.9653 224.18 51.136H224.372C224.522 51.136 224.703 51.1573 224.916 51.2C225.13 51.2427 225.332 51.2853 225.524 51.328C225.716 51.3707 225.866 51.4133 225.972 51.456C226.1 51.4773 226.154 51.488 226.132 51.488C225.919 51.744 225.663 52.0853 225.364 52.512C225.066 52.9173 224.81 53.2053 224.596 53.376L222.868 56.032C222.655 56.352 222.41 56.7147 222.132 57.12C221.855 57.5253 221.695 57.9093 221.652 58.272C221.674 58.3573 221.791 58.528 222.004 58.784C222.239 59.0187 222.506 59.136 222.804 59.136C223.06 59.136 223.284 59.008 223.476 58.752C223.69 58.496 223.956 58.1333 224.276 57.664C224.298 57.5573 224.372 57.3973 224.5 57.184C224.65 56.9707 224.799 56.7573 224.948 56.544C225.119 56.3307 225.279 56.1493 225.428 56C225.578 55.8293 225.674 55.7227 225.716 55.68C225.738 55.616 225.791 55.52 225.876 55.392C225.962 55.264 226.047 55.136 226.132 55.008C226.239 54.8587 226.335 54.72 226.42 54.592C226.527 54.464 226.612 54.368 226.676 54.304C226.804 54.4533 226.9 54.5707 226.964 54.656C227.028 54.72 227.071 54.7733 227.092 54.816C227.135 54.8587 227.167 54.8907 227.188 54.912C227.231 54.9333 227.284 54.9547 227.348 54.976C227.668 55.2107 227.86 55.4347 227.924 55.648C227.988 55.8613 228.127 56.032 228.34 56.16C228.596 56.3947 228.842 56.6187 229.076 56.832C229.332 57.0453 229.599 57.1733 229.876 57.216C229.898 57.216 229.951 57.184 230.036 57.12C230.122 57.0347 230.218 56.9493 230.324 56.864C230.431 56.7573 230.527 56.6507 230.612 56.544C230.698 56.416 230.74 56.288 230.74 56.16C230.74 56.096 230.719 56 230.676 55.872ZM87.756 88.8C87.7773 88.7147 87.788 88.6293 87.788 88.544C87.788 88.4587 87.788 88.3733 87.788 88.288C87.788 87.7333 87.756 87.3067 87.692 87.008C87.628 86.7093 87.5426 86.4853 87.436 86.336C87.3293 86.1867 87.18 86.1013 86.988 86.08C86.8173 86.0587 86.6253 86.048 86.412 86.048C85.9213 86.048 85.4733 86.0907 85.068 86.176C84.684 86.24 84.2466 86.272 83.756 86.272C83.564 86.3573 83.2866 86.4213 82.924 86.464C82.5613 86.5067 82.2306 86.528 81.932 86.528C81.548 86.528 81.164 86.6027 80.78 86.752C80.4173 86.88 80.1506 86.9973 79.98 87.104C79.9586 87.2107 79.9373 87.36 79.916 87.552C79.916 87.7227 79.916 87.9147 79.916 88.128C79.916 88.384 79.916 88.64 79.916 88.896C79.9373 89.1307 79.948 89.3013 79.948 89.408V89.952C79.948 90.0373 79.9586 90.1227 79.98 90.208C80.0013 90.2933 80.0226 90.4 80.044 90.528C80.0653 90.656 80.0973 90.8053 80.14 90.976C80.204 91.2533 80.236 91.488 80.236 91.68C80.236 91.872 80.236 92.0533 80.236 92.224C80.236 92.3947 80.236 92.5653 80.236 92.736C80.2573 92.9067 80.3 93.12 80.364 93.376C80.5773 93.4827 80.812 93.568 81.068 93.632C81.324 93.696 81.5906 93.728 81.868 93.728C82.4013 93.728 82.8066 93.7173 83.084 93.696C83.3613 93.6747 83.564 93.6533 83.692 93.632C83.82 93.6107 83.9053 93.5893 83.948 93.568C84.012 93.5467 84.0973 93.536 84.204 93.536H84.78C85.3133 93.536 85.8146 93.5147 86.284 93.472C86.7746 93.408 87.1053 93.344 87.276 93.28C87.4466 92.8107 87.5533 92.352 87.596 91.904C87.6386 91.456 87.6813 91.0613 87.724 90.72C87.788 90.528 87.8306 90.3467 87.852 90.176C87.8733 90.0053 87.884 89.8453 87.884 89.696C87.884 89.5253 87.8733 89.376 87.852 89.248C87.8306 89.0987 87.7986 88.9493 87.756 88.8ZM93.26 101.248C93.5586 101.099 93.708 100.811 93.708 100.384C93.708 99.9787 93.548 99.68 93.228 99.488C92.908 99.2747 92.4706 99.136 91.916 99.072C91.3613 98.9867 90.7106 98.944 89.964 98.944C89.2386 98.9227 88.4493 98.8907 87.596 98.848L84.876 98.72C84.8333 98.6347 84.812 98.5387 84.812 98.432C84.812 98.304 84.812 98.176 84.812 98.048C84.812 97.856 84.812 97.664 84.812 97.472C84.8333 97.2587 84.844 97.0773 84.844 96.928V96.736C84.8653 96.6293 84.876 96.4693 84.876 96.256C84.876 95.7013 84.812 95.2 84.684 94.752C84.5773 94.2827 84.3426 94.048 83.98 94.048C83.6386 94.048 83.372 94.1013 83.18 94.208C82.988 94.3147 82.8386 94.4533 82.732 94.624C82.6466 94.7733 82.5933 94.9547 82.572 95.168C82.5506 95.3813 82.54 95.5947 82.54 95.808C82.54 96.0213 82.5506 96.224 82.572 96.416C82.5933 96.608 82.6253 96.7573 82.668 96.864V97.024C82.668 97.216 82.6786 97.3973 82.7 97.568C82.7213 97.7173 82.732 97.9093 82.732 98.144C82.732 98.3573 82.6466 98.5173 82.476 98.624C82.3053 98.7307 81.964 98.8053 81.452 98.848C80.9613 98.8907 80.2573 98.912 79.34 98.912C78.444 98.912 77.26 98.912 75.788 98.912H75.372C74.8173 98.912 74.4226 98.9973 74.188 99.168C73.9746 99.3387 73.868 99.6373 73.868 100.064C73.868 100.427 73.996 100.683 74.252 100.832C74.5293 100.981 75.084 101.056 75.916 101.056C76.2573 101.056 76.5346 101.045 76.748 101.024C76.9613 100.981 77.1213 100.939 77.228 100.896C77.484 100.96 77.7933 100.992 78.156 100.992C78.412 100.992 78.6573 100.981 78.892 100.96C79.1266 100.939 79.2973 100.928 79.404 100.928C79.5106 100.928 79.6173 100.939 79.724 100.96C79.8306 100.96 80.0013 100.96 80.236 100.96C80.8546 100.96 81.452 100.939 82.028 100.896C82.604 100.832 82.9453 100.779 83.052 100.736C83.116 100.757 83.3293 100.779 83.692 100.8C84.076 100.821 84.4813 100.843 84.908 100.864C85.3346 100.864 85.7186 100.875 86.06 100.896C86.4226 100.896 86.6146 100.896 86.636 100.896H87.18C87.7346 100.896 88.2466 100.928 88.716 100.992C89.2066 101.035 89.612 101.056 89.932 101.056C89.996 101.056 90.06 101.056 90.124 101.056C90.2093 101.056 90.2733 101.045 90.316 101.024C90.4013 101.045 90.5506 101.077 90.764 101.12C90.9773 101.141 91.212 101.163 91.468 101.184C91.724 101.205 91.9693 101.227 92.204 101.248C92.46 101.269 92.6733 101.28 92.844 101.28C93.0573 101.28 93.196 101.269 93.26 101.248ZM85.644 89.728V90.08C85.644 90.2507 85.6333 90.3787 85.612 90.464C85.612 90.528 85.6013 90.592 85.58 90.656C85.5586 90.72 85.5373 90.8053 85.516 90.912C85.4946 90.9973 85.4733 91.1467 85.452 91.36C85.2173 91.4027 85.0146 91.4453 84.844 91.488C84.6946 91.5093 84.5133 91.52 84.3 91.52C84.2146 91.52 84.1186 91.52 84.012 91.52C83.9266 91.52 83.8306 91.5093 83.724 91.488C83.6173 91.5307 83.4573 91.552 83.244 91.552C82.8386 91.552 82.5506 91.5093 82.38 91.424C82.2093 91.3387 82.1026 91.2213 82.06 91.072C82.0173 90.9013 81.996 90.72 81.996 90.528C82.0173 90.336 82.0173 90.1227 81.996 89.888C81.9533 89.6747 81.932 89.504 81.932 89.376C81.932 89.248 81.932 89.152 81.932 89.088C81.9533 89.024 81.9533 88.9707 81.932 88.928C81.932 88.864 81.9213 88.7787 81.9 88.672C82.1133 88.544 82.3906 88.448 82.732 88.384C83.0946 88.32 83.4573 88.2773 83.82 88.256C84.204 88.2133 84.556 88.192 84.876 88.192C85.196 88.1707 85.4413 88.16 85.612 88.16C85.676 88.5867 85.708 88.9173 85.708 89.152C85.708 89.2587 85.6973 89.3547 85.676 89.44C85.676 89.5253 85.6653 89.6213 85.644 89.728ZM114.806 93.44C114.699 93.376 114.55 93.3333 114.358 93.312C114.166 93.2693 113.963 93.2373 113.75 93.216C113.558 93.1947 113.355 93.184 113.142 93.184C112.95 93.184 112.811 93.1733 112.726 93.152C112.001 93.152 111.585 93.1413 111.478 93.12L110.71 92.96C110.582 93.0027 110.475 93.024 110.39 93.024C110.091 93.024 109.686 92.96 109.174 92.832L107.798 92.544C107.819 92.416 107.83 92.2453 107.83 92.032C107.83 91.7973 107.841 91.552 107.862 91.296C107.883 91.04 107.905 90.7947 107.926 90.56C107.969 90.304 108.033 90.0907 108.118 89.92C108.545 89.8347 109.035 89.76 109.59 89.696C110.166 89.6107 110.625 89.568 110.966 89.568H111.51C111.595 89.5467 111.713 89.5253 111.862 89.504C112.033 89.4613 112.203 89.4293 112.374 89.408C112.545 89.3867 112.705 89.3653 112.854 89.344C113.003 89.3227 113.11 89.3013 113.174 89.28C113.366 88.8747 113.505 88.4693 113.59 88.064C113.697 87.6587 113.771 87.2853 113.814 86.944C113.857 86.5813 113.878 86.272 113.878 86.016C113.899 85.76 113.91 85.5787 113.91 85.472C113.91 85.216 113.857 85.024 113.75 84.896C113.643 84.7467 113.505 84.64 113.334 84.576C113.163 84.4907 112.971 84.4267 112.758 84.384C112.545 84.3413 112.321 84.288 112.086 84.224C111.51 84.0533 111.147 83.968 110.998 83.968C110.955 83.9893 110.87 84 110.742 84C110.529 84 110.283 83.9787 110.006 83.936C109.729 83.8933 109.451 83.8613 109.174 83.84C108.961 83.712 108.63 83.648 108.182 83.648C107.755 83.6267 107.435 83.584 107.222 83.52C107.03 83.6267 106.891 83.7867 106.806 84C106.721 84.2133 106.678 84.4267 106.678 84.64C106.678 84.96 106.806 85.2053 107.062 85.376C107.339 85.5467 107.649 85.6747 107.99 85.76C108.331 85.824 108.651 85.8667 108.95 85.888C109.27 85.888 109.473 85.888 109.558 85.888C109.622 85.9093 109.729 85.9413 109.878 85.984C110.049 86.0053 110.23 86.0373 110.422 86.08C110.635 86.1013 110.838 86.1333 111.03 86.176C111.243 86.1973 111.435 86.2187 111.606 86.24C111.585 86.4107 111.574 86.5813 111.574 86.752C111.574 86.9013 111.553 87.04 111.51 87.168C111.489 87.2747 111.425 87.3707 111.318 87.456C111.233 87.52 111.083 87.552 110.87 87.552C110.614 87.552 110.369 87.6053 110.134 87.712C110.027 87.6907 109.889 87.68 109.718 87.68C109.547 87.68 109.387 87.7013 109.238 87.744C109.11 87.7653 108.961 87.7973 108.79 87.84C108.641 87.8613 108.449 87.8933 108.214 87.936C108.001 87.9573 107.713 87.968 107.35 87.968H107.094C106.667 87.968 106.326 88.1173 106.07 88.416C105.814 88.7147 105.686 89.1413 105.686 89.696C105.686 89.824 105.718 89.92 105.782 89.984L105.654 91.36C105.633 91.7013 105.611 91.9573 105.59 92.128C105.569 92.2987 105.547 92.4373 105.526 92.544C105.505 92.6293 105.483 92.704 105.462 92.768C105.462 92.832 105.462 92.9173 105.462 93.024C105.462 93.3867 105.526 93.6747 105.654 93.888C105.803 94.1013 105.974 94.2613 106.166 94.368C106.379 94.4533 106.593 94.5173 106.806 94.56C107.019 94.5813 107.19 94.592 107.318 94.592C107.723 94.6347 108.235 94.6987 108.854 94.784L110.134 95.008C111.243 95.2 112.097 95.296 112.694 95.296C112.971 95.296 113.206 95.296 113.398 95.296C113.611 95.2747 113.803 95.264 113.974 95.264H114.326C114.454 95.2 114.593 95.0507 114.742 94.816C114.891 94.56 114.966 94.2827 114.966 93.984C114.966 93.792 114.913 93.6107 114.806 93.44ZM119.542 98.624L118.102 98.368C117.825 98.3253 117.579 98.2827 117.366 98.24C117.174 98.1973 116.993 98.1867 116.822 98.208H116.598C116.491 98.1653 116.278 98.144 115.958 98.144C115.638 98.1227 115.297 98.0907 114.934 98.048C114.529 98.0267 114.081 97.9947 113.59 97.952C113.483 97.952 113.27 97.952 112.95 97.952C112.63 97.9307 112.193 97.92 111.638 97.92C111.147 97.92 110.849 97.9307 110.742 97.952C110.678 97.9307 110.561 97.9093 110.39 97.888C110.219 97.8667 110.006 97.8453 109.75 97.824C109.515 97.8027 109.259 97.792 108.982 97.792C108.705 97.7707 108.438 97.76 108.182 97.76C108.054 97.76 107.937 97.7707 107.83 97.792C107.723 97.792 107.638 97.792 107.574 97.792C107.489 97.792 107.243 97.792 106.838 97.792C106.454 97.7707 105.921 97.76 105.238 97.76C104.939 97.76 104.683 97.7707 104.47 97.792C104.278 97.792 104.118 97.8027 103.99 97.824C103.862 97.76 103.585 97.728 103.158 97.728C102.39 97.728 101.793 97.7493 101.366 97.792C100.961 97.8347 100.662 97.8987 100.47 97.984C100.278 98.0693 100.161 98.176 100.118 98.304C100.097 98.432 100.086 98.5707 100.086 98.72C100.086 99.232 100.235 99.584 100.534 99.776C100.833 99.968 101.163 100.064 101.526 100.064C101.782 100.064 102.113 100.043 102.518 100C102.923 99.936 103.233 99.904 103.446 99.904C103.595 99.904 103.691 99.9147 103.734 99.936C103.798 99.9573 103.937 99.968 104.15 99.968C104.257 99.968 104.47 99.968 104.79 99.968C105.11 99.9467 105.451 99.936 105.814 99.936C106.177 99.9147 106.539 99.904 106.902 99.904C107.265 99.8827 107.553 99.872 107.766 99.872C108.171 99.872 108.406 99.8827 108.47 99.904H108.886C109.142 99.904 109.579 99.9147 110.198 99.936C110.817 99.9573 111.446 99.9893 112.086 100.032C112.726 100.053 113.291 100.075 113.782 100.096C114.273 100.117 114.507 100.128 114.486 100.128C114.699 100.128 115.03 100.16 115.478 100.224C115.947 100.267 116.417 100.32 116.886 100.384C117.377 100.427 117.825 100.48 118.23 100.544C118.657 100.587 118.955 100.608 119.126 100.608C119.425 100.608 119.638 100.501 119.766 100.288C119.894 100.075 119.958 99.8293 119.958 99.552C119.958 99.1253 119.819 98.816 119.542 98.624ZM135.104 103.68C135.083 103.616 135.04 103.573 134.976 103.552C134.933 103.531 134.859 103.499 134.752 103.456C134.667 103.392 134.56 103.307 134.432 103.2C134.304 103.072 134.155 102.891 133.984 102.656C133.664 102.443 133.376 102.208 133.12 101.952C132.885 101.675 132.683 101.504 132.512 101.44C132.533 101.397 132.597 101.323 132.704 101.216C132.832 101.109 132.96 100.981 133.088 100.832C133.216 100.683 133.333 100.533 133.44 100.384C133.547 100.235 133.6 100.096 133.6 99.968C133.6 99.7333 133.515 99.4773 133.344 99.2C133.195 98.9013 132.939 98.752 132.576 98.752C132.277 98.752 131.979 98.88 131.68 99.136C131.381 99.3707 131.083 99.648 130.784 99.968C130.507 100.288 130.229 100.608 129.952 100.928C129.675 101.248 129.429 101.472 129.216 101.6L127.84 103.168C127.627 103.445 127.349 103.765 127.008 104.128C126.667 104.491 126.443 104.853 126.336 105.216C126.336 105.344 126.453 105.547 126.688 105.824C126.923 106.101 127.2 106.24 127.52 106.24C127.627 106.24 127.808 106.123 128.064 105.888C128.341 105.675 128.64 105.397 128.96 105.056C129.301 104.736 129.653 104.384 130.016 104C130.4 103.616 130.763 103.253 131.104 102.912C131.424 103.125 131.755 103.381 132.096 103.68C132.437 103.979 132.747 104.267 133.024 104.544C133.301 104.821 133.525 105.045 133.696 105.216C133.867 105.408 133.952 105.493 133.952 105.472C133.824 105.664 133.696 105.877 133.568 106.112C133.44 106.368 133.312 106.613 133.184 106.848C133.056 107.104 132.949 107.339 132.864 107.552C132.779 107.787 132.725 107.979 132.704 108.128C132.725 108.213 132.853 108.363 133.088 108.576C133.344 108.811 133.611 108.928 133.888 108.928C134.187 108.928 134.485 108.683 134.784 108.192C135.083 107.723 135.488 106.997 136 106.016C136.171 105.739 136.32 105.504 136.448 105.312C136.597 105.12 136.725 104.939 136.832 104.768C136.96 104.619 137.077 104.459 137.184 104.288C137.312 104.117 137.461 103.904 137.632 103.648C137.696 103.691 137.76 103.765 137.824 103.872C137.909 103.979 137.995 104.085 138.08 104.192C138.187 104.32 138.283 104.427 138.368 104.512C138.475 104.619 138.56 104.683 138.624 104.704C138.965 104.917 139.221 105.141 139.392 105.376C139.584 105.632 139.776 105.835 139.968 105.984C140.053 106.048 140.16 106.155 140.288 106.304C140.416 106.475 140.544 106.635 140.672 106.784C140.821 106.955 140.971 107.104 141.12 107.232C141.291 107.381 141.44 107.467 141.568 107.488L142.368 107.136C142.688 107.008 142.848 106.805 142.848 106.528C142.848 106.315 142.773 106.091 142.624 105.856C142.496 105.643 142.347 105.44 142.176 105.248C142.005 105.056 141.824 104.885 141.632 104.736C141.44 104.587 141.301 104.48 141.216 104.416C141.131 104.288 140.981 104.117 140.768 103.904C140.555 103.691 140.32 103.467 140.064 103.232C139.808 102.997 139.563 102.773 139.328 102.56C139.093 102.325 138.901 102.133 138.752 101.984L139.424 100.832C139.787 100.235 139.968 99.808 139.968 99.552C139.84 99.2533 139.669 99.0507 139.456 98.944C139.243 98.8373 138.976 98.784 138.656 98.784C138.421 98.784 138.261 98.784 138.176 98.784C138.112 98.784 138.027 98.8693 137.92 99.04C137.835 99.2107 137.675 99.5093 137.44 99.936C137.227 100.363 136.864 101.003 136.352 101.856C136.288 101.899 136.192 102.005 136.064 102.176C135.957 102.325 135.84 102.496 135.712 102.688C135.605 102.88 135.488 103.072 135.36 103.264C135.253 103.456 135.168 103.595 135.104 103.68ZM133.216 86.912C132.981 86.72 132.693 86.56 132.352 86.432C132.011 86.2827 131.659 86.208 131.296 86.208H131.04C130.656 86.144 130.304 86.08 129.984 86.016C129.685 85.9307 129.355 85.8667 128.992 85.824C128.651 85.76 128.235 85.7067 127.744 85.664C127.275 85.6213 126.677 85.6 125.952 85.6C125.803 85.6427 125.632 85.7707 125.44 85.984C125.248 86.1973 125.152 86.464 125.152 86.784C125.152 87.0187 125.216 87.2427 125.344 87.456C126.091 87.6053 126.72 87.68 127.232 87.68C127.765 87.68 128.267 87.7653 128.736 87.936H128.928C129.632 87.936 130.123 88.0213 130.4 88.192C130.699 88.3413 130.848 88.4267 130.848 88.448C130.848 88.6187 130.784 88.864 130.656 89.184C130.528 89.4827 130.368 89.792 130.176 90.112C129.984 90.432 129.781 90.7413 129.568 91.04C129.376 91.3173 129.216 91.52 129.088 91.648C128.875 92.0747 128.64 92.4587 128.384 92.8C128.149 93.12 127.851 93.5467 127.488 94.08C127.573 94.336 127.669 94.592 127.776 94.848C127.883 95.0827 128.117 95.2 128.48 95.2C128.672 95.2 128.896 95.168 129.152 95.104C129.301 94.8907 129.536 94.6133 129.856 94.272C130.197 93.9093 130.411 93.5893 130.496 93.312L130.912 92.672C131.125 92.352 131.296 92.096 131.424 91.904C131.552 91.712 131.648 91.5413 131.712 91.392C131.797 91.2427 131.872 91.104 131.936 90.976C132 90.8267 132.064 90.656 132.128 90.464C132.277 90.272 132.416 90.048 132.544 89.792C132.693 89.5147 132.821 89.2373 132.928 88.96C133.056 88.6827 133.152 88.4267 133.216 88.192C133.28 87.9573 133.312 87.7547 133.312 87.584C133.312 87.3707 133.28 87.1467 133.216 86.912ZM141.6 91.808C141.621 91.6587 141.632 91.4773 141.632 91.264C141.632 91.0507 141.632 90.7947 141.632 90.496C141.632 89.8773 141.589 89.472 141.504 89.28C141.547 89.1733 141.568 89.056 141.568 88.928C141.568 88.7787 141.568 88.6507 141.568 88.544C141.568 88.3733 141.568 88.2773 141.568 88.256C141.568 88.2133 141.568 88.1707 141.568 88.128C141.568 88.064 141.557 87.9573 141.536 87.808C141.536 87.6587 141.525 87.3707 141.504 86.944C141.504 86.624 141.493 86.112 141.472 85.408C141.451 84.704 141.397 84 141.312 83.296C141.227 82.5707 141.088 81.9413 140.896 81.408C140.725 80.8747 140.48 80.608 140.16 80.608C139.819 80.608 139.531 80.7467 139.296 81.024C139.061 81.3013 138.923 81.536 138.88 81.728C138.88 81.7493 138.891 81.9093 138.912 82.208C138.955 82.4853 138.997 82.7947 139.04 83.136C139.083 83.4773 139.125 83.7973 139.168 84.096C139.211 84.3947 139.243 84.5653 139.264 84.608C139.264 84.6293 139.264 84.7787 139.264 85.056C139.285 85.3333 139.296 85.664 139.296 86.048C139.317 86.4107 139.328 86.7947 139.328 87.2C139.349 87.6053 139.36 87.936 139.36 88.192C139.36 88.4267 139.317 88.5973 139.232 88.704C139.147 88.7893 139.008 88.8533 138.816 88.896C138.645 88.9173 138.411 88.928 138.112 88.928C137.813 88.928 137.461 88.96 137.056 89.024H136.8C136.608 89.024 136.341 89.0453 136 89.088C135.68 89.1307 135.349 89.2053 135.008 89.312C134.688 89.3973 134.411 89.5253 134.176 89.696C133.941 89.8453 133.824 90.0267 133.824 90.24C133.824 90.496 133.867 90.7093 133.952 90.88C134.037 91.0293 134.133 91.1467 134.24 91.232C134.368 91.3173 134.496 91.3707 134.624 91.392C134.752 91.4133 134.869 91.424 134.976 91.424C135.616 91.424 136.139 91.4027 136.544 91.36C136.949 91.296 137.301 91.232 137.6 91.168C137.899 91.104 138.176 91.0507 138.432 91.008C138.688 90.944 138.997 90.912 139.36 90.912V91.168C139.36 91.7867 139.339 92.3307 139.296 92.8C139.275 93.248 139.243 93.6533 139.2 94.016C139.179 94.3573 139.147 94.6667 139.104 94.944C139.083 95.2 139.072 95.456 139.072 95.712C139.072 96.48 139.467 96.864 140.256 96.864C140.64 96.864 140.939 96.6933 141.152 96.352C141.387 95.9893 141.504 95.3067 141.504 94.304C141.504 94.048 141.483 93.888 141.44 93.824C141.504 93.4613 141.536 93.0667 141.536 92.64C141.557 92.2133 141.579 91.936 141.6 91.808ZM146.368 90.816V90.048C146.368 89.8773 146.368 89.7173 146.368 89.568C146.368 89.4187 146.347 89.28 146.304 89.152C146.347 89.0453 146.379 88.896 146.4 88.704C146.421 88.512 146.432 88.2987 146.432 88.064C146.432 87.68 146.411 87.2747 146.368 86.848C146.325 86.4 146.283 85.984 146.24 85.6C146.283 85.472 146.304 85.2907 146.304 85.056C146.304 84.928 146.304 84.7787 146.304 84.608C146.304 84.4373 146.283 84.2347 146.24 84L146.048 82.464C145.877 81.9733 145.6 81.728 145.216 81.728C144.725 81.728 144.373 81.8773 144.16 82.176C143.947 82.4747 143.84 82.7413 143.84 82.976C143.84 83.104 143.851 83.264 143.872 83.456C143.893 83.648 143.915 83.8507 143.936 84.064C143.979 84.2773 144.011 84.4907 144.032 84.704C144.053 84.896 144.064 85.0453 144.064 85.152C144.064 85.3227 144.053 85.44 144.032 85.504C144.032 85.5467 144.043 85.6853 144.064 85.92C144.085 86.1333 144.096 86.3893 144.096 86.688C144.117 86.9867 144.139 87.2853 144.16 87.584C144.181 87.8613 144.192 88.0747 144.192 88.224V88.544C144.192 88.608 144.192 88.6827 144.192 88.768C144.213 88.8533 144.224 88.9493 144.224 89.056C144.224 89.2267 144.213 89.4507 144.192 89.728C144.171 89.984 144.149 90.2613 144.128 90.56C144.128 90.8373 144.117 91.104 144.096 91.36C144.075 91.5947 144.064 91.7653 144.064 91.872C144.064 92.0213 144.064 92.1387 144.064 92.224C144.085 92.3093 144.096 92.4053 144.096 92.512C144.096 93.0453 144.043 93.5787 143.936 94.112C143.829 94.624 143.776 95.0613 143.776 95.424C143.776 95.7227 143.893 95.9467 144.128 96.096C144.363 96.224 144.629 96.288 144.928 96.288C145.355 96.288 145.664 96.128 145.856 95.808L146.08 94.4C146.123 94.1653 146.155 93.952 146.176 93.76C146.197 93.5467 146.208 93.3653 146.208 93.216C146.208 93.0453 146.197 92.928 146.176 92.864C146.219 92.736 146.251 92.5653 146.272 92.352C146.293 92.1173 146.304 91.8933 146.304 91.68C146.325 91.4453 146.336 91.2427 146.336 91.072C146.357 90.9013 146.368 90.816 146.368 90.816ZM176.042 95.424C176.341 95.232 176.49 95.008 176.49 94.752C176.49 94.4747 176.447 94.2613 176.362 94.112C176.277 93.9627 176.159 93.8453 176.01 93.76C175.882 93.6747 175.743 93.6213 175.594 93.6C175.445 93.5787 175.306 93.568 175.178 93.568C174.879 93.568 174.581 93.5893 174.282 93.632C174.005 93.6533 173.781 93.6853 173.61 93.728C173.482 93.6853 173.365 93.664 173.258 93.664C172.917 93.664 172.607 93.6853 172.33 93.728C172.053 93.7707 171.775 93.824 171.498 93.888C171.242 93.9307 170.965 93.9733 170.666 94.016C170.389 94.0587 170.069 94.08 169.706 94.08H169.322V93.248C169.322 92.864 169.301 92.5653 169.258 92.352C169.279 92.288 169.29 92.1493 169.29 91.936C169.29 91.7013 169.279 91.392 169.258 91.008C169.237 90.624 169.194 90.2187 169.13 89.792C169.087 89.3653 169.023 88.9493 168.938 88.544C168.853 88.1173 168.746 87.7547 168.618 87.456C168.362 87.1787 168.021 87.04 167.594 87.04C166.783 87.04 166.378 87.3067 166.378 87.84C166.378 87.9467 166.378 88.0213 166.378 88.064C166.399 88.1067 166.421 88.1707 166.442 88.256C166.463 88.32 166.495 88.4373 166.538 88.608C166.581 88.7787 166.634 89.0347 166.698 89.376C166.805 89.9307 166.901 90.304 166.986 90.496C166.965 90.5813 166.943 90.6773 166.922 90.784C166.922 90.8693 166.922 90.976 166.922 91.104C166.922 91.2747 166.933 91.4773 166.954 91.712C166.975 91.9467 166.997 92.1813 167.018 92.416C167.061 92.6293 167.093 92.832 167.114 93.024C167.135 93.1947 167.146 93.312 167.146 93.376C167.146 93.504 167.135 93.6853 167.114 93.92C167.114 94.1333 167.103 94.4107 167.082 94.752V96.064V96.16C167.082 96.2027 167.071 96.2987 167.05 96.448C167.05 96.5973 167.039 96.768 167.018 96.96C166.997 97.152 166.975 97.3547 166.954 97.568C166.954 97.76 166.954 97.9307 166.954 98.08C166.954 98.3787 166.986 98.6027 167.05 98.752C167.029 98.8587 166.997 99.008 166.954 99.2C166.911 99.392 166.869 99.6053 166.826 99.84C166.805 100.053 166.773 100.277 166.73 100.512C166.709 100.725 166.698 100.907 166.698 101.056C166.698 101.355 166.783 101.568 166.954 101.696C167.125 101.803 167.359 101.856 167.658 101.856C168.234 101.856 168.607 101.643 168.778 101.216L169.034 98.944C169.098 98.368 169.141 97.856 169.162 97.408C169.205 96.96 169.237 96.5867 169.258 96.288C169.365 96.2453 169.557 96.2133 169.834 96.192C170.133 96.1493 170.495 96.1067 170.922 96.064L172.586 95.904H172.874C173.045 95.904 173.237 95.904 173.45 95.904C173.685 95.8827 173.941 95.84 174.218 95.776L176.042 95.424ZM161.13 98.656C161.45 98.3147 161.61 98.0053 161.61 97.728C161.61 97.5147 161.525 97.3227 161.354 97.152C161.183 96.96 161.045 96.832 160.938 96.768C160.682 96.768 160.394 96.8 160.074 96.864C159.754 96.928 159.509 96.9707 159.338 96.992C159.274 96.992 159.21 96.992 159.146 96.992C159.082 96.9707 159.018 96.96 158.954 96.96C158.719 96.96 158.495 96.9813 158.282 97.024C158.069 97.0453 157.845 97.056 157.61 97.056C157.055 97.056 156.597 96.992 156.234 96.864C155.871 96.736 155.551 96.672 155.274 96.672H155.114C154.943 96.6293 154.847 96.5227 154.826 96.352C154.826 96.1813 154.826 95.9787 154.826 95.744C154.826 95.552 154.837 95.36 154.858 95.168C154.879 94.9547 154.911 94.7627 154.954 94.592C154.89 94.272 154.858 93.9307 154.858 93.568C154.858 93.12 154.89 92.6933 154.954 92.288C155.018 91.8827 155.071 91.5627 155.114 91.328C155.69 91.2427 156.17 91.1893 156.554 91.168C156.938 91.1253 157.365 91.0933 157.834 91.072C158.069 91.008 158.314 90.9653 158.57 90.944C158.826 90.9227 159.061 90.8907 159.274 90.848C159.487 90.784 159.658 90.688 159.786 90.56C159.935 90.4107 160.01 90.176 160.01 89.856C160.01 89.0453 159.765 88.6293 159.274 88.608L158.25 88.832C157.93 88.9173 157.631 88.96 157.354 88.96C157.205 88.96 157.098 88.9493 157.034 88.928C156.906 88.9707 156.81 89.0133 156.746 89.056C156.703 89.0773 156.639 89.0987 156.554 89.12C156.469 89.1413 156.341 89.1627 156.17 89.184C156.021 89.184 155.775 89.184 155.434 89.184C155.135 89.312 154.773 89.3653 154.346 89.344C153.941 89.3227 153.589 89.3333 153.29 89.376C153.29 89.4187 153.258 89.536 153.194 89.728C153.151 89.8987 153.098 90.112 153.034 90.368C152.97 90.624 152.906 90.9013 152.842 91.2C152.799 91.4773 152.778 91.7333 152.778 91.968C152.778 92.352 152.81 92.6827 152.874 92.96C152.938 93.216 152.97 93.472 152.97 93.728C152.97 94.048 152.959 94.3253 152.938 94.56C152.917 94.7733 152.885 94.9973 152.842 95.232C152.821 95.4667 152.799 95.7333 152.778 96.032C152.757 96.3307 152.746 96.7253 152.746 97.216C152.746 97.7067 152.895 98.112 153.194 98.432C153.493 98.752 153.866 98.912 154.314 98.912C154.399 98.912 154.463 98.9013 154.506 98.88C154.783 98.9013 155.039 98.944 155.274 99.008C155.53 99.0507 155.775 99.072 156.01 99.072C156.095 99.072 156.17 99.072 156.234 99.072C156.298 99.0507 156.373 99.0293 156.458 99.008C157.034 99.136 157.535 99.2 157.962 99.2C158.495 99.2 158.954 99.1147 159.338 98.944C159.381 98.9653 159.455 98.976 159.562 98.976C159.818 98.976 160.085 98.9333 160.362 98.848C160.639 98.7413 160.895 98.6773 161.13 98.656ZM198.26 87.904C198.239 87.264 198.217 86.6667 198.196 86.112C198.175 85.6427 198.153 85.2053 198.132 84.8C198.132 84.3733 198.121 84.1067 198.1 84C198.143 83.872 198.164 83.6907 198.164 83.456C198.164 83.328 198.164 83.1787 198.164 83.008C198.164 82.8373 198.143 82.6347 198.1 82.4L197.908 80.864C197.737 80.3733 197.46 80.128 197.076 80.128C196.585 80.128 196.233 80.2773 196.02 80.576C195.807 80.8747 195.7 81.1413 195.7 81.376C195.7 81.504 195.711 81.664 195.732 81.856C195.753 82.048 195.775 82.2507 195.796 82.464C195.839 82.6773 195.871 82.8907 195.892 83.104C195.913 83.296 195.924 83.4453 195.924 83.552C195.924 83.7227 195.913 83.84 195.892 83.904C195.892 83.9467 195.903 84.0853 195.924 84.32C195.945 84.5333 195.956 84.7893 195.956 85.088C195.977 85.3867 195.999 85.6853 196.02 85.984C196.041 86.2613 196.052 86.4747 196.052 86.624C196.052 86.7947 196.041 86.9013 196.02 86.944C196.02 86.9653 195.967 86.976 195.86 86.976C195.668 86.976 195.38 86.944 194.996 86.88C194.612 86.7947 194.313 86.752 194.1 86.752H193.908C193.78 86.7307 193.567 86.688 193.268 86.624C192.969 86.56 192.628 86.5067 192.244 86.464C191.881 86.4213 191.519 86.3787 191.156 86.336C190.793 86.2933 190.495 86.272 190.26 86.272C189.897 86.272 189.641 86.3787 189.492 86.592C189.343 86.784 189.268 86.9973 189.268 87.232C189.268 87.5307 189.321 87.776 189.428 87.968C189.556 88.16 189.759 88.3093 190.036 88.416C190.313 88.5013 190.676 88.5653 191.124 88.608C191.572 88.6293 192.127 88.64 192.788 88.64C192.852 88.64 192.895 88.64 192.916 88.64C192.959 88.6187 193.001 88.608 193.044 88.608C193.513 88.7573 194.004 88.8427 194.516 88.864C195.049 88.8853 195.572 88.9173 196.084 88.96C196.084 89.1307 196.084 89.312 196.084 89.504C196.105 89.6747 196.116 89.856 196.116 90.048C196.116 90.3467 196.105 90.5707 196.084 90.72C196.063 90.8693 195.999 90.976 195.892 91.04C195.807 91.104 195.668 91.1467 195.476 91.168C195.305 91.168 195.049 91.168 194.708 91.168C194.367 91.168 194.079 91.168 193.844 91.168C193.631 91.168 193.471 91.1573 193.364 91.136C193.044 91.2 192.66 91.2533 192.212 91.296C191.764 91.3173 191.327 91.3493 190.9 91.392C190.473 91.4133 190.068 91.4347 189.684 91.456C189.321 91.4773 189.065 91.4987 188.916 91.52C188.66 91.84 188.532 92.1707 188.532 92.512C188.532 92.7467 188.607 92.96 188.756 93.152C188.905 93.344 189.151 93.4613 189.492 93.504C189.599 93.504 189.748 93.504 189.94 93.504C190.153 93.4827 190.367 93.4613 190.58 93.44C190.815 93.4187 191.039 93.408 191.252 93.408C191.487 93.3867 191.679 93.376 191.828 93.376H192.084C192.319 93.3333 192.745 93.28 193.364 93.216C193.983 93.152 194.665 93.12 195.412 93.12C195.625 93.12 195.764 93.12 195.828 93.12C195.913 93.12 195.956 93.2373 195.956 93.472C195.956 94.0053 195.903 94.5387 195.796 95.072C195.689 95.584 195.636 96.0213 195.636 96.384C195.636 96.6827 195.753 96.9067 195.988 97.056C196.223 97.184 196.489 97.248 196.788 97.248C197.215 97.248 197.524 97.088 197.716 96.768L197.94 95.36C197.983 95.1253 198.015 94.912 198.036 94.72C198.057 94.5067 198.068 94.3253 198.068 94.176C198.068 94.0053 198.057 93.888 198.036 93.824C198.079 93.696 198.111 93.5253 198.132 93.312C198.153 93.0773 198.164 92.8533 198.164 92.64C198.185 92.4053 198.196 92.2027 198.196 92.032C198.217 91.8613 198.228 91.776 198.228 91.776V91.008C198.228 90.8373 198.228 90.6773 198.228 90.528C198.228 90.3787 198.207 90.24 198.164 90.112C198.207 89.984 198.239 89.8027 198.26 89.568C198.281 89.3333 198.292 89.088 198.292 88.832C198.292 88.6613 198.281 88.4907 198.26 88.32C198.26 88.1493 198.26 88.0107 198.26 87.904ZM187.668 91.328C187.668 90.9653 187.657 90.6773 187.636 90.464C187.636 90.2507 187.625 90.0693 187.604 89.92C187.583 89.7707 187.561 89.6427 187.54 89.536C187.54 89.408 187.54 89.2587 187.54 89.088C187.54 88.9813 187.54 88.8853 187.54 88.8C187.561 88.6933 187.572 88.5867 187.572 88.48C187.572 87.968 187.54 87.4773 187.476 87.008C187.433 86.5387 187.38 86.2187 187.316 86.048C186.804 85.8773 186.281 85.792 185.748 85.792H185.492C185.108 85.792 184.788 85.7707 184.532 85.728C184.297 85.6853 184.073 85.6427 183.86 85.6C183.668 85.5573 183.476 85.5147 183.284 85.472C183.092 85.4293 182.868 85.408 182.612 85.408C182.121 85.408 181.769 85.44 181.556 85.504C181.471 85.4827 181.385 85.472 181.3 85.472C181.215 85.472 181.129 85.472 181.044 85.472C180.511 85.472 180.095 85.504 179.796 85.568C179.497 85.6107 179.273 85.696 179.124 85.824C178.975 85.9307 178.879 86.08 178.836 86.272C178.793 86.4427 178.772 86.656 178.772 86.912C178.772 87.2533 178.804 87.552 178.868 87.808L179.092 88.768C179.113 88.832 179.177 89.0453 179.284 89.408C179.391 89.7707 179.444 90.176 179.444 90.624C179.444 90.7307 179.433 90.8373 179.412 90.944C179.412 91.0293 179.412 91.1253 179.412 91.232C179.412 91.4027 179.444 91.616 179.508 91.872C179.572 92.1067 179.647 92.3413 179.732 92.576C179.817 92.8107 179.903 93.024 179.988 93.216C180.073 93.408 180.137 93.536 180.18 93.6C180.479 93.6427 180.831 93.7173 181.236 93.824C181.641 93.9093 181.951 93.952 182.164 93.952H182.996C183.081 93.952 183.231 93.9413 183.444 93.92C183.657 93.8773 183.903 93.8453 184.18 93.824C184.479 93.7813 184.777 93.7493 185.076 93.728C185.396 93.6853 185.684 93.664 185.94 93.664C186.175 93.664 186.409 93.664 186.644 93.664C186.9 93.6427 187.156 93.6 187.412 93.536C187.647 93.1307 187.764 92.6507 187.764 92.096C187.764 91.84 187.732 91.584 187.668 91.328ZM192.756 105.344C193.076 105.003 193.236 104.693 193.236 104.416C193.236 104.203 193.151 104.011 192.98 103.84C192.809 103.648 192.671 103.52 192.564 103.456C191.796 103.541 191.188 103.616 190.74 103.68C190.292 103.744 189.812 103.776 189.3 103.776C189.087 103.776 188.841 103.776 188.564 103.776C188.287 103.755 188.009 103.744 187.732 103.744C187.476 103.744 187.231 103.744 186.996 103.744C186.783 103.723 186.612 103.712 186.484 103.712C186.335 103.264 186.26 102.848 186.26 102.464C186.281 102.08 186.271 101.557 186.228 100.896V100.32C186.228 100.085 186.217 99.8293 186.196 99.552C186.175 99.2747 186.143 99.0293 186.1 98.816C185.865 98.688 185.663 98.592 185.492 98.528C185.321 98.4427 185.151 98.4 184.98 98.4C184.852 98.4 184.724 98.4213 184.596 98.464C184.489 98.5067 184.383 98.6027 184.276 98.752C184.191 98.9013 184.116 99.1253 184.052 99.424C184.009 99.7013 183.988 100.085 183.988 100.576C183.988 101.237 184.009 101.792 184.052 102.24C184.116 102.667 184.191 103.157 184.276 103.712C184.255 103.819 184.244 103.979 184.244 104.192C184.244 104.811 184.404 105.323 184.724 105.728C184.895 105.792 185.097 105.835 185.332 105.856C185.588 105.899 185.812 105.92 186.004 105.92C186.239 105.92 186.388 105.899 186.452 105.856C186.687 105.877 186.953 105.899 187.252 105.92C187.551 105.941 187.849 105.952 188.148 105.952C188.788 105.952 189.332 105.931 189.78 105.888C190.228 105.867 190.623 105.835 190.964 105.792C191.327 105.749 191.636 105.685 191.892 105.6C192.169 105.536 192.457 105.451 192.756 105.344ZM185.556 89.984C185.577 90.0907 185.588 90.1867 185.588 90.272C185.609 90.336 185.62 90.4107 185.62 90.496C185.62 90.9867 185.545 91.3387 185.396 91.552C185.247 91.744 184.831 91.84 184.148 91.84H183.86C183.753 91.8613 183.593 91.872 183.38 91.872C183.145 91.872 182.921 91.8507 182.708 91.808C182.516 91.7653 182.292 91.744 182.036 91.744C181.993 91.744 181.929 91.744 181.844 91.744C181.78 91.744 181.716 91.7547 181.652 91.776C181.503 91.4773 181.439 91.1787 181.46 90.88C181.481 90.5813 181.428 90.2613 181.3 89.92C181.257 89.4293 181.215 88.992 181.172 88.608C181.151 88.224 181.119 87.8933 181.076 87.616C181.247 87.5947 181.428 87.584 181.62 87.584C181.812 87.5627 181.993 87.552 182.164 87.552C182.655 87.552 183.071 87.5733 183.412 87.616C183.753 87.6373 184.009 87.6587 184.18 87.68L185.396 87.872C185.439 88.1067 185.481 88.352 185.524 88.608C185.567 88.864 185.588 89.1307 185.588 89.408C185.588 89.5147 185.588 89.6107 185.588 89.696C185.588 89.7813 185.577 89.8773 185.556 89.984ZM216.126 89.408C215.998 89.92 215.859 90.4 215.71 90.848C215.561 91.2747 215.369 91.6907 215.134 92.096C214.921 92.48 214.643 92.8427 214.302 93.184C213.982 93.5253 213.577 93.856 213.086 94.176C212.361 94.6453 211.827 95.0507 211.486 95.392C211.145 95.712 210.91 96 210.782 96.256C210.654 96.512 210.59 96.7573 210.59 96.992C210.611 97.2053 210.601 97.44 210.558 97.696C210.409 98.2293 210.014 98.496 209.374 98.496C208.969 98.496 208.702 98.3573 208.574 98.08C208.467 97.8027 208.414 97.4933 208.414 97.152C208.414 96.5547 208.606 95.8827 208.99 95.136C209.395 94.368 210.067 93.7173 211.006 93.184C211.369 92.992 211.678 92.8213 211.934 92.672C212.19 92.5013 212.403 92.32 212.574 92.128C212.766 91.9147 212.937 91.6907 213.086 91.456C213.235 91.2 213.374 90.8907 213.502 90.528C213.673 90.1227 213.79 89.856 213.854 89.728C213.918 89.5787 213.95 89.472 213.95 89.408C213.95 88.96 213.833 88.5653 213.598 88.224C213.385 87.8613 213.118 87.5627 212.798 87.328C212.478 87.072 212.137 86.8907 211.774 86.784C211.411 86.656 211.091 86.592 210.814 86.592C210.451 86.592 210.11 86.6347 209.79 86.72C209.491 86.784 209.193 86.9227 208.894 87.136C208.595 87.328 208.297 87.616 207.998 88C207.699 88.384 207.39 88.896 207.07 89.536C206.878 89.7707 206.611 89.888 206.27 89.888C205.545 89.888 205.161 89.5147 205.118 88.768C205.502 87.7653 205.95 86.9867 206.462 86.432C206.995 85.856 207.529 85.4293 208.062 85.152C208.617 84.8747 209.139 84.704 209.63 84.64C210.142 84.576 210.558 84.544 210.878 84.544C211.859 84.544 212.659 84.6827 213.278 84.96C213.897 85.2373 214.387 85.6 214.75 86.048C215.134 86.496 215.422 87.0187 215.614 87.616C215.806 88.192 215.977 88.7893 216.126 89.408ZM210.814 103.36C210.814 103.701 210.654 103.968 210.334 104.16C210.035 104.352 209.758 104.448 209.502 104.448C209.054 104.448 208.702 104.395 208.446 104.288C208.19 104.181 207.987 104.053 207.838 103.904C207.71 103.733 207.625 103.563 207.582 103.392C207.539 103.2 207.518 103.019 207.518 102.848C207.518 102.464 207.657 102.069 207.934 101.664C208.211 101.259 208.574 101.056 209.022 101.056C209.171 101.056 209.342 101.077 209.534 101.12C209.747 101.141 209.95 101.227 210.142 101.376C210.334 101.525 210.494 101.76 210.622 102.08C210.75 102.379 210.814 102.805 210.814 103.36Z" fill="black"/>
</svg>
